<?xml version="1.0" encoding="UTF-8" standalone="no"?>
<!-- Created with Inkscape (http://www.inkscape.org/) -->

<svg
   width="8cm"
   height="3.8cm"
   viewBox="0 0 80 37.999998"
   version="1.1"
   id="svg8"
   inkscape:version="1.4 (86a8ad7, 2024-10-11)"
   sodipodi:docname="energy-levels-inf-sq-well.svg"
   xmlns:inkscape="http://www.inkscape.org/namespaces/inkscape"
   xmlns:sodipodi="http://sodipodi.sourceforge.net/DTD/sodipodi-0.dtd"
   xmlns="http://www.w3.org/2000/svg"
   xmlns:svg="http://www.w3.org/2000/svg"
   xmlns:rdf="http://www.w3.org/1999/02/22-rdf-syntax-ns#"
   xmlns:cc="http://creativecommons.org/ns#"
   xmlns:dc="http://purl.org/dc/elements/1.1/"
   xmlns:ns0="http://www.iki.fi/pav/software/textext/">
  <sodipodi:namedview
     id="base"
     pagecolor="#ffffff"
     bordercolor="#666666"
     borderopacity="1.0"
     inkscape:pageopacity="0.0"
     inkscape:pageshadow="2"
     inkscape:zoom="2.8"
     inkscape:cx="77.678571"
     inkscape:cy="70.535714"
     inkscape:document-units="mm"
     inkscape:current-layer="g855"
     showgrid="false"
     units="cm"
     inkscape:window-width="1920"
     inkscape:window-height="1009"
     inkscape:window-x="-8"
     inkscape:window-y="-8"
     inkscape:window-maximized="1"
     inkscape:snap-global="false"
     showguides="false"
     inkscape:showpageshadow="2"
     inkscape:pagecheckerboard="0"
     inkscape:deskcolor="#d1d1d1" />
  <defs
     id="defs2">
    <marker
       inkscape:stockid="Arrow2MendH"
       orient="auto"
       refY="0.0"
       refX="0.0"
       id="marker1584"
       style="overflow:visible;"
       inkscape:isstock="true">
      <path
         id="path1582"
         style="stroke-linejoin:round;stroke-opacity:1;fill-rule:evenodd;fill-opacity:1;stroke:#ee7219;stroke-width:0.625;fill:#ee7219"
         d="M 8.7185878,4.0337352 L -2.2072895,0.016013256 L 8.7185884,-4.0017078 C 6.9730900,-1.6296469 6.9831476,1.6157441 8.7185878,4.0337352 z "
         transform="scale(0.6) rotate(180) translate(0,0)" />
    </marker>
    <marker
       inkscape:stockid="Arrow2Mend"
       orient="auto"
       refY="0.0"
       refX="0.0"
       id="Arrow2Mend"
       style="overflow:visible;"
       inkscape:isstock="true">
      <path
         id="path1104"
         style="fill-rule:evenodd;stroke-width:0.625;stroke-linejoin:round;stroke:#9278d1;stroke-opacity:1;fill:#000000;fill-opacity:1"
         d="M 8.7185878,4.0337352 L -2.2072895,0.016013256 L 8.7185884,-4.0017078 C 6.9730900,-1.6296469 6.9831476,1.6157441 8.7185878,4.0337352 z "
         transform="scale(0.6) rotate(180) translate(0,0)" />
    </marker>
    <marker
       inkscape:stockid="Arrow1Send"
       orient="auto"
       refY="0.0"
       refX="0.0"
       id="Arrow1Send"
       style="overflow:visible;"
       inkscape:isstock="true">
      <path
         id="path1092"
         d="M 0.0,0.0 L 5.0,-5.0 L -12.5,0.0 L 5.0,5.0 L 0.0,0.0 z "
         style="fill-rule:evenodd;stroke:#000000;stroke-width:1pt;stroke-opacity:1;fill:#000000;fill-opacity:1"
         transform="scale(0.2) rotate(180) translate(6,0)" />
    </marker>
    <clipPath
       clipPathUnits="userSpaceOnUse"
       id="clipPath247">
      <rect
         ry="0"
         y="233.79077"
         x="142.97461"
         height="45.56945"
         width="1.0753164"
         id="rect249"
         style="color:#000000;display:inline;overflow:visible;visibility:visible;opacity:1;vector-effect:none;fill:#ab1f2d;fill-opacity:1;fill-rule:nonzero;stroke:none;stroke-width:0.19843748;stroke-linecap:butt;stroke-linejoin:miter;stroke-miterlimit:10;stroke-dasharray:none;stroke-dashoffset:0;stroke-opacity:1;marker:none;marker-start:none;marker-mid:none;marker-end:none;enable-background:accumulate" />
    </clipPath>
  </defs>
  <metadata
     id="metadata5">
    <rdf:RDF>
      <cc:Work
         rdf:about="">
        <dc:format>image/svg+xml</dc:format>
        <dc:type
           rdf:resource="http://purl.org/dc/dcmitype/StillImage" />
        <dc:title />
      </cc:Work>
    </rdf:RDF>
  </metadata>
  <g
     inkscape:label="Layer 1"
     inkscape:groupmode="layer"
     id="layer1"
     transform="translate(0,-259.00002)">
    <g
       transform="matrix(0.35277777,0,0,-0.35277777,-3.0238201,351.19959)"
       inkscape:label="inkscape-clipboard-import"
       inkscape:groupmode="layer"
       id="g855">
      <path
         d="m 35.300086,160.15084 h 0.141671 0.167104 0.161638 0.147136 0.151479 0.157295 0.17035 0.138425 0.172067 0.136707 0.148942 0.159833 0.148414 0.16036 0.172221 0.136553 0.165581 0.143194 0.162502 0.146272 0.152955 0.155819 0.154429 0.154347 0.160523 0.148251 0.166761 0.142013"
         style="fill:none;stroke:#000000;stroke-width:0.56692916;stroke-linecap:butt;stroke-linejoin:round;stroke-miterlimit:10;stroke-dasharray:none;stroke-opacity:1"
         id="path1323"
         inkscape:connector-curvature="0" />
      <path
         d="M 37.461508,157.5562 V 258.63424"
         style="fill:none;stroke:#262626;stroke-width:0.70866144;stroke-linecap:square;stroke-linejoin:round;stroke-miterlimit:10;stroke-dasharray:none;stroke-opacity:1"
         id="path1255"
         inkscape:connector-curvature="0" />
      <g
         transform="matrix(1.133858,0,0,-1.133858,-143.68539,403.57862)"
         ns0:version="0.11.0"
         ns0:texconverter="pdflatex"
         ns0:pdfconverter="pdf2svg"
         ns0:text="$E$"
         ns0:preamble="/home/phyps/Dropbox/Talks/1710 Bristol Colloquium teleportation/preamble.tex"
         ns0:scale="8.03521629938"
         ns0:alignment="middle center"
         inkscapeversion="0.92.3"
         ns0:jacobian_sqrt="1.133858"
         style="fill-opacity:1;stroke:#000000;stroke-opacity:1"
         id="g2360">
        <g
           id="surface1"
           style="fill-opacity:1;stroke:#000000;stroke-opacity:1">
          <g
             style="fill:#000000;fill-opacity:1;stroke:#000000;stroke-opacity:1"
             id="g2357">
            <path
               inkscape:connector-curvature="0"
               style="fill-opacity:1;stroke:#000000;stroke-width:0;stroke-opacity:1"
               d="M 7.0625,-2.328125 C 7.078125,-2.375 7.109375,-2.4375 7.109375,-2.46875 c 0,0 0,-0.109375 -0.125,-0.109375 -0.09375,0 -0.109375,0.0625 -0.125,0.125 C 6.203125,-0.984375 5.84375,-0.3125 4.140625,-0.3125 H 2.6875 c -0.140625,0 -0.171875,0 -0.21875,0 -0.109375,-0.015625 -0.140625,-0.03125 -0.140625,-0.109375 0,-0.03125 0,-0.046875 0.046875,-0.21875 L 3.0625,-3.375 h 0.984375 c 0.84375,0 0.84375,0.21875 0.84375,0.46875 0,0.0625 0,0.1875 -0.0625,0.484375 C 4.8125,-2.375 4.796875,-2.34375 4.796875,-2.3125 c 0,0.046875 0.03125,0.109375 0.125,0.109375 C 5,-2.203125 5.03125,-2.25 5.078125,-2.40625 l 0.5625,-2.328125 c 0,-0.0625 -0.046875,-0.109375 -0.125,-0.109375 -0.078125,0 -0.109375,0.0625 -0.125,0.171875 -0.21875,0.765625 -0.390625,1 -1.3125,1 h -0.9375 l 0.59375,-2.40625 C 3.828125,-6.4375 3.84375,-6.46875 4.28125,-6.46875 H 5.6875 c 1.203125,0 1.515625,0.28125 1.515625,1.109375 0,0.234375 0,0.25 -0.046875,0.53125 0,0.046875 -0.015625,0.125 -0.015625,0.171875 0,0.046875 0.03125,0.125 0.125,0.125 0.109375,0 0.125,-0.0625 0.140625,-0.25 L 7.609375,-6.515625 C 7.640625,-6.78125 7.59375,-6.78125 7.34375,-6.78125 H 2.296875 c -0.1875,0 -0.296875,0 -0.296875,0.203125 0,0.109375 0.09375,0.109375 0.28125,0.109375 0.375,0 0.65625,0 0.65625,0.171875 0,0.046875 0,0.0625 -0.0625,0.25 L 1.5625,-0.78125 c -0.09375,0.390625 -0.109375,0.46875 -0.90625,0.46875 -0.171875,0 -0.28125,0 -0.28125,0.1875 C 0.375,0 0.46875,0 0.65625,0 h 5.171875 c 0.234375,0 0.25,-0.015625 0.3125,-0.171875 z m 0,0"
               transform="translate(148.712,134.765)"
               id="path2355" />
          </g>
        </g>
      </g>
      <g
         id="g2424"
         style="fill-opacity:1;stroke:#000000;stroke-opacity:1"
         ns0:jacobian_sqrt="1.133858"
         inkscapeversion="0.92.3"
         ns0:alignment="middle center"
         ns0:scale="8.03521629938"
         ns0:preamble="/home/phyps/Dropbox/Talks/1710 Bristol Colloquium teleportation/preamble.tex"
         ns0:text="$0$"
         ns0:pdfconverter="pdf2svg"
         ns0:texconverter="pdflatex"
         ns0:version="0.11.0"
         transform="matrix(1.133858,0,0,-1.133858,-140.63162,309.31447)">
        <g
           style="fill-opacity:1;stroke:#000000;stroke-opacity:1"
           id="g2422">
          <g
             id="g2420"
             style="fill:#000000;fill-opacity:1;stroke:#000000;stroke-opacity:1">
            <path
               id="path2418"
               transform="translate(148.712,134.765)"
               d="m 4.578125,-3.1875 c 0,-0.796875 -0.046875,-1.59375 -0.390625,-2.328125 -0.453125,-0.96875 -1.28125,-1.125 -1.6875,-1.125 -0.609375,0 -1.328125,0.265625 -1.75,1.1875 -0.3125,0.6875 -0.359375,1.46875 -0.359375,2.265625 0,0.75 0.03125,1.640625 0.453125,2.40625 0.421875,0.796875 1.15625,1 1.640625,1 0.53125,0 1.296875,-0.203125 1.734375,-1.15625 0.3125,-0.6875 0.359375,-1.46875 0.359375,-2.25 z M 2.484375,0 C 2.09375,0 1.5,-0.25 1.328125,-1.203125 1.21875,-1.796875 1.21875,-2.71875 1.21875,-3.3125 c 0,-0.640625 0,-1.296875 0.078125,-1.828125 0.1875,-1.1875 0.9375,-1.28125 1.1875,-1.28125 0.328125,0 0.984375,0.1875 1.171875,1.171875 0.109375,0.5625 0.109375,1.3125 0.109375,1.9375 0,0.75 0,1.421875 -0.109375,2.0625 C 3.5,-0.296875 2.9375,0 2.484375,0 Z m 0,0"
               style="fill-opacity:1;stroke:#000000;stroke-width:0;stroke-opacity:1"
               inkscape:connector-curvature="0" />
          </g>
        </g>
      </g>
      <g
         transform="matrix(1.133858,0,0,-1.133858,-29.155417,313.69907)"
         ns0:version="0.11.0"
         ns0:texconverter="pdflatex"
         ns0:pdfconverter="pdf2svg"
         ns0:text="$E_1$"
         ns0:preamble="/home/phyps/Dropbox/Talks/1710 Bristol Colloquium teleportation/preamble.tex"
         ns0:scale="8.03521629938"
         ns0:alignment="middle center"
         inkscapeversion="0.92.3"
         ns0:jacobian_sqrt="1.133858"
         style="fill-opacity:1;stroke:#000000;stroke-opacity:1"
         id="g2516">
        <g
           id="g2514"
           style="fill-opacity:1;stroke:#000000;stroke-opacity:1">
          <g
             style="fill:#000000;fill-opacity:1;stroke:#000000;stroke-opacity:1"
             id="g2508">
            <path
               inkscape:connector-curvature="0"
               style="fill-opacity:1;stroke:#000000;stroke-width:0;stroke-opacity:1"
               d="M 7.0625,-2.328125 C 7.078125,-2.375 7.109375,-2.4375 7.109375,-2.46875 c 0,0 0,-0.109375 -0.125,-0.109375 -0.09375,0 -0.109375,0.0625 -0.125,0.125 C 6.203125,-0.984375 5.84375,-0.3125 4.140625,-0.3125 H 2.6875 c -0.140625,0 -0.171875,0 -0.21875,0 -0.109375,-0.015625 -0.140625,-0.03125 -0.140625,-0.109375 0,-0.03125 0,-0.046875 0.046875,-0.21875 L 3.0625,-3.375 h 0.984375 c 0.84375,0 0.84375,0.21875 0.84375,0.46875 0,0.0625 0,0.1875 -0.0625,0.484375 C 4.8125,-2.375 4.796875,-2.34375 4.796875,-2.3125 c 0,0.046875 0.03125,0.109375 0.125,0.109375 C 5,-2.203125 5.03125,-2.25 5.078125,-2.40625 l 0.5625,-2.328125 c 0,-0.0625 -0.046875,-0.109375 -0.125,-0.109375 -0.078125,0 -0.109375,0.0625 -0.125,0.171875 -0.21875,0.765625 -0.390625,1 -1.3125,1 h -0.9375 l 0.59375,-2.40625 C 3.828125,-6.4375 3.84375,-6.46875 4.28125,-6.46875 H 5.6875 c 1.203125,0 1.515625,0.28125 1.515625,1.109375 0,0.234375 0,0.25 -0.046875,0.53125 0,0.046875 -0.015625,0.125 -0.015625,0.171875 0,0.046875 0.03125,0.125 0.125,0.125 0.109375,0 0.125,-0.0625 0.140625,-0.25 L 7.609375,-6.515625 C 7.640625,-6.78125 7.59375,-6.78125 7.34375,-6.78125 H 2.296875 c -0.1875,0 -0.296875,0 -0.296875,0.203125 0,0.109375 0.09375,0.109375 0.28125,0.109375 0.375,0 0.65625,0 0.65625,0.171875 0,0.046875 0,0.0625 -0.0625,0.25 L 1.5625,-0.78125 c -0.09375,0.390625 -0.109375,0.46875 -0.90625,0.46875 -0.171875,0 -0.28125,0 -0.28125,0.1875 C 0.375,0 0.46875,0 0.65625,0 h 5.171875 c 0.234375,0 0.25,-0.015625 0.3125,-0.171875 z m 0,0"
               transform="translate(148.712,134.765)"
               id="path2506" />
          </g>
          <g
             style="fill:#000000;fill-opacity:1;stroke:#000000;stroke-opacity:1"
             id="g2512">
            <path
               inkscape:connector-curvature="0"
               style="fill-opacity:1;stroke:#000000;stroke-width:0;stroke-opacity:1"
               d="m 2.328125,-4.4375 c 0,-0.1875 0,-0.1875 -0.203125,-0.1875 -0.453125,0.4375 -1.078125,0.4375 -1.359375,0.4375 v 0.25 c 0.15625,0 0.625,0 1,-0.1875 v 3.546875 c 0,0.234375 0,0.328125 -0.6875,0.328125 H 0.8125 V 0 c 0.125,0 0.984375,-0.03125 1.234375,-0.03125 0.21875,0 1.09375,0.03125 1.25,0.03125 V -0.25 H 3.03125 c -0.703125,0 -0.703125,-0.09375 -0.703125,-0.328125 z m 0,0"
               transform="translate(156.067,136.259)"
               id="path2510" />
          </g>
        </g>
      </g>
      <g
         id="g2662"
         style="fill-opacity:1;stroke:#000000;stroke-opacity:1"
         ns0:jacobian_sqrt="1.133858"
         inkscapeversion="0.92.3"
         ns0:alignment="middle center"
         ns0:scale="8.03521629938"
         ns0:preamble="/home/phyps/Dropbox/Talks/1710 Bristol Colloquium teleportation/preamble.tex"
         ns0:text="$E_2$"
         ns0:pdfconverter="pdf2svg"
         ns0:texconverter="pdflatex"
         ns0:version="0.11.0"
         transform="matrix(1.133858,0,0,-1.133858,-29.155417,324.92313)">
        <g
           style="fill-opacity:1;stroke:#000000;stroke-opacity:1"
           id="g2660">
          <g
             id="g2654"
             style="fill:#000000;fill-opacity:1;stroke:#000000;stroke-opacity:1">
            <path
               inkscape:connector-curvature="0"
               id="path2652"
               transform="translate(148.712,134.765)"
               d="M 7.0625,-2.328125 C 7.078125,-2.375 7.109375,-2.4375 7.109375,-2.46875 c 0,0 0,-0.109375 -0.125,-0.109375 -0.09375,0 -0.109375,0.0625 -0.125,0.125 C 6.203125,-0.984375 5.84375,-0.3125 4.140625,-0.3125 H 2.6875 c -0.140625,0 -0.171875,0 -0.21875,0 -0.109375,-0.015625 -0.140625,-0.03125 -0.140625,-0.109375 0,-0.03125 0,-0.046875 0.046875,-0.21875 L 3.0625,-3.375 h 0.984375 c 0.84375,0 0.84375,0.21875 0.84375,0.46875 0,0.0625 0,0.1875 -0.0625,0.484375 C 4.8125,-2.375 4.796875,-2.34375 4.796875,-2.3125 c 0,0.046875 0.03125,0.109375 0.125,0.109375 C 5,-2.203125 5.03125,-2.25 5.078125,-2.40625 l 0.5625,-2.328125 c 0,-0.0625 -0.046875,-0.109375 -0.125,-0.109375 -0.078125,0 -0.109375,0.0625 -0.125,0.171875 -0.21875,0.765625 -0.390625,1 -1.3125,1 h -0.9375 l 0.59375,-2.40625 C 3.828125,-6.4375 3.84375,-6.46875 4.28125,-6.46875 H 5.6875 c 1.203125,0 1.515625,0.28125 1.515625,1.109375 0,0.234375 0,0.25 -0.046875,0.53125 0,0.046875 -0.015625,0.125 -0.015625,0.171875 0,0.046875 0.03125,0.125 0.125,0.125 0.109375,0 0.125,-0.0625 0.140625,-0.25 L 7.609375,-6.515625 C 7.640625,-6.78125 7.59375,-6.78125 7.34375,-6.78125 H 2.296875 c -0.1875,0 -0.296875,0 -0.296875,0.203125 0,0.109375 0.09375,0.109375 0.28125,0.109375 0.375,0 0.65625,0 0.65625,0.171875 0,0.046875 0,0.0625 -0.0625,0.25 L 1.5625,-0.78125 c -0.09375,0.390625 -0.109375,0.46875 -0.90625,0.46875 -0.171875,0 -0.28125,0 -0.28125,0.1875 C 0.375,0 0.46875,0 0.65625,0 h 5.171875 c 0.234375,0 0.25,-0.015625 0.3125,-0.171875 z m 0,0"
               style="fill-opacity:1;stroke:#000000;stroke-width:0;stroke-opacity:1" />
          </g>
          <g
             id="g2658"
             style="fill:#000000;fill-opacity:1;stroke:#000000;stroke-opacity:1">
            <path
               inkscape:connector-curvature="0"
               id="path2656"
               transform="translate(156.067,136.259)"
               d="M 3.515625,-1.265625 H 3.28125 c -0.015625,0.15625 -0.09375,0.5625 -0.1875,0.625 C 3.046875,-0.59375 2.515625,-0.59375 2.40625,-0.59375 H 1.125 c 0.734375,-0.640625 0.984375,-0.84375 1.390625,-1.171875 0.515625,-0.40625 1,-0.84375 1,-1.5 0,-0.84375 -0.734375,-1.359375 -1.625,-1.359375 -0.859375,0 -1.453125,0.609375 -1.453125,1.25 0,0.34375 0.296875,0.390625 0.375,0.390625 0.15625,0 0.359375,-0.125 0.359375,-0.375 0,-0.125 -0.046875,-0.375 -0.40625,-0.375 C 0.984375,-4.21875 1.453125,-4.375 1.78125,-4.375 c 0.703125,0 1.0625,0.546875 1.0625,1.109375 0,0.609375 -0.4375,1.078125 -0.65625,1.328125 L 0.515625,-0.265625 C 0.4375,-0.203125 0.4375,-0.1875 0.4375,0 h 2.875 z m 0,0"
               style="fill-opacity:1;stroke:#000000;stroke-width:0;stroke-opacity:1" />
          </g>
        </g>
      </g>
      <g
         transform="matrix(1.133858,0,0,-1.133858,-29.155417,343.70961)"
         ns0:version="0.11.0"
         ns0:texconverter="pdflatex"
         ns0:pdfconverter="pdf2svg"
         ns0:text="$E_3$"
         ns0:preamble="/home/phyps/Dropbox/Talks/1710 Bristol Colloquium teleportation/preamble.tex"
         ns0:scale="8.03521629938"
         ns0:alignment="middle center"
         inkscapeversion="0.92.3"
         ns0:jacobian_sqrt="1.133858"
         style="fill-opacity:1;stroke:#000000;stroke-opacity:1"
         id="g2784">
        <g
           id="g2782"
           style="fill-opacity:1;stroke:#000000;stroke-opacity:1">
          <g
             style="fill:#000000;fill-opacity:1;stroke:#000000;stroke-opacity:1"
             id="g2776">
            <path
               inkscape:connector-curvature="0"
               style="fill-opacity:1;stroke:#000000;stroke-width:0;stroke-opacity:1"
               d="M 7.0625,-2.328125 C 7.078125,-2.375 7.109375,-2.4375 7.109375,-2.46875 c 0,0 0,-0.109375 -0.125,-0.109375 -0.09375,0 -0.109375,0.0625 -0.125,0.125 C 6.203125,-0.984375 5.84375,-0.3125 4.140625,-0.3125 H 2.6875 c -0.140625,0 -0.171875,0 -0.21875,0 -0.109375,-0.015625 -0.140625,-0.03125 -0.140625,-0.109375 0,-0.03125 0,-0.046875 0.046875,-0.21875 L 3.0625,-3.375 h 0.984375 c 0.84375,0 0.84375,0.21875 0.84375,0.46875 0,0.0625 0,0.1875 -0.0625,0.484375 C 4.8125,-2.375 4.796875,-2.34375 4.796875,-2.3125 c 0,0.046875 0.03125,0.109375 0.125,0.109375 C 5,-2.203125 5.03125,-2.25 5.078125,-2.40625 l 0.5625,-2.328125 c 0,-0.0625 -0.046875,-0.109375 -0.125,-0.109375 -0.078125,0 -0.109375,0.0625 -0.125,0.171875 -0.21875,0.765625 -0.390625,1 -1.3125,1 h -0.9375 l 0.59375,-2.40625 C 3.828125,-6.4375 3.84375,-6.46875 4.28125,-6.46875 H 5.6875 c 1.203125,0 1.515625,0.28125 1.515625,1.109375 0,0.234375 0,0.25 -0.046875,0.53125 0,0.046875 -0.015625,0.125 -0.015625,0.171875 0,0.046875 0.03125,0.125 0.125,0.125 0.109375,0 0.125,-0.0625 0.140625,-0.25 L 7.609375,-6.515625 C 7.640625,-6.78125 7.59375,-6.78125 7.34375,-6.78125 H 2.296875 c -0.1875,0 -0.296875,0 -0.296875,0.203125 0,0.109375 0.09375,0.109375 0.28125,0.109375 0.375,0 0.65625,0 0.65625,0.171875 0,0.046875 0,0.0625 -0.0625,0.25 L 1.5625,-0.78125 c -0.09375,0.390625 -0.109375,0.46875 -0.90625,0.46875 -0.171875,0 -0.28125,0 -0.28125,0.1875 C 0.375,0 0.46875,0 0.65625,0 h 5.171875 c 0.234375,0 0.25,-0.015625 0.3125,-0.171875 z m 0,0"
               transform="translate(148.712,134.765)"
               id="path2774" />
          </g>
          <g
             style="fill:#000000;fill-opacity:1;stroke:#000000;stroke-opacity:1"
             id="g2780">
            <path
               inkscape:connector-curvature="0"
               style="fill-opacity:1;stroke:#000000;stroke-width:0;stroke-opacity:1"
               d="m 1.90625,-2.328125 c 0.546875,0 0.9375,0.375 0.9375,1.125 0,0.859375 -0.515625,1.125 -0.90625,1.125 -0.28125,0 -0.90625,-0.078125 -1.1875,-0.5 0.328125,0 0.40625,-0.234375 0.40625,-0.390625 0,-0.21875 -0.171875,-0.375 -0.390625,-0.375 -0.1875,0 -0.390625,0.125 -0.390625,0.40625 0,0.65625 0.71875,1.078125 1.5625,1.078125 0.96875,0 1.640625,-0.65625 1.640625,-1.34375 0,-0.546875 -0.4375,-1.09375 -1.203125,-1.25 0.71875,-0.265625 0.984375,-0.78125 0.984375,-1.21875 0,-0.546875 -0.625,-0.953125 -1.40625,-0.953125 -0.765625,0 -1.359375,0.375 -1.359375,0.9375 0,0.234375 0.15625,0.359375 0.359375,0.359375 0.21875,0 0.359375,-0.15625 0.359375,-0.34375 0,-0.203125 -0.140625,-0.359375 -0.359375,-0.375 0.25,-0.296875 0.71875,-0.375 0.984375,-0.375 0.3125,0 0.75,0.15625 0.75,0.75 0,0.296875 -0.09375,0.625 -0.28125,0.828125 -0.21875,0.265625 -0.421875,0.28125 -0.765625,0.3125 -0.171875,0.015625 -0.1875,0.015625 -0.21875,0.015625 -0.015625,0 -0.078125,0.015625 -0.078125,0.09375 0,0.09375 0.0625,0.09375 0.1875,0.09375 z m 0,0"
               transform="translate(156.067,136.259)"
               id="path2778" />
          </g>
        </g>
      </g>
      <g
         id="g2906"
         style="fill-opacity:1;stroke:#000000;stroke-opacity:1"
         ns0:jacobian_sqrt="1.133858"
         inkscapeversion="0.92.3"
         ns0:alignment="middle center"
         ns0:scale="8.03521629938"
         ns0:preamble="/home/phyps/Dropbox/Talks/1710 Bristol Colloquium teleportation/preamble.tex"
         ns0:text="$E_4$"
         ns0:pdfconverter="pdf2svg"
         ns0:texconverter="pdflatex"
         ns0:version="0.11.0"
         transform="matrix(1.133858,0,0,-1.133858,-29.155417,369.81935)">
        <g
           style="fill-opacity:1;stroke:#000000;stroke-opacity:1"
           id="g2904">
          <g
             id="g2898"
             style="fill:#000000;fill-opacity:1;stroke:#000000;stroke-opacity:1">
            <path
               inkscape:connector-curvature="0"
               id="path2896"
               transform="translate(148.712,134.765)"
               d="M 7.0625,-2.328125 C 7.078125,-2.375 7.109375,-2.4375 7.109375,-2.46875 c 0,0 0,-0.109375 -0.125,-0.109375 -0.09375,0 -0.109375,0.0625 -0.125,0.125 C 6.203125,-0.984375 5.84375,-0.3125 4.140625,-0.3125 H 2.6875 c -0.140625,0 -0.171875,0 -0.21875,0 -0.109375,-0.015625 -0.140625,-0.03125 -0.140625,-0.109375 0,-0.03125 0,-0.046875 0.046875,-0.21875 L 3.0625,-3.375 h 0.984375 c 0.84375,0 0.84375,0.21875 0.84375,0.46875 0,0.0625 0,0.1875 -0.0625,0.484375 C 4.8125,-2.375 4.796875,-2.34375 4.796875,-2.3125 c 0,0.046875 0.03125,0.109375 0.125,0.109375 C 5,-2.203125 5.03125,-2.25 5.078125,-2.40625 l 0.5625,-2.328125 c 0,-0.0625 -0.046875,-0.109375 -0.125,-0.109375 -0.078125,0 -0.109375,0.0625 -0.125,0.171875 -0.21875,0.765625 -0.390625,1 -1.3125,1 h -0.9375 l 0.59375,-2.40625 C 3.828125,-6.4375 3.84375,-6.46875 4.28125,-6.46875 H 5.6875 c 1.203125,0 1.515625,0.28125 1.515625,1.109375 0,0.234375 0,0.25 -0.046875,0.53125 0,0.046875 -0.015625,0.125 -0.015625,0.171875 0,0.046875 0.03125,0.125 0.125,0.125 0.109375,0 0.125,-0.0625 0.140625,-0.25 L 7.609375,-6.515625 C 7.640625,-6.78125 7.59375,-6.78125 7.34375,-6.78125 H 2.296875 c -0.1875,0 -0.296875,0 -0.296875,0.203125 0,0.109375 0.09375,0.109375 0.28125,0.109375 0.375,0 0.65625,0 0.65625,0.171875 0,0.046875 0,0.0625 -0.0625,0.25 L 1.5625,-0.78125 c -0.09375,0.390625 -0.109375,0.46875 -0.90625,0.46875 -0.171875,0 -0.28125,0 -0.28125,0.1875 C 0.375,0 0.46875,0 0.65625,0 h 5.171875 c 0.234375,0 0.25,-0.015625 0.3125,-0.171875 z m 0,0"
               style="fill-opacity:1;stroke:#000000;stroke-width:0;stroke-opacity:1" />
          </g>
          <g
             id="g2902"
             style="fill:#000000;fill-opacity:1;stroke:#000000;stroke-opacity:1">
            <path
               inkscape:connector-curvature="0"
               id="path2900"
               transform="translate(156.067,136.259)"
               d="m 3.6875,-1.140625 v -0.25 H 2.90625 V -4.5 c 0,-0.140625 0,-0.203125 -0.140625,-0.203125 -0.09375,0 -0.125,0 -0.1875,0.109375 l -2.3125,3.203125 v 0.25 h 2.0625 v 0.5625 c 0,0.25 0,0.328125 -0.578125,0.328125 H 1.5625 V 0 C 1.921875,-0.015625 2.359375,-0.03125 2.609375,-0.03125 2.875,-0.03125 3.3125,-0.015625 3.671875,0 v -0.25 h -0.1875 C 2.90625,-0.25 2.90625,-0.328125 2.90625,-0.578125 v -0.5625 z M 2.375,-3.9375 v 2.546875 H 0.53125 Z m 0,0"
               style="fill-opacity:1;stroke:#000000;stroke-width:0;stroke-opacity:1" />
          </g>
        </g>
      </g>
      <g
         transform="matrix(1.133858,0,0,-1.133858,-29.155417,403.57124)"
         ns0:version="0.11.0"
         ns0:texconverter="pdflatex"
         ns0:pdfconverter="pdf2svg"
         ns0:text="$E_5$"
         ns0:preamble="/home/phyps/Dropbox/Talks/1710 Bristol Colloquium teleportation/preamble.tex"
         ns0:scale="8.03521629938"
         ns0:alignment="middle center"
         inkscapeversion="0.92.3"
         ns0:jacobian_sqrt="1.133858"
         style="fill-opacity:1;stroke:#000000;stroke-opacity:1"
         id="g3028">
        <g
           id="g3026"
           style="fill-opacity:1;stroke:#000000;stroke-opacity:1">
          <g
             style="fill:#000000;fill-opacity:1;stroke:#000000;stroke-opacity:1"
             id="g3020">
            <path
               inkscape:connector-curvature="0"
               style="fill-opacity:1;stroke:#000000;stroke-width:0;stroke-opacity:1"
               d="M 7.0625,-2.328125 C 7.078125,-2.375 7.109375,-2.4375 7.109375,-2.46875 c 0,0 0,-0.109375 -0.125,-0.109375 -0.09375,0 -0.109375,0.0625 -0.125,0.125 C 6.203125,-0.984375 5.84375,-0.3125 4.140625,-0.3125 H 2.6875 c -0.140625,0 -0.171875,0 -0.21875,0 -0.109375,-0.015625 -0.140625,-0.03125 -0.140625,-0.109375 0,-0.03125 0,-0.046875 0.046875,-0.21875 L 3.0625,-3.375 h 0.984375 c 0.84375,0 0.84375,0.21875 0.84375,0.46875 0,0.0625 0,0.1875 -0.0625,0.484375 C 4.8125,-2.375 4.796875,-2.34375 4.796875,-2.3125 c 0,0.046875 0.03125,0.109375 0.125,0.109375 C 5,-2.203125 5.03125,-2.25 5.078125,-2.40625 l 0.5625,-2.328125 c 0,-0.0625 -0.046875,-0.109375 -0.125,-0.109375 -0.078125,0 -0.109375,0.0625 -0.125,0.171875 -0.21875,0.765625 -0.390625,1 -1.3125,1 h -0.9375 l 0.59375,-2.40625 C 3.828125,-6.4375 3.84375,-6.46875 4.28125,-6.46875 H 5.6875 c 1.203125,0 1.515625,0.28125 1.515625,1.109375 0,0.234375 0,0.25 -0.046875,0.53125 0,0.046875 -0.015625,0.125 -0.015625,0.171875 0,0.046875 0.03125,0.125 0.125,0.125 0.109375,0 0.125,-0.0625 0.140625,-0.25 L 7.609375,-6.515625 C 7.640625,-6.78125 7.59375,-6.78125 7.34375,-6.78125 H 2.296875 c -0.1875,0 -0.296875,0 -0.296875,0.203125 0,0.109375 0.09375,0.109375 0.28125,0.109375 0.375,0 0.65625,0 0.65625,0.171875 0,0.046875 0,0.0625 -0.0625,0.25 L 1.5625,-0.78125 c -0.09375,0.390625 -0.109375,0.46875 -0.90625,0.46875 -0.171875,0 -0.28125,0 -0.28125,0.1875 C 0.375,0 0.46875,0 0.65625,0 h 5.171875 c 0.234375,0 0.25,-0.015625 0.3125,-0.171875 z m 0,0"
               transform="translate(148.712,134.765)"
               id="path3018" />
          </g>
          <g
             style="fill:#000000;fill-opacity:1;stroke:#000000;stroke-opacity:1"
             id="g3024">
            <path
               inkscape:connector-curvature="0"
               style="fill-opacity:1;stroke:#000000;stroke-width:0;stroke-opacity:1"
               d="m 1.078125,-3.890625 c 0.359375,0.09375 0.5625,0.09375 0.671875,0.09375 0.921875,0 1.46875,-0.625 1.46875,-0.734375 0,-0.078125 -0.046875,-0.09375 -0.078125,-0.09375 -0.015625,0 -0.03125,0 -0.0625,0.015625 -0.171875,0.0625 -0.53125,0.203125 -1.046875,0.203125 -0.203125,0 -0.5625,-0.015625 -1.015625,-0.1875 C 0.9375,-4.625 0.921875,-4.625 0.921875,-4.625 c -0.09375,0 -0.09375,0.078125 -0.09375,0.1875 v 2.046875 c 0,0.125 0,0.203125 0.109375,0.203125 0.0625,0 0.078125,0 0.140625,-0.09375 0.296875,-0.375 0.734375,-0.4375 0.96875,-0.4375 0.421875,0 0.609375,0.328125 0.640625,0.390625 0.125,0.234375 0.171875,0.5 0.171875,0.90625 0,0.203125 0,0.609375 -0.21875,0.921875 -0.171875,0.25 -0.46875,0.421875 -0.8125,0.421875 -0.453125,0 -0.921875,-0.25 -1.09375,-0.71875 0.265625,0.015625 0.40625,-0.15625 0.40625,-0.34375 0,-0.296875 -0.265625,-0.34375 -0.359375,-0.34375 0,0 -0.34375,0 -0.34375,0.375 0,0.625 0.578125,1.25 1.40625,1.25 0.890625,0 1.671875,-0.65625 1.671875,-1.546875 0,-0.78125 -0.59375,-1.5 -1.453125,-1.5 -0.3125,0 -0.671875,0.0625 -0.984375,0.328125 z m 0,0"
               transform="translate(156.067,136.259)"
               id="path3022" />
          </g>
        </g>
      </g>
      <path
         inkscape:connector-curvature="0"
         id="path3328"
         style="fill:none;stroke:#000000;stroke-width:0.56692916;stroke-linecap:butt;stroke-linejoin:round;stroke-miterlimit:10;stroke-dasharray:none;stroke-opacity:1"
         d="m 35.300086,163.89219 h 0.141671 0.167104 0.161638 0.147136 0.151479 0.157295 0.17035 0.138425 0.172067 0.136707 0.148942 0.159833 0.148414 0.16036 0.172221 0.136553 0.165581 0.143194 0.162502 0.146272 0.152955 0.155819 0.154429 0.154347 0.160523 0.148251 0.166761 0.142013" />
      <path
         d="m 35.300086,167.63354 h 0.141671 0.167104 0.161638 0.147136 0.151479 0.157295 0.17035 0.138425 0.172067 0.136707 0.148942 0.159833 0.148414 0.16036 0.172221 0.136553 0.165581 0.143194 0.162502 0.146272 0.152955 0.155819 0.154429 0.154347 0.160523 0.148251 0.166761 0.142013"
         style="fill:none;stroke:#000000;stroke-width:0.56692916;stroke-linecap:butt;stroke-linejoin:round;stroke-miterlimit:10;stroke-dasharray:none;stroke-opacity:1"
         id="path3330"
         inkscape:connector-curvature="0" />
      <path
         inkscape:connector-curvature="0"
         id="path3332"
         style="fill:none;stroke:#000000;stroke-width:0.56692916;stroke-linecap:butt;stroke-linejoin:round;stroke-miterlimit:10;stroke-dasharray:none;stroke-opacity:1"
         d="m 35.300086,171.3749 h 0.141671 0.167104 0.161638 0.147136 0.151479 0.157295 0.17035 0.138425 0.172067 0.136707 0.148942 0.159833 0.148414 0.16036 0.172221 0.136553 0.165581 0.143194 0.162502 0.146272 0.152955 0.155819 0.154429 0.154347 0.160523 0.148251 0.166761 0.142013" />
      <path
         d="m 35.300086,175.11625 h 0.141671 0.167104 0.161638 0.147136 0.151479 0.157295 0.17035 0.138425 0.172067 0.136707 0.148942 0.159833 0.148414 0.16036 0.172221 0.136553 0.165581 0.143194 0.162502 0.146272 0.152955 0.155819 0.154429 0.154347 0.160523 0.148251 0.166761 0.142013"
         style="fill:none;stroke:#000000;stroke-width:0.56692916;stroke-linecap:butt;stroke-linejoin:round;stroke-miterlimit:10;stroke-dasharray:none;stroke-opacity:1"
         id="path3334"
         inkscape:connector-curvature="0" />
      <path
         inkscape:connector-curvature="0"
         id="path3336"
         style="fill:none;stroke:#000000;stroke-width:0.56692916;stroke-linecap:butt;stroke-linejoin:round;stroke-miterlimit:10;stroke-dasharray:none;stroke-opacity:1"
         d="m 35.300086,178.8576 h 0.141671 0.167104 0.161638 0.147136 0.151479 0.157295 0.17035 0.138425 0.172067 0.136707 0.148942 0.159833 0.148414 0.16036 0.172221 0.136553 0.165581 0.143194 0.162502 0.146272 0.152955 0.155819 0.154429 0.154347 0.160523 0.148251 0.166761 0.142013" />
      <path
         d="m 35.300086,182.59895 h 0.141671 0.167104 0.161638 0.147136 0.151479 0.157295 0.17035 0.138425 0.172067 0.136707 0.148942 0.159833 0.148414 0.16036 0.172221 0.136553 0.165581 0.143194 0.162502 0.146272 0.152955 0.155819 0.154429 0.154347 0.160523 0.148251 0.166761 0.142013"
         style="fill:none;stroke:#000000;stroke-width:0.56692916;stroke-linecap:butt;stroke-linejoin:round;stroke-miterlimit:10;stroke-dasharray:none;stroke-opacity:1"
         id="path3338"
         inkscape:connector-curvature="0" />
      <path
         inkscape:connector-curvature="0"
         id="path3340"
         style="fill:none;stroke:#000000;stroke-width:0.56692916;stroke-linecap:butt;stroke-linejoin:round;stroke-miterlimit:10;stroke-dasharray:none;stroke-opacity:1"
         d="m 35.300086,186.34031 h 0.141671 0.167104 0.161638 0.147136 0.151479 0.157295 0.17035 0.138425 0.172067 0.136707 0.148942 0.159833 0.148414 0.16036 0.172221 0.136553 0.165581 0.143194 0.162502 0.146272 0.152955 0.155819 0.154429 0.154347 0.160523 0.148251 0.166761 0.142013" />
      <path
         d="m 35.300086,190.08166 h 0.141671 0.167104 0.161638 0.147136 0.151479 0.157295 0.17035 0.138425 0.172067 0.136707 0.148942 0.159833 0.148414 0.16036 0.172221 0.136553 0.165581 0.143194 0.162502 0.146272 0.152955 0.155819 0.154429 0.154347 0.160523 0.148251 0.166761 0.142013"
         style="fill:none;stroke:#000000;stroke-width:0.56692916;stroke-linecap:butt;stroke-linejoin:round;stroke-miterlimit:10;stroke-dasharray:none;stroke-opacity:1"
         id="path3342"
         inkscape:connector-curvature="0" />
      <path
         inkscape:connector-curvature="0"
         id="path3344"
         style="fill:none;stroke:#000000;stroke-width:0.56692916;stroke-linecap:butt;stroke-linejoin:round;stroke-miterlimit:10;stroke-dasharray:none;stroke-opacity:1"
         d="m 35.300086,193.82301 h 0.141671 0.167104 0.161638 0.147136 0.151479 0.157295 0.17035 0.138425 0.172067 0.136707 0.148942 0.159833 0.148414 0.16036 0.172221 0.136553 0.165581 0.143194 0.162502 0.146272 0.152955 0.155819 0.154429 0.154347 0.160523 0.148251 0.166761 0.142013" />
      <path
         d="m 35.300086,197.56436 h 0.141671 0.167104 0.161638 0.147136 0.151479 0.157295 0.17035 0.138425 0.172067 0.136707 0.148942 0.159833 0.148414 0.16036 0.172221 0.136553 0.165581 0.143194 0.162502 0.146272 0.152955 0.155819 0.154429 0.154347 0.160523 0.148251 0.166761 0.142013"
         style="fill:none;stroke:#000000;stroke-width:0.56692916;stroke-linecap:butt;stroke-linejoin:round;stroke-miterlimit:10;stroke-dasharray:none;stroke-opacity:1"
         id="path3346"
         inkscape:connector-curvature="0" />
      <path
         inkscape:connector-curvature="0"
         id="path3348"
         style="fill:none;stroke:#000000;stroke-width:0.56692916;stroke-linecap:butt;stroke-linejoin:round;stroke-miterlimit:10;stroke-dasharray:none;stroke-opacity:1"
         d="m 35.300086,201.30572 h 0.141671 0.167104 0.161638 0.147136 0.151479 0.157295 0.17035 0.138425 0.172067 0.136707 0.148942 0.159833 0.148414 0.16036 0.172221 0.136553 0.165581 0.143194 0.162502 0.146272 0.152955 0.155819 0.154429 0.154347 0.160523 0.148251 0.166761 0.142013" />
      <path
         d="m 35.300086,205.04707 h 0.141671 0.167104 0.161638 0.147136 0.151479 0.157295 0.17035 0.138425 0.172067 0.136707 0.148942 0.159833 0.148414 0.16036 0.172221 0.136553 0.165581 0.143194 0.162502 0.146272 0.152955 0.155819 0.154429 0.154347 0.160523 0.148251 0.166761 0.142013"
         style="fill:none;stroke:#000000;stroke-width:0.56692916;stroke-linecap:butt;stroke-linejoin:round;stroke-miterlimit:10;stroke-dasharray:none;stroke-opacity:1"
         id="path3350"
         inkscape:connector-curvature="0" />
      <path
         inkscape:connector-curvature="0"
         id="path3352"
         style="fill:none;stroke:#000000;stroke-width:0.56692916;stroke-linecap:butt;stroke-linejoin:round;stroke-miterlimit:10;stroke-dasharray:none;stroke-opacity:1"
         d="m 35.300086,208.78842 h 0.141671 0.167104 0.161638 0.147136 0.151479 0.157295 0.17035 0.138425 0.172067 0.136707 0.148942 0.159833 0.148414 0.16036 0.172221 0.136553 0.165581 0.143194 0.162502 0.146272 0.152955 0.155819 0.154429 0.154347 0.160523 0.148251 0.166761 0.142013" />
      <path
         d="m 35.300086,212.52977 h 0.141671 0.167104 0.161638 0.147136 0.151479 0.157295 0.17035 0.138425 0.172067 0.136707 0.148942 0.159833 0.148414 0.16036 0.172221 0.136553 0.165581 0.143194 0.162502 0.146272 0.152955 0.155819 0.154429 0.154347 0.160523 0.148251 0.166761 0.142013"
         style="fill:none;stroke:#000000;stroke-width:0.56692916;stroke-linecap:butt;stroke-linejoin:round;stroke-miterlimit:10;stroke-dasharray:none;stroke-opacity:1"
         id="path3354"
         inkscape:connector-curvature="0" />
      <path
         inkscape:connector-curvature="0"
         id="path3356"
         style="fill:none;stroke:#000000;stroke-width:0.56692916;stroke-linecap:butt;stroke-linejoin:round;stroke-miterlimit:10;stroke-dasharray:none;stroke-opacity:1"
         d="m 35.300086,216.27112 h 0.141671 0.167104 0.161638 0.147136 0.151479 0.157295 0.17035 0.138425 0.172067 0.136707 0.148942 0.159833 0.148414 0.16036 0.172221 0.136553 0.165581 0.143194 0.162502 0.146272 0.152955 0.155819 0.154429 0.154347 0.160523 0.148251 0.166761 0.142013" />
      <path
         d="m 35.300086,220.01247 h 0.141671 0.167104 0.161638 0.147136 0.151479 0.157295 0.17035 0.138425 0.172067 0.136707 0.148942 0.159833 0.148414 0.16036 0.172221 0.136553 0.165581 0.143194 0.162502 0.146272 0.152955 0.155819 0.154429 0.154347 0.160523 0.148251 0.166761 0.142013"
         style="fill:none;stroke:#000000;stroke-width:0.56692916;stroke-linecap:butt;stroke-linejoin:round;stroke-miterlimit:10;stroke-dasharray:none;stroke-opacity:1"
         id="path3358"
         inkscape:connector-curvature="0" />
      <path
         inkscape:connector-curvature="0"
         id="path3360"
         style="fill:none;stroke:#000000;stroke-width:0.56692916;stroke-linecap:butt;stroke-linejoin:round;stroke-miterlimit:10;stroke-dasharray:none;stroke-opacity:1"
         d="m 35.300086,223.75383 h 0.141671 0.167104 0.161638 0.147136 0.151479 0.157295 0.17035 0.138425 0.172067 0.136707 0.148942 0.159833 0.148414 0.16036 0.172221 0.136553 0.165581 0.143194 0.162502 0.146272 0.152955 0.155819 0.154429 0.154347 0.160523 0.148251 0.166761 0.142013" />
      <path
         d="m 35.300086,227.49518 h 0.141671 0.167104 0.161638 0.147136 0.151479 0.157295 0.17035 0.138425 0.172067 0.136707 0.148942 0.159833 0.148414 0.16036 0.172221 0.136553 0.165581 0.143194 0.162502 0.146272 0.152955 0.155819 0.154429 0.154347 0.160523 0.148251 0.166761 0.142013"
         style="fill:none;stroke:#000000;stroke-width:0.56692916;stroke-linecap:butt;stroke-linejoin:round;stroke-miterlimit:10;stroke-dasharray:none;stroke-opacity:1"
         id="path3362"
         inkscape:connector-curvature="0" />
      <path
         inkscape:connector-curvature="0"
         id="path3364"
         style="fill:none;stroke:#000000;stroke-width:0.56692916;stroke-linecap:butt;stroke-linejoin:round;stroke-miterlimit:10;stroke-dasharray:none;stroke-opacity:1"
         d="m 35.300086,231.23653 h 0.141671 0.167104 0.161638 0.147136 0.151479 0.157295 0.17035 0.138425 0.172067 0.136707 0.148942 0.159833 0.148414 0.16036 0.172221 0.136553 0.165581 0.143194 0.162502 0.146272 0.152955 0.155819 0.154429 0.154347 0.160523 0.148251 0.166761 0.142013" />
      <path
         d="m 35.300086,234.97789 h 0.141671 0.167104 0.161638 0.147136 0.151479 0.157295 0.17035 0.138425 0.172067 0.136707 0.148942 0.159833 0.148414 0.16036 0.172221 0.136553 0.165581 0.143194 0.162502 0.146272 0.152955 0.155819 0.154429 0.154347 0.160523 0.148251 0.166761 0.142013"
         style="fill:none;stroke:#000000;stroke-width:0.56692916;stroke-linecap:butt;stroke-linejoin:round;stroke-miterlimit:10;stroke-dasharray:none;stroke-opacity:1"
         id="path3366"
         inkscape:connector-curvature="0" />
      <path
         inkscape:connector-curvature="0"
         id="path3368"
         style="fill:none;stroke:#000000;stroke-width:0.56692916;stroke-linecap:butt;stroke-linejoin:round;stroke-miterlimit:10;stroke-dasharray:none;stroke-opacity:1"
         d="m 35.300086,238.71923 h 0.141671 0.167104 0.161638 0.147136 0.151479 0.157295 0.17035 0.138425 0.172067 0.136707 0.148942 0.159833 0.148414 0.16036 0.172221 0.136553 0.165581 0.143194 0.162502 0.146272 0.152955 0.155819 0.154429 0.154347 0.160523 0.148251 0.166761 0.142013" />
      <path
         d="m 35.300086,242.46059 h 0.141671 0.167104 0.161638 0.147136 0.151479 0.157295 0.17035 0.138425 0.172067 0.136707 0.148942 0.159833 0.148414 0.16036 0.172221 0.136553 0.165581 0.143194 0.162502 0.146272 0.152955 0.155819 0.154429 0.154347 0.160523 0.148251 0.166761 0.142013"
         style="fill:none;stroke:#000000;stroke-width:0.56692916;stroke-linecap:butt;stroke-linejoin:round;stroke-miterlimit:10;stroke-dasharray:none;stroke-opacity:1"
         id="path3370"
         inkscape:connector-curvature="0" />
      <path
         inkscape:connector-curvature="0"
         id="path3372"
         style="fill:none;stroke:#000000;stroke-width:0.56692916;stroke-linecap:butt;stroke-linejoin:round;stroke-miterlimit:10;stroke-dasharray:none;stroke-opacity:1"
         d="m 35.300086,246.20194 h 0.141671 0.167104 0.161638 0.147136 0.151479 0.157295 0.17035 0.138425 0.172067 0.136707 0.148942 0.159833 0.148414 0.16036 0.172221 0.136553 0.165581 0.143194 0.162502 0.146272 0.152955 0.155819 0.154429 0.154347 0.160523 0.148251 0.166761 0.142013" />
      <path
         d="m 35.300086,249.94329 h 0.141671 0.167104 0.161638 0.147136 0.151479 0.157295 0.17035 0.138425 0.172067 0.136707 0.148942 0.159833 0.148414 0.16036 0.172221 0.136553 0.165581 0.143194 0.162502 0.146272 0.152955 0.155819 0.154429 0.154347 0.160523 0.148251 0.166761 0.142013"
         style="fill:none;stroke:#000000;stroke-width:0.56692916;stroke-linecap:butt;stroke-linejoin:round;stroke-miterlimit:10;stroke-dasharray:none;stroke-opacity:1"
         id="path3374"
         inkscape:connector-curvature="0" />
      <path
         inkscape:connector-curvature="0"
         id="path3376"
         style="fill:none;stroke:#000000;stroke-width:0.56692916;stroke-linecap:butt;stroke-linejoin:round;stroke-miterlimit:10;stroke-dasharray:none;stroke-opacity:1"
         d="m 35.300086,253.68464 h 0.141671 0.167104 0.161638 0.147136 0.151479 0.157295 0.17035 0.138425 0.172067 0.136707 0.148942 0.159833 0.148414 0.16036 0.172221 0.136553 0.165581 0.143194 0.162502 0.146272 0.152955 0.155819 0.154429 0.154347 0.160523 0.148251 0.166761 0.142013" />
      <path
         d="m 37.461506,253.68464 h 3.275544 3.863587 3.737227 3.401905 3.502332 3.6368 3.93864 3.200491 3.978355 3.160773 3.44366 3.69548 3.43147 3.70766 3.98189 3.15724 3.82837 3.31076 3.75719 3.38194 3.53646 3.60267 3.57051 3.56863 3.71145 3.42768 3.85566 3.28347"
         style="fill:#9278d1;stroke:#9278d1;stroke-width:0.70866144;stroke-linecap:butt;stroke-linejoin:round;stroke-miterlimit:10;stroke-dasharray:none;stroke-opacity:1"
         id="path1343"
         inkscape:connector-curvature="0" />
      <path
         d="m 37.461506,220.01247 h 3.275544 3.863587 3.737227 3.401905 3.502332 3.6368 3.93864 3.200491 3.978355 3.160773 3.44366 3.69548 3.43147 3.70766 3.98189 3.15724 3.82837 3.31076 3.75719 3.38194 3.53646 3.60267 3.57051 3.56863 3.71145 3.42768 3.85566 3.28347"
         style="fill:#9278d1;stroke:#9278d1;stroke-width:0.70866144;stroke-linecap:butt;stroke-linejoin:round;stroke-miterlimit:10;stroke-dasharray:none;stroke-opacity:1"
         id="path1339"
         inkscape:connector-curvature="0" />
      <path
         d="m 37.461506,193.82301 h 3.275544 3.863587 3.737227 3.401905 3.502332 3.6368 3.93864 3.200491 3.978355 3.160773 3.44366 3.69548 3.43147 3.70766 3.98189 3.15724 3.82837 3.31076 3.75719 3.38194 3.53646 3.60267 3.57051 3.56863 3.71145 3.42768 3.85566 3.28347"
         style="fill:#9278d1;stroke:#9278d1;stroke-width:0.70866144;stroke-linecap:butt;stroke-linejoin:round;stroke-miterlimit:10;stroke-dasharray:none;stroke-opacity:1"
         id="path1335"
         inkscape:connector-curvature="0" />
      <path
         d="m 37.461506,175.11625 h 3.275544 3.863587 3.737227 3.401905 3.502332 3.6368 3.93864 3.200491 3.978355 3.160773 3.44366 3.69548 3.43147 3.70766 3.98189 3.15724 3.82837 3.31076 3.75719 3.38194 3.53646 3.60267 3.57051 3.56863 3.71145 3.42768 3.85566 3.28347"
         style="fill:#9278d1;stroke:#9278d1;stroke-width:0.70866144;stroke-linecap:butt;stroke-linejoin:round;stroke-miterlimit:10;stroke-dasharray:none;stroke-opacity:1"
         id="path1331"
         inkscape:connector-curvature="0" />
      <path
         d="m 37.461506,163.89219 h 3.275544 3.863587 3.737227 3.401905 3.502332 3.6368 3.93864 3.200491 3.978355 3.160773 3.44366 3.69548 3.43147 3.70766 3.98189 3.15724 3.82837 3.31076 3.75719 3.38194 3.53646 3.60267 3.57051 3.56863 3.71145 3.42768 3.85566 3.28347"
         style="fill:#9278d1;stroke:#9278d1;stroke-width:0.70866144;stroke-linecap:butt;stroke-linejoin:round;stroke-miterlimit:10;stroke-dasharray:none;stroke-opacity:1"
         id="path1327"
         inkscape:connector-curvature="0" />
      <g
         transform="matrix(1.13386 0 0 -1.13386 172.683 216.819)"
         ns0:version="1.10.2"
         ns0:texconverter="pdflatex"
         ns0:pdfconverter="inkscape"
         ns0:text="$E_n= \\frac{\\hbar^2\\pi^2n^2}{2mL^2}$"
         ns0:preamble="C:\Users\phyps\AppData\Roaming\inkscape\extensions\textext\default_packages.tex"
         ns0:scale="8.03521629938"
         ns0:alignment="middle center"
         ns0:stroke-to-path="0"
         ns0:inkscapeversion="0.92.3"
         ns0:jacobian_sqrt="1.13386"
         style="fill-opacity:1;stroke:#000000;stroke-opacity:1;stroke-width:0"
         id="g3212">
        <defs
           id="id-5fb8800f-066d-4717-b93d-8b976b2cbd25"
           style="fill-opacity:1;stroke:#000000;stroke-opacity:1;stroke-width:0">
          <g
             id="id-10a7b4f4-4590-4731-825e-0ce0464f8a31"
             style="fill-opacity:1;stroke:#000000;stroke-opacity:1;stroke-width:0">
            <g
               id="id-2dd67fd6-073f-4b4d-b47f-a8362cef6bf4"
               style="fill-opacity:1;stroke:#000000;stroke-opacity:1;stroke-width:0">
              <path
                 d="M 7.0625,-2.328125 C 7.078125,-2.375 7.109375,-2.4375 7.109375,-2.46875 c 0,0 0,-0.109375 -0.125,-0.109375 -0.09375,0 -0.109375,0.0625 -0.125,0.125 C 6.203125,-0.984375 5.84375,-0.3125 4.140625,-0.3125 H 2.6875 c -0.140625,0 -0.171875,0 -0.21875,0 -0.109375,-0.015625 -0.140625,-0.03125 -0.140625,-0.109375 0,-0.03125 0,-0.046875 0.046875,-0.21875 L 3.0625,-3.375 h 0.984375 c 0.84375,0 0.84375,0.21875 0.84375,0.46875 0,0.0625 0,0.1875 -0.0625,0.484375 C 4.8125,-2.375 4.796875,-2.34375 4.796875,-2.3125 c 0,0.046875 0.03125,0.109375 0.125,0.109375 C 5,-2.203125 5.03125,-2.25 5.078125,-2.40625 l 0.5625,-2.328125 c 0,-0.0625 -0.046875,-0.109375 -0.125,-0.109375 -0.078125,0 -0.109375,0.0625 -0.125,0.171875 -0.21875,0.765625 -0.390625,1 -1.3125,1 h -0.9375 l 0.59375,-2.40625 C 3.828125,-6.4375 3.84375,-6.46875 4.28125,-6.46875 H 5.6875 c 1.203125,0 1.515625,0.28125 1.515625,1.109375 0,0.234375 0,0.25 -0.046875,0.53125 0,0.046875 -0.015625,0.125 -0.015625,0.171875 0,0.046875 0.03125,0.125 0.125,0.125 0.109375,0 0.125,-0.0625 0.140625,-0.25 L 7.609375,-6.515625 C 7.640625,-6.78125 7.59375,-6.78125 7.34375,-6.78125 H 2.296875 c -0.1875,0 -0.296875,0 -0.296875,0.203125 0,0.109375 0.09375,0.109375 0.28125,0.109375 0.375,0 0.65625,0 0.65625,0.171875 0,0.046875 0,0.0625 -0.0625,0.25 L 1.5625,-0.78125 c -0.09375,0.390625 -0.109375,0.46875 -0.90625,0.46875 -0.171875,0 -0.28125,0 -0.28125,0.1875 C 0.375,0 0.46875,0 0.65625,0 h 5.171875 c 0.234375,0 0.25,-0.015625 0.3125,-0.171875 z m 0,0"
                 id="id-adf0ccc8-d7bb-4bdb-a4b5-b936e3f0400c"
                 style="fill-opacity:1;stroke:#000000;stroke-opacity:1;stroke-width:0" />
            </g>
            <g
               id="id-123bdbac-b802-473b-913b-b08034446bb9"
               style="fill-opacity:1;stroke:#000000;stroke-opacity:1;stroke-width:0">
              <path
                 d="m 0.84375,-0.4375 c -0.015625,0.09375 -0.0625,0.265625 -0.0625,0.28125 0,0.15625 0.125,0.21875 0.234375,0.21875 0.125,0 0.234375,-0.078125 0.28125,-0.140625 0.03125,-0.0625 0.078125,-0.296875 0.125,-0.4375 0.03125,-0.125 0.109375,-0.453125 0.140625,-0.625 0.046875,-0.15625 0.09375,-0.3125 0.125,-0.46875 0.078125,-0.28125 0.09375,-0.34375 0.296875,-0.625 C 2.171875,-2.515625 2.5,-2.875 3.03125,-2.875 c 0.390625,0 0.40625,0.359375 0.40625,0.484375 0,0.421875 -0.296875,1.1875 -0.40625,1.484375 -0.078125,0.203125 -0.109375,0.265625 -0.109375,0.375 0,0.375 0.296875,0.59375 0.65625,0.59375 0.703125,0 1,-0.953125 1,-1.0625 0,-0.09375 -0.078125,-0.09375 -0.109375,-0.09375 -0.09375,0 -0.09375,0.046875 -0.125,0.125 C 4.1875,-0.40625 3.875,-0.125 3.609375,-0.125 c -0.15625,0 -0.1875,-0.09375 -0.1875,-0.25 0,-0.15625 0.046875,-0.25 0.171875,-0.5625 0.078125,-0.21875 0.359375,-0.953125 0.359375,-1.34375 0,-0.671875 -0.53125,-0.796875 -0.90625,-0.796875 -0.578125,0 -0.96875,0.359375 -1.171875,0.640625 -0.046875,-0.484375 -0.453125,-0.640625 -0.75,-0.640625 -0.296875,0 -0.453125,0.21875 -0.546875,0.375 -0.15625,0.265625 -0.25,0.65625 -0.25,0.703125 0,0.078125 0.09375,0.078125 0.125,0.078125 0.09375,0 0.09375,-0.015625 0.140625,-0.203125 0.109375,-0.40625 0.25,-0.75 0.515625,-0.75 0.1875,0 0.234375,0.15625 0.234375,0.34375 0,0.125 -0.0625,0.390625 -0.125,0.578125 -0.046875,0.1875 -0.109375,0.46875 -0.140625,0.625 z m 0,0"
                 id="id-cc4c0eff-c77c-4507-b060-5162089ba288"
                 style="fill-opacity:1;stroke:#000000;stroke-opacity:1;stroke-width:0" />
            </g>
            <g
               id="id-cb327b34-87cb-4ff7-b9b8-d57bcc3eff48"
               style="fill-opacity:1;stroke:#000000;stroke-opacity:1;stroke-width:0">
              <path
                 d="M 2.171875,-2.53125 H 3 c -0.109375,0.421875 -0.265625,1.046875 -0.265625,1.609375 0,0.28125 0.046875,0.46875 0.078125,0.609375 0.109375,0.359375 0.203125,0.375 0.3125,0.375 0.171875,0 0.328125,-0.140625 0.328125,-0.3125 0,-0.046875 -0.015625,-0.078125 -0.046875,-0.140625 C 3.265625,-0.65625 3.140625,-1.046875 3.140625,-1.625 c 0,-0.125 0,-0.40625 0.09375,-0.90625 h 0.875 c 0.125,0 0.1875,0 0.265625,-0.046875 0.09375,-0.078125 0.109375,-0.1875 0.109375,-0.21875 C 4.484375,-3 4.3125,-3 4.1875,-3 h -2.625 c -0.28125,0 -0.484375,0.0625 -0.796875,0.359375 -0.1875,0.15625 -0.453125,0.53125 -0.453125,0.59375 0,0.078125 0.09375,0.078125 0.125,0.078125 0.078125,0 0.078125,-0.015625 0.125,-0.078125 C 0.90625,-2.53125 1.34375,-2.53125 1.5,-2.53125 h 0.421875 c -0.21875,0.765625 -0.59375,1.59375 -0.796875,2.015625 -0.046875,0.078125 -0.109375,0.234375 -0.140625,0.25 0,0.03125 -0.015625,0.0625 -0.015625,0.109375 0,0.109375 0.078125,0.21875 0.25,0.21875 0.265625,0 0.34375,-0.3125 0.515625,-0.9375 z m 0,0"
                 id="id-05658548-ddc8-425b-a5ee-80988ed1fb19"
                 style="fill-opacity:1;stroke:#000000;stroke-opacity:1;stroke-width:0" />
            </g>
            <g
               id="id-f1af82b8-e434-4d55-b53b-c961e1dac4fd"
               style="fill-opacity:1;stroke:#000000;stroke-opacity:1;stroke-width:0">
              <path
                 d="m 3.03125,-0.5625 c -0.046875,0.140625 -0.109375,0.375 -0.109375,0.40625 0,0.15625 0.125,0.21875 0.234375,0.21875 0.140625,0 0.25,-0.078125 0.28125,-0.140625 0.03125,-0.0625 0.09375,-0.296875 0.125,-0.4375 0.03125,-0.125 0.109375,-0.453125 0.15625,-0.625 0.03125,-0.15625 0.078125,-0.3125 0.109375,-0.46875 0.078125,-0.296875 0.078125,-0.3125 0.21875,-0.53125 C 4.265625,-2.484375 4.625,-2.875 5.15625,-2.875 c 0.390625,0 0.421875,0.3125 0.421875,0.484375 0,0.421875 -0.296875,1.1875 -0.421875,1.484375 -0.0625,0.203125 -0.09375,0.265625 -0.09375,0.375 0,0.375 0.296875,0.59375 0.65625,0.59375 0.703125,0 1,-0.953125 1,-1.0625 0,-0.09375 -0.078125,-0.09375 -0.109375,-0.09375 -0.09375,0 -0.09375,0.046875 -0.125,0.125 C 6.328125,-0.40625 6.015625,-0.125 5.75,-0.125 c -0.15625,0 -0.1875,-0.09375 -0.1875,-0.25 0,-0.15625 0.046875,-0.25 0.171875,-0.5625 0.078125,-0.21875 0.359375,-0.953125 0.359375,-1.34375 0,-0.109375 0,-0.40625 -0.25,-0.609375 -0.125,-0.078125 -0.328125,-0.1875 -0.65625,-0.1875 -0.625,0 -1,0.421875 -1.234375,0.703125 C 3.90625,-2.96875 3.40625,-3.078125 3.046875,-3.078125 2.46875,-3.078125 2.078125,-2.71875 1.875,-2.4375 1.828125,-2.921875 1.421875,-3.078125 1.125,-3.078125 c -0.296875,0 -0.453125,0.21875 -0.546875,0.375 -0.15625,0.265625 -0.25,0.65625 -0.25,0.703125 0,0.078125 0.09375,0.078125 0.125,0.078125 0.09375,0 0.09375,-0.015625 0.140625,-0.203125 0.109375,-0.40625 0.25,-0.75 0.515625,-0.75 0.1875,0 0.234375,0.15625 0.234375,0.34375 0,0.125 -0.0625,0.390625 -0.125,0.578125 -0.046875,0.1875 -0.109375,0.46875 -0.140625,0.625 L 0.84375,-0.4375 c -0.015625,0.09375 -0.0625,0.265625 -0.0625,0.28125 0,0.15625 0.125,0.21875 0.234375,0.21875 0.125,0 0.234375,-0.078125 0.28125,-0.140625 0.03125,-0.0625 0.078125,-0.296875 0.125,-0.4375 0.03125,-0.125 0.109375,-0.453125 0.140625,-0.625 0.046875,-0.15625 0.09375,-0.3125 0.125,-0.46875 0.078125,-0.28125 0.09375,-0.34375 0.296875,-0.625 C 2.171875,-2.515625 2.5,-2.875 3.03125,-2.875 c 0.390625,0 0.40625,0.359375 0.40625,0.484375 0,0.171875 -0.015625,0.265625 -0.125,0.65625 z m 0,0"
                 id="id-031f868b-0028-445d-af5f-70e9d474501d"
                 style="fill-opacity:1;stroke:#000000;stroke-opacity:1;stroke-width:0" />
            </g>
            <g
               id="id-87166935-4e86-4d6d-8778-3b535b3edf34"
               style="fill-opacity:1;stroke:#000000;stroke-opacity:1;stroke-width:0">
              <path
                 d="m 2.875,-4.1875 c 0.0625,-0.25 0.078125,-0.328125 0.71875,-0.328125 0.21875,0 0.28125,0 0.28125,-0.140625 0,-0.015625 0,-0.109375 -0.109375,-0.109375 -0.15625,0 -0.34375,0.015625 -0.515625,0.03125 -0.171875,0 -0.390625,0 -0.5625,0 -0.140625,0 -0.328125,0 -0.484375,0 -0.140625,0 -0.3125,-0.03125 -0.453125,-0.03125 -0.03125,0 -0.140625,0 -0.140625,0.15625 0,0.09375 0.078125,0.09375 0.21875,0.09375 0.015625,0 0.140625,0 0.265625,0.015625 0.15625,0.015625 0.171875,0.03125 0.171875,0.109375 0,0 0,0.046875 -0.03125,0.140625 l -0.9375,3.703125 C 1.234375,-0.3125 1.21875,-0.25 0.6875,-0.25 c -0.109375,0 -0.203125,0 -0.203125,0.140625 C 0.484375,0 0.5625,0 0.6875,0 h 3.5 c 0.1875,0 0.1875,0 0.25,-0.140625 0.0625,-0.1875 0.59375,-1.53125 0.59375,-1.59375 0,-0.015625 -0.015625,-0.09375 -0.125,-0.09375 -0.078125,0 -0.09375,0.03125 -0.140625,0.140625 C 4.5,-1.03125 4.1875,-0.25 2.921875,-0.25 H 2.125 c -0.203125,0 -0.21875,-0.015625 -0.21875,-0.078125 0,0 0,-0.03125 0.03125,-0.140625 z m 0,0"
                 id="id-4db37d48-e5ca-4d77-a49a-5d489bd0f376"
                 style="fill-opacity:1;stroke:#000000;stroke-opacity:1;stroke-width:0" />
            </g>
            <g
               id="id-ab118b87-6255-4533-b4cb-119cdf00ca44"
               style="fill-opacity:1;stroke:#000000;stroke-opacity:1;stroke-width:0">
              <path
                 d="m 6.84375,-3.265625 c 0.15625,0 0.34375,0 0.34375,-0.1875 C 7.1875,-3.65625 7,-3.65625 6.859375,-3.65625 h -5.96875 c -0.140625,0 -0.328125,0 -0.328125,0.203125 0,0.1875 0.1875,0.1875 0.328125,0.1875 z m 0.015625,1.9375 c 0.140625,0 0.328125,0 0.328125,-0.203125 0,-0.1875 -0.1875,-0.1875 -0.34375,-0.1875 H 0.890625 c -0.140625,0 -0.328125,0 -0.328125,0.1875 0,0.203125 0.1875,0.203125 0.328125,0.203125 z m 0,0"
                 id="id-4798594a-75aa-4392-adf2-d724acec50bf"
                 style="fill-opacity:1;stroke:#000000;stroke-opacity:1;stroke-width:0" />
            </g>
            <g
               id="id-c715c7bf-04e7-440b-b844-af6129fc81a0"
               style="fill-opacity:1;stroke:#000000;stroke-opacity:1;stroke-width:0">
              <path
                 d="m 1.984375,-3.796875 h 1.46875 c 0.109375,0 0.234375,0 0.234375,-0.125 0,-0.109375 -0.109375,-0.109375 -0.234375,-0.109375 H 2.03125 c 0.046875,-0.171875 0.046875,-0.1875 0.09375,-0.359375 0.03125,-0.125 0.078125,-0.328125 0.078125,-0.34375 0,-0.03125 -0.015625,-0.109375 -0.109375,-0.109375 l -0.890625,0.078125 c -0.046875,0 -0.140625,0.015625 -0.140625,0.15625 0,0.09375 0.09375,0.09375 0.171875,0.09375 0.34375,0 0.34375,0.0625 0.34375,0.125 0,0 0,0.046875 -0.078125,0.359375 H 1.09375 c -0.125,0 -0.234375,0 -0.234375,0.109375 0,0.125 0.125,0.125 0.234375,0.125 H 1.4375 l -0.890625,3.53125 c 0,0.03125 -0.015625,0.078125 -0.015625,0.109375 0,0.109375 0.078125,0.21875 0.234375,0.21875 0.25,0 0.296875,-0.203125 0.328125,-0.3125 C 1.125,-0.375 1.203125,-0.703125 1.25,-0.859375 c 0.015625,-0.109375 0.09375,-0.375 0.109375,-0.484375 0.015625,-0.0625 0.109375,-0.421875 0.125,-0.46875 0,-0.0625 0.4375,-1.0625 1.28125,-1.0625 0.40625,0 0.40625,0.359375 0.40625,0.484375 0,0.40625 -0.296875,1.171875 -0.4375,1.546875 C 2.6875,-0.734375 2.65625,-0.640625 2.65625,-0.515625 2.65625,-0.1875 2.9375,0.0625 3.3125,0.0625 4,0.0625 4.328125,-0.875 4.328125,-1 c 0,-0.09375 -0.09375,-0.09375 -0.125,-0.09375 -0.09375,0 -0.09375,0.046875 -0.125,0.125 -0.1875,0.625 -0.515625,0.84375 -0.734375,0.84375 -0.15625,0 -0.1875,-0.109375 -0.1875,-0.25 0,-0.109375 0.015625,-0.203125 0.109375,-0.40625 0.125,-0.34375 0.421875,-1.109375 0.421875,-1.5 0,-0.578125 -0.421875,-0.796875 -0.90625,-0.796875 -0.453125,0 -0.8125,0.21875 -1.125,0.578125 z m 0,0"
                 id="id-8c1f61aa-c2bf-4045-a3d4-be8601890e93"
                 style="fill-opacity:1;stroke:#000000;stroke-opacity:1;stroke-width:0" />
            </g>
            <g
               id="id-1c31ca25-90d3-4820-aff9-67fcda84fd3c"
               style="fill-opacity:1;stroke:#000000;stroke-opacity:1;stroke-width:0">
              <path
                 d="M 2.9375,-0.96875 H 2.71875 c 0,0.09375 -0.0625,0.40625 -0.140625,0.453125 -0.03125,0.03125 -0.453125,0.03125 -0.53125,0.03125 H 1.078125 C 1.40625,-0.71875 1.765625,-1 2.0625,-1.203125 c 0.453125,-0.3125 0.875,-0.59375 0.875,-1.125 0,-0.640625 -0.609375,-0.984375 -1.3125,-0.984375 -0.671875,0 -1.171875,0.375 -1.171875,0.875 0,0.25 0.21875,0.296875 0.296875,0.296875 0.125,0 0.28125,-0.09375 0.28125,-0.296875 0,-0.171875 -0.125,-0.28125 -0.28125,-0.28125 0.140625,-0.234375 0.4375,-0.375 0.765625,-0.375 0.484375,0 0.890625,0.28125 0.890625,0.765625 0,0.421875 -0.296875,0.75 -0.671875,1.0625 l -1.21875,1.03125 C 0.46875,-0.1875 0.453125,-0.1875 0.453125,-0.15625 V 0 h 2.3125 z m 0,0"
                 id="id-ca0f4c7b-497f-4ac4-81af-5e6294d53a5e"
                 style="fill-opacity:1;stroke:#000000;stroke-opacity:1;stroke-width:0" />
            </g>
            <g
               id="id-57463af2-0556-417b-b909-c21286946c16"
               style="fill-opacity:1;stroke:#000000;stroke-opacity:1;stroke-width:0">
              <path
                 d="M 3.515625,-1.265625 H 3.28125 c -0.015625,0.15625 -0.09375,0.5625 -0.1875,0.625 C 3.046875,-0.59375 2.515625,-0.59375 2.40625,-0.59375 H 1.125 c 0.734375,-0.640625 0.984375,-0.84375 1.390625,-1.171875 0.515625,-0.40625 1,-0.84375 1,-1.5 0,-0.84375 -0.734375,-1.359375 -1.625,-1.359375 -0.859375,0 -1.453125,0.609375 -1.453125,1.25 0,0.34375 0.296875,0.390625 0.375,0.390625 0.15625,0 0.359375,-0.125 0.359375,-0.375 0,-0.125 -0.046875,-0.375 -0.40625,-0.375 C 0.984375,-4.21875 1.453125,-4.375 1.78125,-4.375 c 0.703125,0 1.0625,0.546875 1.0625,1.109375 0,0.609375 -0.4375,1.078125 -0.65625,1.328125 L 0.515625,-0.265625 C 0.4375,-0.203125 0.4375,-0.1875 0.4375,0 h 2.875 z m 0,0"
                 id="id-2a25c85e-cb9e-48a4-a729-cecba2f1f24d"
                 style="fill-opacity:1;stroke:#000000;stroke-opacity:1;stroke-width:0" />
            </g>
          </g>
        </defs>
        <g
           fill="#000000"
           fill-opacity="1"
           id="id-4c64bfdc-3ef6-4621-9c89-51d0ab691f4f"
           transform="translate(-149.087, -124.699)"
           style="fill-opacity:1;stroke:#000000;stroke-opacity:1;stroke-width:0">
          <g
             transform="translate(148.712, 134.941)"
             style="fill-opacity:1;stroke:#000000;stroke-opacity:1;stroke-width:0"
             id="g1">
            <path
               d="M 7.0625,-2.328125 C 7.078125,-2.375 7.109375,-2.4375 7.109375,-2.46875 c 0,0 0,-0.109375 -0.125,-0.109375 -0.09375,0 -0.109375,0.0625 -0.125,0.125 C 6.203125,-0.984375 5.84375,-0.3125 4.140625,-0.3125 H 2.6875 c -0.140625,0 -0.171875,0 -0.21875,0 -0.109375,-0.015625 -0.140625,-0.03125 -0.140625,-0.109375 0,-0.03125 0,-0.046875 0.046875,-0.21875 L 3.0625,-3.375 h 0.984375 c 0.84375,0 0.84375,0.21875 0.84375,0.46875 0,0.0625 0,0.1875 -0.0625,0.484375 C 4.8125,-2.375 4.796875,-2.34375 4.796875,-2.3125 c 0,0.046875 0.03125,0.109375 0.125,0.109375 C 5,-2.203125 5.03125,-2.25 5.078125,-2.40625 l 0.5625,-2.328125 c 0,-0.0625 -0.046875,-0.109375 -0.125,-0.109375 -0.078125,0 -0.109375,0.0625 -0.125,0.171875 -0.21875,0.765625 -0.390625,1 -1.3125,1 h -0.9375 l 0.59375,-2.40625 C 3.828125,-6.4375 3.84375,-6.46875 4.28125,-6.46875 H 5.6875 c 1.203125,0 1.515625,0.28125 1.515625,1.109375 0,0.234375 0,0.25 -0.046875,0.53125 0,0.046875 -0.015625,0.125 -0.015625,0.171875 0,0.046875 0.03125,0.125 0.125,0.125 0.109375,0 0.125,-0.0625 0.140625,-0.25 L 7.609375,-6.515625 C 7.640625,-6.78125 7.59375,-6.78125 7.34375,-6.78125 H 2.296875 c -0.1875,0 -0.296875,0 -0.296875,0.203125 0,0.109375 0.09375,0.109375 0.28125,0.109375 0.375,0 0.65625,0 0.65625,0.171875 0,0.046875 0,0.0625 -0.0625,0.25 L 1.5625,-0.78125 c -0.09375,0.390625 -0.109375,0.46875 -0.90625,0.46875 -0.171875,0 -0.28125,0 -0.28125,0.1875 C 0.375,0 0.46875,0 0.65625,0 h 5.171875 c 0.234375,0 0.25,-0.015625 0.3125,-0.171875 z m 0,0"
               id="id-95e74383-1976-44f7-89ef-d989be2186c7"
               style="fill-opacity:1;stroke:#000000;stroke-opacity:1;stroke-width:0" />
          </g>
        </g>
        <g
           fill="#000000"
           fill-opacity="1"
           id="id-7a276ab7-f921-41e3-9485-9c0df9f69ec5"
           transform="translate(-149.087, -124.699)"
           style="fill-opacity:1;stroke:#000000;stroke-opacity:1;stroke-width:0">
          <g
             transform="translate(156.067, 136.436)"
             style="fill-opacity:1;stroke:#000000;stroke-opacity:1;stroke-width:0"
             id="g2">
            <path
               d="m 0.84375,-0.4375 c -0.015625,0.09375 -0.0625,0.265625 -0.0625,0.28125 0,0.15625 0.125,0.21875 0.234375,0.21875 0.125,0 0.234375,-0.078125 0.28125,-0.140625 0.03125,-0.0625 0.078125,-0.296875 0.125,-0.4375 0.03125,-0.125 0.109375,-0.453125 0.140625,-0.625 0.046875,-0.15625 0.09375,-0.3125 0.125,-0.46875 0.078125,-0.28125 0.09375,-0.34375 0.296875,-0.625 C 2.171875,-2.515625 2.5,-2.875 3.03125,-2.875 c 0.390625,0 0.40625,0.359375 0.40625,0.484375 0,0.421875 -0.296875,1.1875 -0.40625,1.484375 -0.078125,0.203125 -0.109375,0.265625 -0.109375,0.375 0,0.375 0.296875,0.59375 0.65625,0.59375 0.703125,0 1,-0.953125 1,-1.0625 0,-0.09375 -0.078125,-0.09375 -0.109375,-0.09375 -0.09375,0 -0.09375,0.046875 -0.125,0.125 C 4.1875,-0.40625 3.875,-0.125 3.609375,-0.125 c -0.15625,0 -0.1875,-0.09375 -0.1875,-0.25 0,-0.15625 0.046875,-0.25 0.171875,-0.5625 0.078125,-0.21875 0.359375,-0.953125 0.359375,-1.34375 0,-0.671875 -0.53125,-0.796875 -0.90625,-0.796875 -0.578125,0 -0.96875,0.359375 -1.171875,0.640625 -0.046875,-0.484375 -0.453125,-0.640625 -0.75,-0.640625 -0.296875,0 -0.453125,0.21875 -0.546875,0.375 -0.15625,0.265625 -0.25,0.65625 -0.25,0.703125 0,0.078125 0.09375,0.078125 0.125,0.078125 0.09375,0 0.09375,-0.015625 0.140625,-0.203125 0.109375,-0.40625 0.25,-0.75 0.515625,-0.75 0.1875,0 0.234375,0.15625 0.234375,0.34375 0,0.125 -0.0625,0.390625 -0.125,0.578125 -0.046875,0.1875 -0.109375,0.46875 -0.140625,0.625 z m 0,0"
               id="id-8095442c-b1a2-4559-9a0d-a23b35a2f987"
               style="fill-opacity:1;stroke:#000000;stroke-opacity:1;stroke-width:0" />
          </g>
        </g>
        <g
           fill="#000000"
           fill-opacity="1"
           id="id-c6277d17-8d71-4ce2-88a6-d4365173426b"
           transform="translate(-149.087, -124.699)"
           style="fill-opacity:1;stroke:#000000;stroke-opacity:1;stroke-width:0">
          <g
             transform="translate(164.257, 134.941)"
             style="fill-opacity:1;stroke:#000000;stroke-opacity:1;stroke-width:0"
             id="g3">
            <path
               d="m 6.84375,-3.265625 c 0.15625,0 0.34375,0 0.34375,-0.1875 C 7.1875,-3.65625 7,-3.65625 6.859375,-3.65625 h -5.96875 c -0.140625,0 -0.328125,0 -0.328125,0.203125 0,0.1875 0.1875,0.1875 0.328125,0.1875 z m 0.015625,1.9375 c 0.140625,0 0.328125,0 0.328125,-0.203125 0,-0.1875 -0.1875,-0.1875 -0.34375,-0.1875 H 0.890625 c -0.140625,0 -0.328125,0 -0.328125,0.1875 0,0.203125 0.1875,0.203125 0.328125,0.203125 z m 0,0"
               id="id-e38d2b16-b7fd-4685-8ab2-9b3253aa3b98"
               style="fill-opacity:1;stroke:#000000;stroke-opacity:1;stroke-width:0" />
          </g>
        </g>
        <g
           fill="#000000"
           fill-opacity="1"
           id="id-3faa461c-5795-4ee1-b02b-673ef5183410"
           transform="translate(-149.087, -124.699)"
           style="fill-opacity:1;stroke:#000000;stroke-opacity:1;stroke-width:0">
          <g
             transform="translate(175.969, 131.019)"
             style="fill-opacity:1;stroke:#000000;stroke-opacity:1;stroke-width:0"
             id="g4">
            <path
               d="m 1.984375,-3.796875 h 1.46875 c 0.109375,0 0.234375,0 0.234375,-0.125 0,-0.109375 -0.109375,-0.109375 -0.234375,-0.109375 H 2.03125 c 0.046875,-0.171875 0.046875,-0.1875 0.09375,-0.359375 0.03125,-0.125 0.078125,-0.328125 0.078125,-0.34375 0,-0.03125 -0.015625,-0.109375 -0.109375,-0.109375 l -0.890625,0.078125 c -0.046875,0 -0.140625,0.015625 -0.140625,0.15625 0,0.09375 0.09375,0.09375 0.171875,0.09375 0.34375,0 0.34375,0.0625 0.34375,0.125 0,0 0,0.046875 -0.078125,0.359375 H 1.09375 c -0.125,0 -0.234375,0 -0.234375,0.109375 0,0.125 0.125,0.125 0.234375,0.125 H 1.4375 l -0.890625,3.53125 c 0,0.03125 -0.015625,0.078125 -0.015625,0.109375 0,0.109375 0.078125,0.21875 0.234375,0.21875 0.25,0 0.296875,-0.203125 0.328125,-0.3125 C 1.125,-0.375 1.203125,-0.703125 1.25,-0.859375 c 0.015625,-0.109375 0.09375,-0.375 0.109375,-0.484375 0.015625,-0.0625 0.109375,-0.421875 0.125,-0.46875 0,-0.0625 0.4375,-1.0625 1.28125,-1.0625 0.40625,0 0.40625,0.359375 0.40625,0.484375 0,0.40625 -0.296875,1.171875 -0.4375,1.546875 C 2.6875,-0.734375 2.65625,-0.640625 2.65625,-0.515625 2.65625,-0.1875 2.9375,0.0625 3.3125,0.0625 4,0.0625 4.328125,-0.875 4.328125,-1 c 0,-0.09375 -0.09375,-0.09375 -0.125,-0.09375 -0.09375,0 -0.09375,0.046875 -0.125,0.125 -0.1875,0.625 -0.515625,0.84375 -0.734375,0.84375 -0.15625,0 -0.1875,-0.109375 -0.1875,-0.25 0,-0.109375 0.015625,-0.203125 0.109375,-0.40625 0.125,-0.34375 0.421875,-1.109375 0.421875,-1.5 0,-0.578125 -0.421875,-0.796875 -0.90625,-0.796875 -0.453125,0 -0.8125,0.21875 -1.125,0.578125 z m 0,0"
               id="id-7158047a-ebb4-4e46-b8c5-f64e34dbdb76"
               style="fill-opacity:1;stroke:#000000;stroke-opacity:1;stroke-width:0" />
          </g>
        </g>
        <g
           fill="#000000"
           fill-opacity="1"
           id="id-30791736-cd0a-4615-aa19-bbe69fb31a1f"
           transform="translate(-149.087, -124.699)"
           style="fill-opacity:1;stroke:#000000;stroke-opacity:1;stroke-width:0">
          <g
             transform="translate(180.383, 128.012)"
             style="fill-opacity:1;stroke:#000000;stroke-opacity:1;stroke-width:0"
             id="g5">
            <path
               d="M 2.9375,-0.96875 H 2.71875 c 0,0.09375 -0.0625,0.40625 -0.140625,0.453125 -0.03125,0.03125 -0.453125,0.03125 -0.53125,0.03125 H 1.078125 C 1.40625,-0.71875 1.765625,-1 2.0625,-1.203125 c 0.453125,-0.3125 0.875,-0.59375 0.875,-1.125 0,-0.640625 -0.609375,-0.984375 -1.3125,-0.984375 -0.671875,0 -1.171875,0.375 -1.171875,0.875 0,0.25 0.21875,0.296875 0.296875,0.296875 0.125,0 0.28125,-0.09375 0.28125,-0.296875 0,-0.171875 -0.125,-0.28125 -0.28125,-0.28125 0.140625,-0.234375 0.4375,-0.375 0.765625,-0.375 0.484375,0 0.890625,0.28125 0.890625,0.765625 0,0.421875 -0.296875,0.75 -0.671875,1.0625 l -1.21875,1.03125 C 0.46875,-0.1875 0.453125,-0.1875 0.453125,-0.15625 V 0 h 2.3125 z m 0,0"
               id="id-24879a0b-2ef5-4262-a9f6-3dc742ebf5c8"
               style="fill-opacity:1;stroke:#000000;stroke-opacity:1;stroke-width:0" />
          </g>
        </g>
        <g
           fill="#000000"
           fill-opacity="1"
           id="id-43806f58-9cfe-454d-bec3-dacc5829b611"
           transform="translate(-149.087, -124.699)"
           style="fill-opacity:1;stroke:#000000;stroke-opacity:1;stroke-width:0">
          <g
             transform="translate(184.271, 131.019)"
             style="fill-opacity:1;stroke:#000000;stroke-opacity:1;stroke-width:0"
             id="g6">
            <path
               d="M 2.171875,-2.53125 H 3 c -0.109375,0.421875 -0.265625,1.046875 -0.265625,1.609375 0,0.28125 0.046875,0.46875 0.078125,0.609375 0.109375,0.359375 0.203125,0.375 0.3125,0.375 0.171875,0 0.328125,-0.140625 0.328125,-0.3125 0,-0.046875 -0.015625,-0.078125 -0.046875,-0.140625 C 3.265625,-0.65625 3.140625,-1.046875 3.140625,-1.625 c 0,-0.125 0,-0.40625 0.09375,-0.90625 h 0.875 c 0.125,0 0.1875,0 0.265625,-0.046875 0.09375,-0.078125 0.109375,-0.1875 0.109375,-0.21875 C 4.484375,-3 4.3125,-3 4.1875,-3 h -2.625 c -0.28125,0 -0.484375,0.0625 -0.796875,0.359375 -0.1875,0.15625 -0.453125,0.53125 -0.453125,0.59375 0,0.078125 0.09375,0.078125 0.125,0.078125 0.078125,0 0.078125,-0.015625 0.125,-0.078125 C 0.90625,-2.53125 1.34375,-2.53125 1.5,-2.53125 h 0.421875 c -0.21875,0.765625 -0.59375,1.59375 -0.796875,2.015625 -0.046875,0.078125 -0.109375,0.234375 -0.140625,0.25 0,0.03125 -0.015625,0.0625 -0.015625,0.109375 0,0.109375 0.078125,0.21875 0.25,0.21875 0.265625,0 0.34375,-0.3125 0.515625,-0.9375 z m 0,0"
               id="id-b8e6cdd6-5e1a-45cb-a87f-c438e8460544"
               style="fill-opacity:1;stroke:#000000;stroke-opacity:1;stroke-width:0" />
          </g>
        </g>
        <g
           fill="#000000"
           fill-opacity="1"
           id="id-dd48be72-ade4-431e-bd46-7f209339303e"
           transform="translate(-149.087, -124.699)"
           style="fill-opacity:1;stroke:#000000;stroke-opacity:1;stroke-width:0">
          <g
             transform="translate(189.18, 128.012)"
             style="fill-opacity:1;stroke:#000000;stroke-opacity:1;stroke-width:0"
             id="g7">
            <path
               d="M 2.9375,-0.96875 H 2.71875 c 0,0.09375 -0.0625,0.40625 -0.140625,0.453125 -0.03125,0.03125 -0.453125,0.03125 -0.53125,0.03125 H 1.078125 C 1.40625,-0.71875 1.765625,-1 2.0625,-1.203125 c 0.453125,-0.3125 0.875,-0.59375 0.875,-1.125 0,-0.640625 -0.609375,-0.984375 -1.3125,-0.984375 -0.671875,0 -1.171875,0.375 -1.171875,0.875 0,0.25 0.21875,0.296875 0.296875,0.296875 0.125,0 0.28125,-0.09375 0.28125,-0.296875 0,-0.171875 -0.125,-0.28125 -0.28125,-0.28125 0.140625,-0.234375 0.4375,-0.375 0.765625,-0.375 0.484375,0 0.890625,0.28125 0.890625,0.765625 0,0.421875 -0.296875,0.75 -0.671875,1.0625 l -1.21875,1.03125 C 0.46875,-0.1875 0.453125,-0.1875 0.453125,-0.15625 V 0 h 2.3125 z m 0,0"
               id="id-13446cd1-bfe3-41bc-af0a-ab0635d6f8cb"
               style="fill-opacity:1;stroke:#000000;stroke-opacity:1;stroke-width:0" />
          </g>
        </g>
        <g
           fill="#000000"
           fill-opacity="1"
           id="id-db9533dc-4672-4740-851f-e310d312d56d"
           transform="translate(-149.087, -124.699)"
           style="fill-opacity:1;stroke:#000000;stroke-opacity:1;stroke-width:0">
          <g
             transform="translate(193.068, 131.019)"
             style="fill-opacity:1;stroke:#000000;stroke-opacity:1;stroke-width:0"
             id="g8">
            <path
               d="m 0.84375,-0.4375 c -0.015625,0.09375 -0.0625,0.265625 -0.0625,0.28125 0,0.15625 0.125,0.21875 0.234375,0.21875 0.125,0 0.234375,-0.078125 0.28125,-0.140625 0.03125,-0.0625 0.078125,-0.296875 0.125,-0.4375 0.03125,-0.125 0.109375,-0.453125 0.140625,-0.625 0.046875,-0.15625 0.09375,-0.3125 0.125,-0.46875 0.078125,-0.28125 0.09375,-0.34375 0.296875,-0.625 C 2.171875,-2.515625 2.5,-2.875 3.03125,-2.875 c 0.390625,0 0.40625,0.359375 0.40625,0.484375 0,0.421875 -0.296875,1.1875 -0.40625,1.484375 -0.078125,0.203125 -0.109375,0.265625 -0.109375,0.375 0,0.375 0.296875,0.59375 0.65625,0.59375 0.703125,0 1,-0.953125 1,-1.0625 0,-0.09375 -0.078125,-0.09375 -0.109375,-0.09375 -0.09375,0 -0.09375,0.046875 -0.125,0.125 C 4.1875,-0.40625 3.875,-0.125 3.609375,-0.125 c -0.15625,0 -0.1875,-0.09375 -0.1875,-0.25 0,-0.15625 0.046875,-0.25 0.171875,-0.5625 0.078125,-0.21875 0.359375,-0.953125 0.359375,-1.34375 0,-0.671875 -0.53125,-0.796875 -0.90625,-0.796875 -0.578125,0 -0.96875,0.359375 -1.171875,0.640625 -0.046875,-0.484375 -0.453125,-0.640625 -0.75,-0.640625 -0.296875,0 -0.453125,0.21875 -0.546875,0.375 -0.15625,0.265625 -0.25,0.65625 -0.25,0.703125 0,0.078125 0.09375,0.078125 0.125,0.078125 0.09375,0 0.09375,-0.015625 0.140625,-0.203125 0.109375,-0.40625 0.25,-0.75 0.515625,-0.75 0.1875,0 0.234375,0.15625 0.234375,0.34375 0,0.125 -0.0625,0.390625 -0.125,0.578125 -0.046875,0.1875 -0.109375,0.46875 -0.140625,0.625 z m 0,0"
               id="id-572616b1-a3b2-4967-87a4-e7f7286f4491"
               style="fill-opacity:1;stroke:#000000;stroke-opacity:1;stroke-width:0" />
          </g>
        </g>
        <g
           fill="#000000"
           fill-opacity="1"
           id="id-de40f719-aee0-43e8-ba3a-26766c7edbb4"
           transform="translate(-149.087, -124.699)"
           style="fill-opacity:1;stroke:#000000;stroke-opacity:1;stroke-width:0">
          <g
             transform="translate(197.993, 128.012)"
             style="fill-opacity:1;stroke:#000000;stroke-opacity:1;stroke-width:0"
             id="g9">
            <path
               d="M 2.9375,-0.96875 H 2.71875 c 0,0.09375 -0.0625,0.40625 -0.140625,0.453125 -0.03125,0.03125 -0.453125,0.03125 -0.53125,0.03125 H 1.078125 C 1.40625,-0.71875 1.765625,-1 2.0625,-1.203125 c 0.453125,-0.3125 0.875,-0.59375 0.875,-1.125 0,-0.640625 -0.609375,-0.984375 -1.3125,-0.984375 -0.671875,0 -1.171875,0.375 -1.171875,0.875 0,0.25 0.21875,0.296875 0.296875,0.296875 0.125,0 0.28125,-0.09375 0.28125,-0.296875 0,-0.171875 -0.125,-0.28125 -0.28125,-0.28125 0.140625,-0.234375 0.4375,-0.375 0.765625,-0.375 0.484375,0 0.890625,0.28125 0.890625,0.765625 0,0.421875 -0.296875,0.75 -0.671875,1.0625 l -1.21875,1.03125 C 0.46875,-0.1875 0.453125,-0.1875 0.453125,-0.15625 V 0 h 2.3125 z m 0,0"
               id="id-5956e7ae-af6f-43fa-9515-bc254cb578d9"
               style="fill-opacity:1;stroke:#000000;stroke-opacity:1;stroke-width:0" />
          </g>
        </g>
        <path
           fill="none"
           stroke-width="0.398"
           stroke-linecap="butt"
           stroke-linejoin="miter"
           stroke-opacity="1"
           stroke-miterlimit="10"
           d="M 26.881744,7.7497253 H 52.795807"
           id="id-84b3cc4e-d185-433b-a664-738083e7f4e7"
           style="fill-opacity:1;stroke:#000000;stroke-opacity:1;stroke-width:0" />
        <g
           fill="#000000"
           fill-opacity="1"
           id="id-c9c21641-1526-44a4-92ab-022fff782f33"
           transform="translate(-149.087, -124.699)"
           style="fill-opacity:1;stroke:#000000;stroke-opacity:1;stroke-width:0">
          <g
             transform="translate(178.728, 138.377)"
             style="fill-opacity:1;stroke:#000000;stroke-opacity:1;stroke-width:0"
             id="g10">
            <path
               d="M 3.515625,-1.265625 H 3.28125 c -0.015625,0.15625 -0.09375,0.5625 -0.1875,0.625 C 3.046875,-0.59375 2.515625,-0.59375 2.40625,-0.59375 H 1.125 c 0.734375,-0.640625 0.984375,-0.84375 1.390625,-1.171875 0.515625,-0.40625 1,-0.84375 1,-1.5 0,-0.84375 -0.734375,-1.359375 -1.625,-1.359375 -0.859375,0 -1.453125,0.609375 -1.453125,1.25 0,0.34375 0.296875,0.390625 0.375,0.390625 0.15625,0 0.359375,-0.125 0.359375,-0.375 0,-0.125 -0.046875,-0.375 -0.40625,-0.375 C 0.984375,-4.21875 1.453125,-4.375 1.78125,-4.375 c 0.703125,0 1.0625,0.546875 1.0625,1.109375 0,0.609375 -0.4375,1.078125 -0.65625,1.328125 L 0.515625,-0.265625 C 0.4375,-0.203125 0.4375,-0.1875 0.4375,0 h 2.875 z m 0,0"
               id="id-b6b8b224-5465-4061-85fa-67ed38112979"
               style="fill-opacity:1;stroke:#000000;stroke-opacity:1;stroke-width:0" />
          </g>
        </g>
        <g
           fill="#000000"
           fill-opacity="1"
           id="id-1e6740a8-a7a3-4074-aea4-b9012ebec80d"
           transform="translate(-149.087, -124.699)"
           style="fill-opacity:1;stroke:#000000;stroke-opacity:1;stroke-width:0">
          <g
             transform="translate(182.699, 138.377)"
             style="fill-opacity:1;stroke:#000000;stroke-opacity:1;stroke-width:0"
             id="g11">
            <path
               d="m 3.03125,-0.5625 c -0.046875,0.140625 -0.109375,0.375 -0.109375,0.40625 0,0.15625 0.125,0.21875 0.234375,0.21875 0.140625,0 0.25,-0.078125 0.28125,-0.140625 0.03125,-0.0625 0.09375,-0.296875 0.125,-0.4375 0.03125,-0.125 0.109375,-0.453125 0.15625,-0.625 0.03125,-0.15625 0.078125,-0.3125 0.109375,-0.46875 0.078125,-0.296875 0.078125,-0.3125 0.21875,-0.53125 C 4.265625,-2.484375 4.625,-2.875 5.15625,-2.875 c 0.390625,0 0.421875,0.3125 0.421875,0.484375 0,0.421875 -0.296875,1.1875 -0.421875,1.484375 -0.0625,0.203125 -0.09375,0.265625 -0.09375,0.375 0,0.375 0.296875,0.59375 0.65625,0.59375 0.703125,0 1,-0.953125 1,-1.0625 0,-0.09375 -0.078125,-0.09375 -0.109375,-0.09375 -0.09375,0 -0.09375,0.046875 -0.125,0.125 C 6.328125,-0.40625 6.015625,-0.125 5.75,-0.125 c -0.15625,0 -0.1875,-0.09375 -0.1875,-0.25 0,-0.15625 0.046875,-0.25 0.171875,-0.5625 0.078125,-0.21875 0.359375,-0.953125 0.359375,-1.34375 0,-0.109375 0,-0.40625 -0.25,-0.609375 -0.125,-0.078125 -0.328125,-0.1875 -0.65625,-0.1875 -0.625,0 -1,0.421875 -1.234375,0.703125 C 3.90625,-2.96875 3.40625,-3.078125 3.046875,-3.078125 2.46875,-3.078125 2.078125,-2.71875 1.875,-2.4375 1.828125,-2.921875 1.421875,-3.078125 1.125,-3.078125 c -0.296875,0 -0.453125,0.21875 -0.546875,0.375 -0.15625,0.265625 -0.25,0.65625 -0.25,0.703125 0,0.078125 0.09375,0.078125 0.125,0.078125 0.09375,0 0.09375,-0.015625 0.140625,-0.203125 0.109375,-0.40625 0.25,-0.75 0.515625,-0.75 0.1875,0 0.234375,0.15625 0.234375,0.34375 0,0.125 -0.0625,0.390625 -0.125,0.578125 -0.046875,0.1875 -0.109375,0.46875 -0.140625,0.625 L 0.84375,-0.4375 c -0.015625,0.09375 -0.0625,0.265625 -0.0625,0.28125 0,0.15625 0.125,0.21875 0.234375,0.21875 0.125,0 0.234375,-0.078125 0.28125,-0.140625 0.03125,-0.0625 0.078125,-0.296875 0.125,-0.4375 0.03125,-0.125 0.109375,-0.453125 0.140625,-0.625 0.046875,-0.15625 0.09375,-0.3125 0.125,-0.46875 0.078125,-0.28125 0.09375,-0.34375 0.296875,-0.625 C 2.171875,-2.515625 2.5,-2.875 3.03125,-2.875 c 0.390625,0 0.40625,0.359375 0.40625,0.484375 0,0.171875 -0.015625,0.265625 -0.125,0.65625 z m 0,0"
               id="id-df1ac2aa-e96b-4683-998d-633aabe68b6e"
               style="fill-opacity:1;stroke:#000000;stroke-opacity:1;stroke-width:0" />
          </g>
          <g
             transform="translate(189.768, 138.377)"
             style="fill-opacity:1;stroke:#000000;stroke-opacity:1;stroke-width:0"
             id="g12">
            <path
               d="m 2.875,-4.1875 c 0.0625,-0.25 0.078125,-0.328125 0.71875,-0.328125 0.21875,0 0.28125,0 0.28125,-0.140625 0,-0.015625 0,-0.109375 -0.109375,-0.109375 -0.15625,0 -0.34375,0.015625 -0.515625,0.03125 -0.171875,0 -0.390625,0 -0.5625,0 -0.140625,0 -0.328125,0 -0.484375,0 -0.140625,0 -0.3125,-0.03125 -0.453125,-0.03125 -0.03125,0 -0.140625,0 -0.140625,0.15625 0,0.09375 0.078125,0.09375 0.21875,0.09375 0.015625,0 0.140625,0 0.265625,0.015625 0.15625,0.015625 0.171875,0.03125 0.171875,0.109375 0,0 0,0.046875 -0.03125,0.140625 l -0.9375,3.703125 C 1.234375,-0.3125 1.21875,-0.25 0.6875,-0.25 c -0.109375,0 -0.203125,0 -0.203125,0.140625 C 0.484375,0 0.5625,0 0.6875,0 h 3.5 c 0.1875,0 0.1875,0 0.25,-0.140625 0.0625,-0.1875 0.59375,-1.53125 0.59375,-1.59375 0,-0.015625 -0.015625,-0.09375 -0.125,-0.09375 -0.078125,0 -0.09375,0.03125 -0.140625,0.140625 C 4.5,-1.03125 4.1875,-0.25 2.921875,-0.25 H 2.125 c -0.203125,0 -0.21875,-0.015625 -0.21875,-0.078125 0,0 0,-0.03125 0.03125,-0.140625 z m 0,0"
               id="id-268bea9e-a309-4ba2-b3a4-5b6690e3ecb5"
               style="fill-opacity:1;stroke:#000000;stroke-opacity:1;stroke-width:0" />
          </g>
        </g>
        <g
           fill="#000000"
           fill-opacity="1"
           id="id-d54536c3-f5c1-4d8c-8bf4-ba524f720e5e"
           transform="translate(-149.087, -124.699)"
           style="fill-opacity:1;stroke:#000000;stroke-opacity:1;stroke-width:0">
          <g
             transform="translate(195.234, 136.384)"
             style="fill-opacity:1;stroke:#000000;stroke-opacity:1;stroke-width:0"
             id="g13">
            <path
               d="M 2.9375,-0.96875 H 2.71875 c 0,0.09375 -0.0625,0.40625 -0.140625,0.453125 -0.03125,0.03125 -0.453125,0.03125 -0.53125,0.03125 H 1.078125 C 1.40625,-0.71875 1.765625,-1 2.0625,-1.203125 c 0.453125,-0.3125 0.875,-0.59375 0.875,-1.125 0,-0.640625 -0.609375,-0.984375 -1.3125,-0.984375 -0.671875,0 -1.171875,0.375 -1.171875,0.875 0,0.25 0.21875,0.296875 0.296875,0.296875 0.125,0 0.28125,-0.09375 0.28125,-0.296875 0,-0.171875 -0.125,-0.28125 -0.28125,-0.28125 0.140625,-0.234375 0.4375,-0.375 0.765625,-0.375 0.484375,0 0.890625,0.28125 0.890625,0.765625 0,0.421875 -0.296875,0.75 -0.671875,1.0625 l -1.21875,1.03125 C 0.46875,-0.1875 0.453125,-0.1875 0.453125,-0.15625 V 0 h 2.3125 z m 0,0"
               id="id-0d158be6-6050-4f55-84dc-0021d5970f1b"
               style="fill-opacity:1;stroke:#000000;stroke-opacity:1;stroke-width:0" />
          </g>
        </g>
      </g>
      <path
         style="fill:none;stroke:#000000;stroke-width:0.28346458;stroke-linecap:butt;stroke-linejoin:miter;stroke-opacity:1"
         d="m 203.03575,208.04955 h 28.125"
         id="path13" />
    </g>
  </g>
</svg>
