<?xml version="1.0" encoding="UTF-8" standalone="no"?>
<svg
   sodipodi:docname="gaussian-x-t.svg"
   inkscape:version="1.4 (86a8ad7, 2024-10-11)"
   id="svg8"
   version="1.1"
   viewBox="0 0 120 39.999998"
   height="4cm"
   width="12cm"
   xmlns:inkscape="http://www.inkscape.org/namespaces/inkscape"
   xmlns:sodipodi="http://sodipodi.sourceforge.net/DTD/sodipodi-0.dtd"
   xmlns="http://www.w3.org/2000/svg"
   xmlns:svg="http://www.w3.org/2000/svg"
   xmlns:rdf="http://www.w3.org/1999/02/22-rdf-syntax-ns#"
   xmlns:cc="http://creativecommons.org/ns#"
   xmlns:dc="http://purl.org/dc/elements/1.1/"
   xmlns:ns0="http://www.iki.fi/pav/software/textext/">
  <sodipodi:namedview
     showguides="true"
     inkscape:snap-global="false"
     inkscape:window-maximized="1"
     inkscape:window-y="-8"
     inkscape:window-x="-8"
     inkscape:window-height="1009"
     inkscape:window-width="1920"
     units="cm"
     showgrid="false"
     inkscape:current-layer="layer1"
     inkscape:document-units="mm"
     inkscape:cy="119.82143"
     inkscape:cx="233.03571"
     inkscape:zoom="2.8"
     inkscape:pageshadow="2"
     inkscape:pageopacity="0.0"
     borderopacity="1.0"
     bordercolor="#666666"
     pagecolor="#ffffff"
     id="base"
     inkscape:document-rotation="0"
     inkscape:showpageshadow="2"
     inkscape:pagecheckerboard="0"
     inkscape:deskcolor="#d1d1d1" />
  <defs
     id="defs2">
    <marker
       inkscape:stockid="Arrow2MendH"
       orient="auto"
       refY="0"
       refX="0"
       id="marker1584"
       style="overflow:visible"
       inkscape:isstock="true">
      <path
         inkscape:connector-curvature="0"
         id="path1582"
         style="fill:#ee7219;fill-opacity:1;fill-rule:evenodd;stroke:#ee7219;stroke-width:0.625;stroke-linejoin:round;stroke-opacity:1"
         d="M 8.7185878,4.0337352 -2.2072895,0.01601326 8.7185884,-4.0017078 c -1.7454984,2.3720609 -1.7354408,5.6174519 -6e-7,8.035443 z"
         transform="scale(-0.6)" />
    </marker>
    <marker
       inkscape:stockid="Arrow2Mend"
       orient="auto"
       refY="0"
       refX="0"
       id="Arrow2Mend"
       style="overflow:visible"
       inkscape:isstock="true">
      <path
         inkscape:connector-curvature="0"
         id="path1104"
         style="fill:#000000;fill-opacity:1;fill-rule:evenodd;stroke:#9278d1;stroke-width:0.625;stroke-linejoin:round;stroke-opacity:1"
         d="M 8.7185878,4.0337352 -2.2072895,0.01601326 8.7185884,-4.0017078 c -1.7454984,2.3720609 -1.7354408,5.6174519 -6e-7,8.035443 z"
         transform="scale(-0.6)" />
    </marker>
    <marker
       inkscape:stockid="Arrow1Send"
       orient="auto"
       refY="0"
       refX="0"
       id="Arrow1Send"
       style="overflow:visible"
       inkscape:isstock="true">
      <path
         inkscape:connector-curvature="0"
         id="path1092"
         d="M 0,0 5,-5 -12.5,0 5,5 Z"
         style="fill:#000000;fill-opacity:1;fill-rule:evenodd;stroke:#000000;stroke-width:1.00000003pt;stroke-opacity:1"
         transform="matrix(-0.2,0,0,-0.2,-1.2,0)" />
    </marker>
    <clipPath
       clipPathUnits="userSpaceOnUse"
       id="clipPath247">
      <rect
         ry="0"
         y="233.79077"
         x="142.97461"
         height="45.56945"
         width="1.0753164"
         id="rect249"
         style="color:#000000;display:inline;overflow:visible;visibility:visible;opacity:1;fill:#ab1f2d;fill-opacity:1;fill-rule:nonzero;stroke:none;stroke-width:0.19843748;stroke-linecap:butt;stroke-linejoin:miter;stroke-miterlimit:10;stroke-dasharray:none;stroke-dashoffset:0;stroke-opacity:1;marker:none;marker-start:none;marker-mid:none;marker-end:none;enable-background:accumulate" />
    </clipPath>
    <clipPath
       id="clipPath3677"
       clipPathUnits="userSpaceOnUse">
      <path
         inkscape:connector-curvature="0"
         id="path3679"
         d="M -2.54e-6,1.272e-5 H 570.00002 V 325.00001 H -2.54e-6 Z" />
    </clipPath>
    <clipPath
       id="clipPath23193"
       clipPathUnits="userSpaceOnUse">
      <path
         inkscape:connector-curvature="0"
         id="path23195"
         d="M 3.81e-6,1.272e-5 H 521.00001 V 232.00001 H 3.81e-6 Z" />
    </clipPath>
    <clipPath
       id="clipPath23569"
       clipPathUnits="userSpaceOnUse">
      <path
         inkscape:connector-curvature="0"
         id="path23571"
         d="M -2.54e-6,2.035e-5 H 578.99998 V 249.00002 H -2.54e-6 Z" />
    </clipPath>
  </defs>
  <metadata
     id="metadata5">
    <rdf:RDF>
      <cc:Work
         rdf:about="">
        <dc:format>image/svg+xml</dc:format>
        <dc:type
           rdf:resource="http://purl.org/dc/dcmitype/StillImage" />
        <dc:title />
      </cc:Work>
    </rdf:RDF>
  </metadata>
  <g
     inkscape:label="Layer 1"
     inkscape:groupmode="layer"
     id="layer1"
     transform="translate(0,-257.00002)">
    <g
       id="g13440"
       transform="translate(31.787256,-1.2116218)" />
    <path
       d="M 5.5586733,289.76534 H 118.64746"
       style="fill:none;stroke:#262626;stroke-width:0.25;stroke-linecap:square;stroke-linejoin:round;stroke-miterlimit:10;stroke-dasharray:none;stroke-opacity:1"
       id="path23585"
       inkscape:connector-curvature="0" />
    <path
       d="M 8.7866572,292.04544 V 263.97498"
       style="fill:none;stroke:#262626;stroke-width:0.23726761;stroke-linecap:square;stroke-linejoin:round;stroke-miterlimit:10;stroke-dasharray:none;stroke-opacity:1"
       id="path23653"
       inkscape:connector-curvature="0" />
    <g
       id="g5890"
       inkscape:groupmode="layer"
       inkscape:label="inkscape-clipboard-import"
       transform="matrix(0.35277777,0,0,-0.35277777,-13.498253,372.96345)">
      <g
         style="stroke:#ab1f2d;stroke-width:1.59498191"
         transform="matrix(0.56578418,0,0,-0.34891147,-30.615881,322.71915)"
         id="g6066">
        <path
           inkscape:connector-curvature="0"
           id="path6068"
           style="fill:none;stroke:#ab1f2d;stroke-width:1.59498191;stroke-linecap:butt;stroke-linejoin:round;stroke-miterlimit:10;stroke-dasharray:none;stroke-opacity:1"
           d="m 190.375,247.99916 1.77791,-0.003 2.09709,-0.0191 1.01425,-0.0277 1.01425,-0.0568 0.46163,-0.042 0.46162,-0.0568 0.23081,-0.0354 0.23082,-0.041 0.23082,-0.0473 0.2308,-0.0545 0.23763,-0.0647 0.23762,-0.0746 0.23763,-0.0858 0.23762,-0.0985 0.11882,-0.0545 0.11881,-0.0583 0.11882,-0.0624 0.1188,-0.0666 0.11882,-0.0711 0.11881,-0.076 0.11882,-0.081 0.1188,-0.0864 0.12338,-0.0958 0.12337,-0.10227 0.12338,-0.10913 0.12337,-0.11641 0.12338,-0.1241 0.12337,-0.1322 0.12338,-0.14076 0.12337,-0.1498 0.12338,-0.15933 0.12337,-0.16936 0.12338,-0.17991 0.12337,-0.19101 0.12338,-0.2027 0.12337,-0.21497 0.24675,-0.46917 0.26723,-0.57221 0.26722,-0.64564 0.26723,-0.72651 0.26723,-0.81523 0.26723,-0.9123 0.26722,-1.0181 0.53447,-2.39032 0.43428,-2.33371 0.21715,-1.313 0.21715,-1.41765 0.21715,-1.52773 0.21714,-1.64323 0.21715,-1.76406 0.21715,-1.89013 0.26993,-2.5329 0.26991,-2.74481 0.26993,-2.96538 0.26993,-3.19383 0.26991,-3.42917 0.26993,-3.67029 0.26993,-3.91586 0.26991,-4.16445 0.21446,-3.48675 0.21445,-3.6444 0.21444,-3.80113 0.21447,-3.95613 0.21444,-4.10853 0.21445,-4.25742 0.21446,-4.4019 0.21445,-4.54093 0.23364,-5.09806 0.23365,-5.24585 0.23364,-5.38254 0.23366,-5.50668 0.46728,-11.3286 0.46729,-11.63964 0.50146,-12.66645 0.50147,-12.645001 0.50145,-12.396621 0.25073,-6.030487 0.25073,-5.877778 0.23282,-5.294204 0.23282,-5.111424 0.23282,-4.904377 0.11641,-2.367099 0.1164,-2.306489 0.11641,-2.243011 0.11641,-2.176731 0.11641,-2.107708 0.11641,-2.03598 0.11641,-1.961685 0.11641,-1.88485 0.11641,-1.805546 0.11641,-1.723907 0.12578,-1.768269 0.12578,-1.667587 0.12577,-1.564316 0.12578,-1.458578 0.12578,-1.35059 0.12578,-1.240454 0.12578,-1.128372 0.12577,-1.014482 0.12578,-0.898983 0.12578,-0.782067 0.12578,-0.663894 0.0629,-0.287281 0.0629,-0.257363 0.0629,-0.227308 0.0629,-0.197205 0.0629,-0.166996 0.0629,-0.136724 0.0629,-0.106398 0.0629,-0.07602 0.0629,-0.04563 0.0629,-0.01522 0.0675,0.01756 0.0675,0.05262 0.0675,0.08769 0.0675,0.122702 0.0675,0.157661 0.0675,0.192553 0.0675,0.227342 0.0676,0.262047 0.0675,0.296617 0.0676,0.331034 0.0675,0.365334 0.0675,0.399431 0.0676,0.433357 0.0675,0.467098 0.13509,1.034472 0.13507,1.166613 0.13508,1.296621 0.13509,1.424229 0.13507,1.549264 0.13509,1.671528 0.13508,1.79073 0.13509,1.906769 0.13507,2.019405 0.10712,1.678886 0.1071,1.745606 0.1071,1.810398 0.1071,1.87323 0.10712,1.934032 0.1071,1.992733 0.1071,2.049328 0.10712,2.103733 0.2142,4.361801 0.21422,4.552407 0.2142,4.724426 0.21422,4.877502 0.25975,6.092202 0.25975,6.254898 0.51949,12.861831 1.03898,26.218815 0.44927,11.15843 0.44925,10.85605 0.22462,5.27884 0.22464,5.16265 0.22463,5.03548 0.22462,4.89851 0.25491,5.38234 0.25493,5.18439 0.25492,4.97777 0.25491,4.76448 0.25491,4.54628 0.25492,4.32498 0.25492,4.10217 0.25492,3.87943 0.22946,3.30267 0.22945,3.12531 0.22946,2.95068 0.22946,2.77947 0.22946,2.61229 0.22945,2.44964 0.22946,2.29209 0.22946,2.13989 0.23994,2.08114 0.23995,1.92788 0.23993,1.78172 0.23994,1.64276 0.23995,1.51114 0.23994,1.38685 0.47988,2.42994 0.48887,2.05322 0.24443,0.88478 0.24443,0.79944 0.24443,0.72064 0.24445,0.64812 0.24443,0.58154 0.24443,0.52065 0.24225,0.4611 0.24225,0.41135 0.12112,0.18846 0.12113,0.1777 0.12114,0.16747 0.12112,0.15774 0.12112,0.14849 0.12113,0.13969 0.12112,0.13138 0.12113,0.12346 0.12112,0.11596 0.12112,0.10886 0.12113,0.10216 0.12112,0.0958 0.12107,0.0897 0.12106,0.084 0.12106,0.0787 0.12107,0.0736 0.12106,0.0689 0.12106,0.0644 0.12107,0.0601 0.12106,0.0562 0.24211,0.10127 0.24213,0.088 0.24212,0.0763 0.24213,0.066 0.25182,0.0591 0.25181,0.0506 0.25182,0.0433 0.25181,0.0369 0.50362,0.058 0.50363,0.0415 0.93024,0.0476 0.93025,0.0245 2.09279,0.0191 1.78221,0.003" />
      </g>
    </g>
    <g
       id="g1721"
       style="fill-opacity:1;stroke:#000000;stroke-opacity:1"
       ns0:jacobian_sqrt="0.4"
       inkscapeversion="0.92.3"
       ns0:alignment="middle center"
       ns0:scale="2.83464566935"
       ns0:preamble="/home/phyps/Dropbox/Talks/1710 Bristol Colloquium teleportation/preamble.tex"
       ns0:text="$t=0$"
       ns0:pdfconverter="pdf2svg"
       ns0:texconverter="pdflatex"
       ns0:version="0.11.0"
       transform="matrix(0.4,0,0,0.4,-38.140184,208.42032)">
      <g
         style="fill-opacity:1;stroke:#000000;stroke-opacity:1"
         id="surface1">
        <g
           id="g1710"
           style="fill:#000000;fill-opacity:1;stroke:#000000;stroke-opacity:1">
          <path
             id="path1708"
             transform="translate(148.712,134.765)"
             d="m 2.046875,-3.984375 h 0.9375 c 0.203125,0 0.3125,0 0.3125,-0.203125 0,-0.109375 -0.109375,-0.109375 -0.28125,-0.109375 h -0.875 C 2.5,-5.71875 2.546875,-5.90625 2.546875,-5.96875 c 0,-0.171875 -0.125,-0.265625 -0.296875,-0.265625 -0.03125,0 -0.3125,0 -0.390625,0.359375 L 1.46875,-4.296875 h -0.9375 c -0.203125,0 -0.296875,0 -0.296875,0.1875 0,0.125 0.078125,0.125 0.28125,0.125 h 0.875 C 0.671875,-1.15625 0.625,-0.984375 0.625,-0.8125 0.625,-0.265625 1,0.109375 1.546875,0.109375 2.5625,0.109375 3.125,-1.34375 3.125,-1.421875 3.125,-1.53125 3.046875,-1.53125 3.015625,-1.53125 2.921875,-1.53125 2.90625,-1.5 2.859375,-1.390625 2.4375,-0.34375 1.90625,-0.109375 1.5625,-0.109375 c -0.203125,0 -0.3125,-0.125 -0.3125,-0.453125 0,-0.25 0.03125,-0.3125 0.0625,-0.484375 z m 0,0"
             style="fill-opacity:1;stroke:#000000;stroke-width:0;stroke-opacity:1"
             inkscape:connector-curvature="0" />
        </g>
        <g
           id="g1714"
           style="fill:#000000;fill-opacity:1;stroke:#000000;stroke-opacity:1">
          <path
             id="path1712"
             transform="translate(155.077,134.765)"
             d="m 6.84375,-3.265625 c 0.15625,0 0.34375,0 0.34375,-0.1875 C 7.1875,-3.65625 7,-3.65625 6.859375,-3.65625 h -5.96875 c -0.140625,0 -0.328125,0 -0.328125,0.203125 0,0.1875 0.1875,0.1875 0.328125,0.1875 z m 0.015625,1.9375 c 0.140625,0 0.328125,0 0.328125,-0.203125 0,-0.1875 -0.1875,-0.1875 -0.34375,-0.1875 H 0.890625 c -0.140625,0 -0.328125,0 -0.328125,0.1875 0,0.203125 0.1875,0.203125 0.328125,0.203125 z m 0,0"
             style="fill-opacity:1;stroke:#000000;stroke-width:0;stroke-opacity:1"
             inkscape:connector-curvature="0" />
        </g>
        <g
           id="g1718"
           style="fill:#000000;fill-opacity:1;stroke:#000000;stroke-opacity:1">
          <path
             id="path1716"
             transform="translate(165.59551,134.765)"
             d="m 4.578125,-3.1875 c 0,-0.796875 -0.046875,-1.59375 -0.390625,-2.328125 -0.453125,-0.96875 -1.28125,-1.125 -1.6875,-1.125 -0.609375,0 -1.328125,0.265625 -1.75,1.1875 -0.3125,0.6875 -0.359375,1.46875 -0.359375,2.265625 0,0.75 0.03125,1.640625 0.453125,2.40625 0.421875,0.796875 1.15625,1 1.640625,1 0.53125,0 1.296875,-0.203125 1.734375,-1.15625 0.3125,-0.6875 0.359375,-1.46875 0.359375,-2.25 z M 2.484375,0 C 2.09375,0 1.5,-0.25 1.328125,-1.203125 1.21875,-1.796875 1.21875,-2.71875 1.21875,-3.3125 c 0,-0.640625 0,-1.296875 0.078125,-1.828125 0.1875,-1.1875 0.9375,-1.28125 1.1875,-1.28125 0.328125,0 0.984375,0.1875 1.171875,1.171875 0.109375,0.5625 0.109375,1.3125 0.109375,1.9375 0,0.75 0,1.421875 -0.109375,2.0625 C 3.5,-0.296875 2.9375,0 2.484375,0 Z m 0,0"
             style="fill-opacity:1;stroke:#000000;stroke-width:0;stroke-opacity:1"
             inkscape:connector-curvature="0" />
        </g>
      </g>
    </g>
    <g
       transform="matrix(0.4,0,0,0.4,-17.425828,221.78111)"
       ns0:version="0.11.0"
       ns0:texconverter="pdflatex"
       ns0:pdfconverter="pdf2svg"
       ns0:text="$t=1$"
       ns0:preamble="/home/phyps/Dropbox/Talks/1710 Bristol Colloquium teleportation/preamble.tex"
       ns0:scale="2.83464566935"
       ns0:alignment="middle center"
       inkscapeversion="0.92.3"
       ns0:jacobian_sqrt="0.4"
       style="fill-opacity:1;stroke:#000000;stroke-opacity:1"
       id="g3445">
      <g
         id="g3443"
         style="fill-opacity:1;stroke:#000000;stroke-opacity:1">
        <g
           style="fill:#000000;fill-opacity:1;stroke:#000000;stroke-opacity:1"
           id="g3433">
          <path
             inkscape:connector-curvature="0"
             style="fill-opacity:1;stroke:#000000;stroke-width:0;stroke-opacity:1"
             d="m 2.046875,-3.984375 h 0.9375 c 0.203125,0 0.3125,0 0.3125,-0.203125 0,-0.109375 -0.109375,-0.109375 -0.28125,-0.109375 h -0.875 C 2.5,-5.71875 2.546875,-5.90625 2.546875,-5.96875 c 0,-0.171875 -0.125,-0.265625 -0.296875,-0.265625 -0.03125,0 -0.3125,0 -0.390625,0.359375 L 1.46875,-4.296875 h -0.9375 c -0.203125,0 -0.296875,0 -0.296875,0.1875 0,0.125 0.078125,0.125 0.28125,0.125 h 0.875 C 0.671875,-1.15625 0.625,-0.984375 0.625,-0.8125 0.625,-0.265625 1,0.109375 1.546875,0.109375 2.5625,0.109375 3.125,-1.34375 3.125,-1.421875 3.125,-1.53125 3.046875,-1.53125 3.015625,-1.53125 2.921875,-1.53125 2.90625,-1.5 2.859375,-1.390625 2.4375,-0.34375 1.90625,-0.109375 1.5625,-0.109375 c -0.203125,0 -0.3125,-0.125 -0.3125,-0.453125 0,-0.25 0.03125,-0.3125 0.0625,-0.484375 z m 0,0"
             transform="translate(148.712,134.765)"
             id="path3431" />
        </g>
        <g
           style="fill:#000000;fill-opacity:1;stroke:#000000;stroke-opacity:1"
           id="g3437">
          <path
             inkscape:connector-curvature="0"
             style="fill-opacity:1;stroke:#000000;stroke-width:0;stroke-opacity:1"
             d="m 6.84375,-3.265625 c 0.15625,0 0.34375,0 0.34375,-0.1875 C 7.1875,-3.65625 7,-3.65625 6.859375,-3.65625 h -5.96875 c -0.140625,0 -0.328125,0 -0.328125,0.203125 0,0.1875 0.1875,0.1875 0.328125,0.1875 z m 0.015625,1.9375 c 0.140625,0 0.328125,0 0.328125,-0.203125 0,-0.1875 -0.1875,-0.1875 -0.34375,-0.1875 H 0.890625 c -0.140625,0 -0.328125,0 -0.328125,0.1875 0,0.203125 0.1875,0.203125 0.328125,0.203125 z m 0,0"
             transform="translate(155.077,134.765)"
             id="path3435" />
        </g>
        <g
           style="fill:#000000;fill-opacity:1;stroke:#000000;stroke-opacity:1"
           id="g3441">
          <path
             inkscape:connector-curvature="0"
             style="fill-opacity:1;stroke:#000000;stroke-width:0;stroke-opacity:1"
             d="m 2.9375,-6.375 c 0,-0.25 0,-0.265625 -0.234375,-0.265625 C 2.078125,-6 1.203125,-6 0.890625,-6 v 0.3125 c 0.203125,0 0.78125,0 1.296875,-0.265625 v 5.171875 c 0,0.359375 -0.03125,0.46875 -0.921875,0.46875 h -0.3125 V 0 c 0.34375,-0.03125 1.203125,-0.03125 1.609375,-0.03125 0.390625,0 1.265625,0 1.609375,0.03125 v -0.3125 h -0.3125 c -0.90625,0 -0.921875,-0.109375 -0.921875,-0.46875 z m 0,0"
             transform="translate(165.59551,134.765)"
             id="path3439" />
        </g>
      </g>
    </g>
    <g
       id="g5200"
       style="fill-opacity:1;stroke:#000000;stroke-opacity:1"
       ns0:jacobian_sqrt="0.4"
       inkscapeversion="0.92.3"
       ns0:alignment="middle center"
       ns0:scale="2.83464566935"
       ns0:preamble="/home/phyps/Dropbox/Talks/1710 Bristol Colloquium teleportation/preamble.tex"
       ns0:text="$t=3$"
       ns0:pdfconverter="pdf2svg"
       ns0:texconverter="pdflatex"
       ns0:version="0.11.0"
       transform="matrix(0.4,0,0,0.4,26.595518,229.37641)">
      <g
         style="fill-opacity:1;stroke:#000000;stroke-opacity:1"
         id="g5198">
        <g
           id="g5188"
           style="fill:#000000;fill-opacity:1;stroke:#000000;stroke-opacity:1">
          <path
             id="path5186"
             transform="translate(148.712,134.765)"
             d="m 2.046875,-3.984375 h 0.9375 c 0.203125,0 0.3125,0 0.3125,-0.203125 0,-0.109375 -0.109375,-0.109375 -0.28125,-0.109375 h -0.875 C 2.5,-5.71875 2.546875,-5.90625 2.546875,-5.96875 c 0,-0.171875 -0.125,-0.265625 -0.296875,-0.265625 -0.03125,0 -0.3125,0 -0.390625,0.359375 L 1.46875,-4.296875 h -0.9375 c -0.203125,0 -0.296875,0 -0.296875,0.1875 0,0.125 0.078125,0.125 0.28125,0.125 h 0.875 C 0.671875,-1.15625 0.625,-0.984375 0.625,-0.8125 0.625,-0.265625 1,0.109375 1.546875,0.109375 2.5625,0.109375 3.125,-1.34375 3.125,-1.421875 3.125,-1.53125 3.046875,-1.53125 3.015625,-1.53125 2.921875,-1.53125 2.90625,-1.5 2.859375,-1.390625 2.4375,-0.34375 1.90625,-0.109375 1.5625,-0.109375 c -0.203125,0 -0.3125,-0.125 -0.3125,-0.453125 0,-0.25 0.03125,-0.3125 0.0625,-0.484375 z m 0,0"
             style="fill-opacity:1;stroke:#000000;stroke-width:0;stroke-opacity:1"
             inkscape:connector-curvature="0" />
        </g>
        <g
           id="g5192"
           style="fill:#000000;fill-opacity:1;stroke:#000000;stroke-opacity:1">
          <path
             id="path5190"
             transform="translate(155.077,134.765)"
             d="m 6.84375,-3.265625 c 0.15625,0 0.34375,0 0.34375,-0.1875 C 7.1875,-3.65625 7,-3.65625 6.859375,-3.65625 h -5.96875 c -0.140625,0 -0.328125,0 -0.328125,0.203125 0,0.1875 0.1875,0.1875 0.328125,0.1875 z m 0.015625,1.9375 c 0.140625,0 0.328125,0 0.328125,-0.203125 0,-0.1875 -0.1875,-0.1875 -0.34375,-0.1875 H 0.890625 c -0.140625,0 -0.328125,0 -0.328125,0.1875 0,0.203125 0.1875,0.203125 0.328125,0.203125 z m 0,0"
             style="fill-opacity:1;stroke:#000000;stroke-width:0;stroke-opacity:1"
             inkscape:connector-curvature="0" />
        </g>
        <g
           id="g5196"
           style="fill:#000000;fill-opacity:1;stroke:#000000;stroke-opacity:1">
          <path
             id="path5194"
             transform="translate(165.59551,134.765)"
             d="m 2.890625,-3.515625 c 0.8125,-0.265625 1.390625,-0.953125 1.390625,-1.75 0,-0.8125 -0.875,-1.375 -1.828125,-1.375 -1,0 -1.765625,0.59375 -1.765625,1.359375 0,0.328125 0.21875,0.515625 0.515625,0.515625 0.296875,0 0.5,-0.21875 0.5,-0.515625 0,-0.484375 -0.46875,-0.484375 -0.609375,-0.484375 0.296875,-0.5 0.953125,-0.625 1.3125,-0.625 0.421875,0 0.96875,0.21875 0.96875,1.109375 0,0.125 -0.03125,0.703125 -0.28125,1.140625 C 2.796875,-3.65625 2.453125,-3.625 2.203125,-3.625 2.125,-3.609375 1.890625,-3.59375 1.8125,-3.59375 c -0.078125,0.015625 -0.140625,0.03125 -0.140625,0.125 0,0.109375 0.0625,0.109375 0.234375,0.109375 h 0.4375 c 0.8125,0 1.1875,0.671875 1.1875,1.65625 0,1.359375 -0.6875,1.640625 -1.125,1.640625 -0.4375,0 -1.1875,-0.171875 -1.53125,-0.75 0.34375,0.046875 0.65625,-0.171875 0.65625,-0.546875 0,-0.359375 -0.265625,-0.5625 -0.546875,-0.5625 -0.25,0 -0.5625,0.140625 -0.5625,0.578125 0,0.90625 0.921875,1.5625 2.015625,1.5625 1.21875,0 2.125,-0.90625 2.125,-1.921875 0,-0.8125 -0.640625,-1.59375 -1.671875,-1.8125 z m 0,0"
             style="fill-opacity:1;stroke:#000000;stroke-width:0;stroke-opacity:1"
             inkscape:connector-curvature="0" />
        </g>
      </g>
    </g>
    <g
       transform="matrix(0.4,0,0,0.4,57.26458,239.00225)"
       ns0:version="0.11.0"
       ns0:texconverter="pdflatex"
       ns0:pdfconverter="pdf2svg"
       ns0:text="$x$"
       ns0:preamble="/home/phyps/Dropbox/Talks/1710 Bristol Colloquium teleportation/preamble.tex"
       ns0:scale="2.83464566935"
       ns0:alignment="middle center"
       inkscapeversion="0.92.3"
       ns0:jacobian_sqrt="0.4"
       style="fill-opacity:1;stroke:#000000;stroke-opacity:1"
       id="g6948">
      <g
         id="g6946"
         style="fill-opacity:1;stroke:#000000;stroke-opacity:1">
        <g
           style="fill:#000000;fill-opacity:1;stroke:#000000;stroke-opacity:1"
           id="g6944">
          <path
             inkscape:connector-curvature="0"
             style="fill-opacity:1;stroke:#000000;stroke-width:0;stroke-opacity:1"
             d="M 3.328125,-3.015625 C 3.390625,-3.265625 3.625,-4.1875 4.3125,-4.1875 c 0.046875,0 0.296875,0 0.5,0.125 C 4.53125,-4 4.34375,-3.765625 4.34375,-3.515625 c 0,0.15625 0.109375,0.34375 0.375,0.34375 0.21875,0 0.53125,-0.171875 0.53125,-0.578125 0,-0.515625 -0.578125,-0.65625 -0.921875,-0.65625 -0.578125,0 -0.921875,0.53125 -1.046875,0.75 -0.25,-0.65625 -0.78125,-0.75 -1.078125,-0.75 -1.03125,0 -1.609375,1.28125 -1.609375,1.53125 0,0.109375 0.109375,0.109375 0.125,0.109375 0.078125,0 0.109375,-0.03125 0.125,-0.109375 0.34375,-1.0625 1,-1.3125 1.34375,-1.3125 0.1875,0 0.53125,0.09375 0.53125,0.671875 0,0.3125 -0.171875,0.96875 -0.53125,2.375 -0.15625,0.609375 -0.515625,1.03125 -0.953125,1.03125 -0.0625,0 -0.28125,0 -0.5,-0.125 0.25,-0.0625 0.46875,-0.265625 0.46875,-0.546875 0,-0.265625 -0.21875,-0.34375 -0.359375,-0.34375 -0.3125,0 -0.546875,0.25 -0.546875,0.578125 0,0.453125 0.484375,0.65625 0.921875,0.65625 0.671875,0 1.03125,-0.703125 1.046875,-0.75 0.125,0.359375 0.484375,0.75 1.078125,0.75 1.03125,0 1.59375,-1.28125 1.59375,-1.53125 0,-0.109375 -0.078125,-0.109375 -0.109375,-0.109375 -0.09375,0 -0.109375,0.046875 -0.140625,0.109375 -0.328125,1.078125 -1,1.3125 -1.3125,1.3125 -0.390625,0 -0.546875,-0.3125 -0.546875,-0.65625 0,-0.21875 0.046875,-0.4375 0.15625,-0.875 z m 0,0"
             transform="translate(148.712,134.765)"
             id="path6942" />
        </g>
      </g>
    </g>
    <path
       inkscape:connector-curvature="0"
       id="path23593"
       style="fill:#a05a2c;stroke:#262626;stroke-width:0.25;stroke-linecap:square;stroke-linejoin:round;stroke-miterlimit:10;stroke-dasharray:none;stroke-opacity:1"
       d="m 19.167025,290.35173 v -1.17279" />
    <path
       d="m 40.826596,290.35173 v -1.17279"
       style="fill:#a05a2c;stroke:#262626;stroke-width:0.25;stroke-linecap:square;stroke-linejoin:round;stroke-miterlimit:10;stroke-dasharray:none;stroke-opacity:1"
       id="path12356"
       inkscape:connector-curvature="0" />
    <path
       inkscape:connector-curvature="0"
       id="path12358"
       style="fill:#a05a2c;stroke:#262626;stroke-width:0.25;stroke-linecap:square;stroke-linejoin:round;stroke-miterlimit:10;stroke-dasharray:none;stroke-opacity:1"
       d="m 84.14556,290.35173 v -1.17279" />
    <g
       transform="matrix(0.4,0,0,0.4,-41.311525,240.07583)"
       ns0:version="0.11.0"
       ns0:texconverter="pdflatex"
       ns0:pdfconverter="pdf2svg"
       ns0:text="$0$"
       ns0:preamble="/home/phyps/Dropbox/Talks/1710 Bristol Colloquium teleportation/preamble.tex"
       ns0:scale="2.83464566935"
       ns0:alignment="middle center"
       inkscapeversion="0.92.3"
       ns0:jacobian_sqrt="0.4"
       style="fill-opacity:1;stroke:#000000;stroke-opacity:1"
       id="g12506">
      <g
         id="g12504"
         style="fill-opacity:1;stroke:#000000;stroke-opacity:1">
        <g
           style="fill:#000000;fill-opacity:1;stroke:#000000;stroke-opacity:1"
           id="g12502">
          <path
             inkscape:connector-curvature="0"
             style="fill-opacity:1;stroke:#000000;stroke-width:0;stroke-opacity:1"
             d="m 4.578125,-3.1875 c 0,-0.796875 -0.046875,-1.59375 -0.390625,-2.328125 -0.453125,-0.96875 -1.28125,-1.125 -1.6875,-1.125 -0.609375,0 -1.328125,0.265625 -1.75,1.1875 -0.3125,0.6875 -0.359375,1.46875 -0.359375,2.265625 0,0.75 0.03125,1.640625 0.453125,2.40625 0.421875,0.796875 1.15625,1 1.640625,1 0.53125,0 1.296875,-0.203125 1.734375,-1.15625 0.3125,-0.6875 0.359375,-1.46875 0.359375,-2.25 z M 2.484375,0 C 2.09375,0 1.5,-0.25 1.328125,-1.203125 1.21875,-1.796875 1.21875,-2.71875 1.21875,-3.3125 c 0,-0.640625 0,-1.296875 0.078125,-1.828125 0.1875,-1.1875 0.9375,-1.28125 1.1875,-1.28125 0.328125,0 0.984375,0.1875 1.171875,1.171875 0.109375,0.5625 0.109375,1.3125 0.109375,1.9375 0,0.75 0,1.421875 -0.109375,2.0625 C 3.5,-0.296875 2.9375,0 2.484375,0 Z m 0,0"
             transform="translate(148.712,134.765)"
             id="path12500" />
        </g>
      </g>
    </g>
    <path
       d="m 13.752426,289.65821 0.354916,-3e-4 0.209321,-6.1e-4 0.209313,-0.001 0.101234,-10e-4 0.101233,-0.002 0.101235,-0.003 0.05063,-0.001 0.05061,-0.002 0.04607,-0.002 0.04607,-0.003 0.04607,-0.003 0.04607,-0.004 0.04609,-0.004 0.02303,-0.002 0.02303,-0.002 0.02303,-0.003 0.02303,-0.003 0.02303,-0.003 0.02305,-0.004 0.02372,-0.004 0.02371,-0.004 0.02372,-0.004 0.02372,-0.004 0.02372,-0.005 0.02372,-0.005 0.02371,-0.006 0.02372,-0.006 0.02372,-0.007 0.02372,-0.007 0.02372,-0.008 0.02371,-0.008 0.02372,-0.009 0.02372,-0.009 0.02372,-0.01 0.02372,-0.0106 0.02462,-0.0118 0.02464,-0.0125 0.02462,-0.0134 0.02462,-0.0142 0.04926,-0.0314 0.04925,-0.0357 0.04925,-0.0403 0.04926,-0.0455 0.04925,-0.0512 0.04926,-0.0575 0.05335,-0.0702 0.05335,-0.0792 0.05334,-0.0891 0.05335,-0.10002 0.05334,-0.11191 0.05335,-0.1249 0.02668,-0.0677 0.02667,-0.0713 0.02667,-0.0751 0.02667,-0.0791 0.02168,-0.0673 0.02168,-0.0701 0.02168,-0.0729 0.02168,-0.0759 0.02168,-0.079 0.02168,-0.0821 0.02168,-0.0853 0.02168,-0.0886 0.02168,-0.092 0.02168,-0.0954 0.02168,-0.099 0.02168,-0.1026 0.02168,-0.10631 0.02168,-0.1101 0.02167,-0.11396 0.02168,-0.1179 0.02695,-0.15218 0.02694,-0.15855 0.02695,-0.16503 0.02694,-0.17168 0.02695,-0.17845 0.02694,-0.18533 0.02695,-0.19233 0.02694,-0.19946 0.01348,-0.10244 0.01348,-0.10424 0.01348,-0.10608 0.01348,-0.10792 0.01348,-0.10976 0.01348,-0.11162 0.01348,-0.11349 0.01348,-0.11537 0.01348,-0.11725 0.01348,-0.11914 0.01348,-0.12104 0.01348,-0.12294 0.01348,-0.12485 0.01348,-0.12676 0.01348,-0.12867 0.01348,-0.13059 0.02141,-0.21145 0.02141,-0.21629 0.02141,-0.22112 0.02141,-0.22595 0.02141,-0.23075 0.02141,-0.23554 0.02141,-0.2403 0.02141,-0.24502 0.02141,-0.24969 0.02141,-0.25432 0.02141,-0.25888 0.02141,-0.26339 0.02141,-0.26783 0.02141,-0.27217 0.02141,-0.27644 0.02141,-0.28061 0.02332,-0.31036 0.02332,-0.31504 0.02332,-0.31958 0.02332,-0.32395 0.02332,-0.32814 0.02332,-0.33216 0.02332,-0.33596 0.02332,-0.33956 0.02332,-0.34295 0.02332,-0.34609 0.04664,-0.70068 0.04664,-0.71026 0.04665,-0.71762 0.100098,-1.55384 0.05004,-0.77762 0.05005,-0.77359 0.05005,-0.766 0.02504,-0.379 0.02504,-0.37574 0.02504,-0.372 0.02504,-0.36779 0.02504,-0.36309 0.02504,-0.35795 0.02323,-0.32735 0.02323,-0.32211 0.02323,-0.31651 0.01162,-0.15603 0.01161,-0.1545 0.01163,-0.15291 0.01162,-0.15127 0.01162,-0.14959 0.01163,-0.14787 0.01162,-0.14609 0.01163,-0.14429 0.01162,-0.14243 0.01163,-0.14051 0.01162,-0.13858 0.01163,-0.13659 0.01162,-0.13454 0.01162,-0.13248 0.01163,-0.13036 0.01162,-0.1282 0.01163,-0.126 0.01163,-0.12377 0.01162,-0.12147 0.01162,-0.11917 0.01163,-0.11681 0.01162,-0.11441 0.01162,-0.11199 0.01163,-0.1095 0.01162,-0.10701 0.01163,-0.10447 0.01255,-0.10999 0.01255,-0.10694 0.01255,-0.10385 0.01255,-0.10072 0.01255,-0.0975 0.01255,-0.0944 0.01255,-0.0911 0.01255,-0.0878 0.01255,-0.0845 0.01255,-0.0812 0.01255,-0.0778 0.01255,-0.0744 0.01255,-0.071 0.01255,-0.0674 0.01255,-0.064 0.01255,-0.0605 0.01255,-0.0569 0.01255,-0.0534 0.01255,-0.0498 0.01255,-0.0462 0.01255,-0.0426 0.01255,-0.0389 0.01255,-0.0352 0.01255,-0.0316 0.01255,-0.0279 0.01255,-0.0242 0.01255,-0.0205 0.01255,-0.0168 0.01255,-0.013 0.01255,-0.009 0.01255,-0.006 0.01255,-10e-4 0.01348,0.002 0.01348,0.007 0.01348,0.0108 0.01348,0.015 0.01348,0.0193 0.01348,0.0236 0.01348,0.0279 0.01348,0.0322 0.01348,0.0364 0.01348,0.0406 0.01348,0.0448 0.01348,0.049 0.01348,0.0532 0.01348,0.0573 0.01348,0.0614 0.01348,0.0655 0.01348,0.0695 0.01348,0.0735 0.01348,0.0776 0.01348,0.0815 0.01348,0.0854 0.01348,0.0893 0.01348,0.0931 0.01348,0.0969 0.01348,0.10067 0.01348,0.10438 0.01348,0.10803 0.01348,0.11164 0.01348,0.11521 0.01348,0.11871 0.01348,0.12216 0.01348,0.12556 0.01064,0.10194 0.01064,0.10402 0.01064,0.10606 0.01064,0.10808 0.01064,0.11007 0.01064,0.11202 0.01064,0.11395 0.01064,0.11585 0.01064,0.1177 0.01064,0.11955 0.01064,0.12135 0.01064,0.12311 0.01064,0.12485 0.01064,0.12654 0.01064,0.12823 0.01064,0.12985 0.01064,0.13145 0.01064,0.13302 0.01064,0.13456 0.01064,0.13605 0.01064,0.1375 0.01064,0.13895 0.02138,0.28201 0.02138,0.28728 0.02138,0.29228 0.02138,0.29697 0.02138,0.30138 0.02593,0.37091 0.02593,0.37644 0.02593,0.38142 0.02593,0.38588 0.02593,0.38984 0.02593,0.39325 0.05186,0.79473 0.05186,0.80231 0.05186,0.80599 0.103701,1.60805 0.04484,0.68812 0.04484,0.68073 0.04483,0.67143 0.02243,0.33165 0.02243,0.32867 0.02243,0.32548 0.02243,0.3221 0.02243,0.31853 0.02243,0.3148 0.02243,0.31088 0.02243,0.30684 0.02243,0.30263 0.02243,0.29828 0.02545,0.3331 0.02545,0.32718 0.02545,0.3211 0.02545,0.31488 0.02545,0.30855 0.02546,0.30209 0.02545,0.29556 0.02545,0.28892 0.02545,0.28223 0.02545,0.27548 0.02545,0.26869 0.02545,0.26187 0.02545,0.25504 0.02545,0.24819 0.02545,0.24136 0.02545,0.23455 0.02291,0.20531 0.02291,0.19984 0.02291,0.1944 0.02291,0.18899 0.02291,0.18364 0.02291,0.17833 0.02291,0.17308 0.02291,0.16789 0.02291,0.16276 0.02291,0.1577 0.02291,0.15271 0.02291,0.1478 0.02291,0.14296 0.02291,0.13821 0.02291,0.13355 0.02291,0.12896 0.02396,0.13006 0.02396,0.12525 0.02396,0.12054 0.02396,0.11595 0.02396,0.11147 0.02396,0.1071 0.02396,0.10284 0.02396,0.0987 0.02396,0.0947 0.02396,0.0907 0.02396,0.0869 0.02396,0.0832 0.02396,0.0796 0.02396,0.0762 0.02396,0.0728 0.02396,0.0695 0.04879,0.13203 0.0488,0.11985 0.04879,0.10854 0.0488,0.0981 0.04879,0.0884 0.0488,0.0795 0.04879,0.0713 0.0488,0.0638 0.04836,0.0566 0.04836,0.0505 0.04836,0.0449 0.04836,0.0399 0.04836,0.0354 0.04836,0.0313 0.04836,0.0276 0.02419,0.0125 0.02419,0.0118 0.02416,0.011 0.02416,0.0103 0.02416,0.01 0.02416,0.009 0.02416,0.008 0.02416,0.008 0.02416,0.007 0.02416,0.007 0.02416,0.007 0.02416,0.006 0.02416,0.006 0.02416,0.005 0.02416,0.005 0.02416,0.004 0.02416,0.004 0.02416,0.004 0.02513,0.004 0.02513,0.004 0.02513,0.003 0.02513,0.003 0.02513,0.003 0.02513,0.002 0.05027,0.004 0.05028,0.004 0.05027,0.003 0.05027,0.003 0.05026,0.002 0.09286,0.004 0.09285,0.002 0.09285,10e-4 0.09285,0.001 0.208889,10e-4 0.208889,6.1e-4 0.355775,3.1e-4"
       style="opacity:1;vector-effect:none;fill:none;fill-opacity:1;stroke:#ab1f2d;stroke-width:0.24999997;stroke-linecap:butt;stroke-linejoin:round;stroke-miterlimit:10;stroke-dasharray:none;stroke-dashoffset:0;stroke-opacity:1"
       id="path13523"
       inkscape:connector-curvature="0" />
    <path
       d="m 28.718712,289.65827 0.793616,-1.6e-4 0.936094,-7.4e-4 0.905476,-0.004 0.412117,-0.005 0.206062,-0.004 0.206056,-0.006 0.21214,-0.008 0.106079,-0.004 0.106066,-0.005 0.106066,-0.006 0.106078,-0.007 0.106067,-0.008 0.106065,-0.009 0.110142,-0.0108 0.11014,-0.0124 0.11014,-0.0141 0.05507,-0.008 0.05507,-0.008 0.05507,-0.009 0.05507,-0.009 0.05507,-0.01 0.05507,-0.0105 0.05507,-0.0111 0.05507,-0.0118 0.05507,-0.0125 0.05507,-0.0133 0.05964,-0.0152 0.05964,-0.0162 0.05964,-0.0172 0.05964,-0.0182 0.05964,-0.0193 0.05964,-0.0205 0.05964,-0.0217 0.05964,-0.023 0.05964,-0.0243 0.05964,-0.0257 0.119285,-0.0559 0.119284,-0.0621 0.119285,-0.069 0.09693,-0.0614 0.09694,-0.0666 0.193856,-0.14981 0.193857,-0.17396 0.19386,-0.20047 0.240973,-0.28955 0.24098,-0.3379 0.24097,-0.38949 0.240973,-0.44329 0.191459,-0.39123 0.191449,-0.42557 0.191453,-0.45897 0.191455,-0.49062 0.208586,-0.56748 0.208589,-0.59739 0.417172,-1.26007 0.447685,-1.38863 0.223835,-0.68009 0.223847,-0.6533 0.207846,-0.57087 0.207847,-0.52546 0.103927,-0.24248 0.103928,-0.22732 0.103928,-0.21103 0.103927,-0.19363 0.11229,-0.1885 0.112292,-0.16583 0.112291,-0.14215 0.05615,-0.0619 0.05615,-0.0557 0.05615,-0.0493 0.02806,-0.0222 0.02806,-0.0207 0.02806,-0.019 0.02806,-0.0174 0.02806,-0.0158 0.02806,-0.0141 0.02806,-0.0125 0.02806,-0.0108 0.02806,-0.009 0.02806,-0.007 0.02806,-0.006 0.02806,-0.004 0.02806,-0.002 0.02806,-7.4e-4 0.03015,7.4e-4 0.03015,0.003 0.03015,0.004 0.03015,0.007 0.03015,0.009 0.03015,0.0105 0.03015,0.0125 0.03015,0.0144 0.03015,0.0162 0.03015,0.0182 0.03015,0.02 0.03015,0.0219 0.06028,0.0494 0.0603,0.0568 0.06029,0.064 0.0603,0.0711 0.120596,0.16313 0.120593,0.18995 0.120597,0.2154 0.09562,0.18786 0.09562,0.2021 0.09562,0.21542 0.09562,0.22785 0.191238,0.48904 0.19124,0.52678 0.231888,0.67738 0.231889,0.70561 0.463786,1.4384 0.401072,1.20775 0.200537,0.57283 0.200537,0.545 0.227582,0.5797 0.227577,0.53448 0.227576,0.48668 0.22758,0.43788 0.204849,0.35265 0.204852,0.31437 0.204848,0.2777 0.20485,0.24314 0.214207,0.21994 0.21421,0.18788 0.107107,0.0829 0.107108,0.0761 0.107107,0.0697 0.107108,0.0637 0.109111,0.0591 0.109111,0.0536 0.109111,0.0486 0.10911,0.0439 0.1091,0.0395 0.05456,0.0182 0.05455,0.0173 0.05455,0.0164 0.05456,0.0155 0.05455,0.0147 0.05455,0.0139 0.05406,0.013 0.05407,0.0123 0.05406,0.0116 0.05406,0.011 0.05408,0.0104 0.05406,0.01 0.05407,0.009 0.05406,0.009 0.108137,0.0158 0.108126,0.014 0.108137,0.0123 0.108138,0.0109 0.108081,0.01 0.108081,0.008 0.108081,0.007 0.108081,0.007 0.108081,0.005 0.108081,0.005 0.216158,0.008 0.224807,0.006 0.22481,0.004 0.44962,0.005 0.830478,0.004 0.934171,7.4e-4 0.795538,1.7e-4"
       style="opacity:1;vector-effect:none;fill:none;fill-opacity:1;stroke:#ab1f2d;stroke-width:0.24999997;stroke-linecap:butt;stroke-linejoin:round;stroke-miterlimit:10;stroke-dasharray:none;stroke-dashoffset:0;stroke-opacity:1"
       id="path13527"
       inkscape:connector-curvature="0" />
    <path
       d="m 40.160091,289.6583 1.463359,-9e-5 1.72607,-6e-4 1.66962,-0.002 1.519807,-0.008 0.782344,-0.01 0.391169,-0.007 0.391166,-0.009 0.406192,-0.0126 0.406187,-0.0162 0.406185,-0.0208 0.203094,-0.0125 0.203097,-0.0139 0.21995,-0.017 0.219949,-0.0192 0.219948,-0.0216 0.21995,-0.0242 0.219952,-0.0271 0.219951,-0.0302 0.219949,-0.0337 0.219951,-0.0374 0.178728,-0.0333 0.17873,-0.0361 0.178728,-0.0391 0.17873,-0.0422 0.178722,-0.0454 0.178733,-0.0489 0.178735,-0.0525 0.178723,-0.0563 0.222166,-0.0754 0.222168,-0.0817 0.222174,-0.0882 0.222166,-0.095 0.222169,-0.10202 0.222166,-0.1092 0.222166,-0.11651 0.222168,-0.1239 0.353023,-0.21217 0.353017,-0.23081 0.706051,-0.51498 0.769228,-0.63174 0.769232,-0.68337 0.825487,-0.75309 0.825474,-0.72313 0.383264,-0.3096 0.383256,-0.28497 0.191625,-0.1315 0.191629,-0.12329 0.191626,-0.11444 0.191626,-0.10501 0.10352,-0.0526 0.103531,-0.0496 0.103521,-0.0465 0.10353,-0.0434 0.103521,-0.0402 0.103531,-0.0369 0.05176,-0.0172 0.05175,-0.0164 0.05176,-0.0155 0.05176,-0.0147 0.05175,-0.0138 0.05175,-0.013 0.05177,-0.0121 0.05175,-0.0112 0.05177,-0.0103 0.05175,-0.009 0.05176,-0.009 0.05177,-0.008 0.05176,-0.007 0.05175,-0.006 0.05175,-0.005 0.05176,-0.004 0.05177,-0.003 0.05176,-0.002 0.05175,-0.001 0.05176,-6.1e-4 0.0556,6.1e-4 0.05559,0.001 0.05559,0.002 0.05559,0.004 0.0556,0.004 0.05559,0.006 0.0556,0.007 0.05561,0.008 0.05559,0.009 0.05561,0.01 0.05559,0.0109 0.05557,0.0119 0.05561,0.0129 0.0556,0.0139 0.05561,0.0149 0.05559,0.0159 0.05561,0.0169 0.05559,0.0178 0.111182,0.0386 0.111181,0.0424 0.111183,0.0461 0.11117,0.0497 0.111182,0.0533 0.111182,0.0567 0.111181,0.0601 0.17631,0.10188 0.176313,0.1096 0.352631,0.2404 0.352622,0.26522 0.352635,0.28569 0.855163,0.75003 0.855168,0.78009 0.739552,0.65499 0.739539,0.60622 0.419633,0.31439 0.419633,0.28986 0.419635,0.26395 0.419642,0.23747 0.377715,0.19125 0.188868,0.0878 0.188856,0.0827 0.188868,0.0777 0.188859,0.0729 0.188865,0.0682 0.18886,0.0637 0.197495,0.0619 0.197483,0.0574 0.197495,0.053 0.197491,0.0489 0.197486,0.045 0.197495,0.0413 0.197483,0.0378 0.197494,0.0345 0.201194,0.032 0.201186,0.0291 0.201185,0.0263 0.201187,0.0238 0.201184,0.0214 0.201196,0.0193 0.201183,0.0173 0.201188,0.0155 0.199393,0.0137 0.199393,0.0122 0.398791,0.0205 0.398779,0.0162 0.398781,0.0126 0.398577,0.01 0.398572,0.007 0.797145,0.01 1.658109,0.009 1.531325,0.002 1.722533,6.1e-4 1.466892,9e-5"
       style="opacity:1;vector-effect:none;fill:none;fill-opacity:1;stroke:#ab1f2d;stroke-width:0.24999997;stroke-linecap:butt;stroke-linejoin:round;stroke-miterlimit:10;stroke-dasharray:none;stroke-dashoffset:0;stroke-opacity:1"
       id="path13531"
       inkscape:connector-curvature="0" />
    <path
       d="m 51.208249,289.6583 2.158874,-6e-5 2.546446,-3.1e-4 2.463169,-0.001 2.242153,-0.006 2.308354,-0.0177 1.198485,-0.0196 0.599244,-0.0141 0.599242,-0.0179 0.648983,-0.0245 0.64897,-0.0311 0.648984,-0.0389 0.648973,-0.0482 0.527353,-0.0471 0.263682,-0.0265 0.263674,-0.0286 0.26368,-0.0308 0.263673,-0.0331 0.26368,-0.0356 0.263674,-0.0381 0.327757,-0.0511 0.327765,-0.0554 0.32776,-0.0598 0.327757,-0.0644 0.327768,-0.0692 0.327757,-0.074 0.327766,-0.079 0.327761,-0.084 0.2604,-0.0704 0.26041,-0.0735 0.520798,-0.15645 0.520813,-0.16872 0.52081,-0.18035 0.567416,-0.20861 0.567424,-0.21961 1.134837,-0.46322 1.217824,-0.51046 0.608912,-0.25001 0.608912,-0.24016 0.565404,-0.20986 0.282706,-0.0989 0.282709,-0.0943 0.282706,-0.0891 0.282706,-0.0836 0.282706,-0.0776 0.282698,-0.0712 0.152737,-0.0357 0.152725,-0.0337 0.152735,-0.0316 0.152728,-0.0294 0.152734,-0.0273 0.152726,-0.025 0.152725,-0.0227 0.152735,-0.0205 0.152725,-0.0182 0.152736,-0.0158 0.07637,-0.007 0.07637,-0.007 0.07636,-0.006 0.07637,-0.005 0.07637,-0.004 0.07636,-0.004 0.07637,-0.004 0.07637,-0.003 0.07636,-0.002 0.07637,-0.001 0.07637,-7.4e-4 0.07637,-3.1e-4 0.08201,3.1e-4 0.08202,7.4e-4 0.08202,0.001 0.08202,0.002 0.08202,0.003 0.08202,0.004 0.08201,0.004 0.08202,0.005 0.08202,0.006 0.08202,0.007 0.08201,0.007 0.08202,0.008 0.08202,0.009 0.08202,0.009 0.164029,0.0208 0.164021,0.0236 0.164029,0.0262 0.164029,0.0287 0.164021,0.0312 0.164029,0.0337 0.164021,0.0361 0.16403,0.0385 0.16403,0.0407 0.260108,0.0691 0.260116,0.0743 0.26011,0.0792 0.260116,0.0838 0.520216,0.17978 0.520235,0.19364 0.630808,0.24902 0.630815,0.25938 1.26162,0.52877 1.091033,0.44397 0.54553,0.21058 0.545511,0.20035 0.619081,0.2131 0.61908,0.19647 0.30954,0.0917 0.309544,0.0872 0.309536,0.0827 0.309536,0.0782 0.278623,0.0666 0.27863,0.063 0.278624,0.0595 0.278632,0.056 0.27863,0.0527 0.278623,0.0494 0.278621,0.0463 0.278631,0.0431 0.291351,0.042 0.291354,0.0389 0.29136,0.036 0.291351,0.0331 0.291352,0.0305 0.291354,0.0279 0.29135,0.0256 0.29135,0.0233 0.59363,0.0414 0.59361,0.034 0.59363,0.0276 0.59362,0.0222 0.58832,0.0176 0.58832,0.0139 1.17665,0.0195 2.35203,0.0183 2.44618,0.006 2.25916,0.001 2.54122,3e-4 2.1641,7e-5"
       style="opacity:1;vector-effect:none;fill:none;fill-opacity:1;stroke:#ab1f2d;stroke-width:0.24999997;stroke-linecap:butt;stroke-linejoin:round;stroke-miterlimit:10;stroke-dasharray:none;stroke-dashoffset:0;stroke-opacity:1"
       id="path13535"
       inkscape:connector-curvature="0" />
    <path
       d="m 62.486089,290.35173 v -1.17279"
       style="fill:#a05a2c;stroke:#262626;stroke-width:0.25;stroke-linecap:square;stroke-linejoin:round;stroke-miterlimit:10;stroke-dasharray:none;stroke-opacity:1"
       id="path13988"
       inkscape:connector-curvature="0" />
    <g
       id="g14415"
       style="fill-opacity:1;stroke:#000000;stroke-opacity:1"
       ns0:jacobian_sqrt="0.4"
       inkscapeversion="0.92.3"
       ns0:alignment="middle center"
       ns0:scale="2.83464566935"
       ns0:preamble="/home/phyps/Dropbox/Talks/1710 Bristol Colloquium teleportation/preamble.tex"
       ns0:text="$t=2$"
       ns0:pdfconverter="pdf2svg"
       ns0:texconverter="pdflatex"
       ns0:version="0.11.0"
       transform="matrix(0.4,0,0,0.4,3.4286366,226.52514)">
      <g
         style="fill-opacity:1;stroke:#000000;stroke-opacity:1"
         id="g14413">
        <g
           id="g14403"
           style="fill:#000000;fill-opacity:1;stroke:#000000;stroke-opacity:1">
          <path
             id="path14401"
             transform="translate(148.712,134.765)"
             d="m 2.046875,-3.984375 h 0.9375 c 0.203125,0 0.3125,0 0.3125,-0.203125 0,-0.109375 -0.109375,-0.109375 -0.28125,-0.109375 h -0.875 C 2.5,-5.71875 2.546875,-5.90625 2.546875,-5.96875 c 0,-0.171875 -0.125,-0.265625 -0.296875,-0.265625 -0.03125,0 -0.3125,0 -0.390625,0.359375 L 1.46875,-4.296875 h -0.9375 c -0.203125,0 -0.296875,0 -0.296875,0.1875 0,0.125 0.078125,0.125 0.28125,0.125 h 0.875 C 0.671875,-1.15625 0.625,-0.984375 0.625,-0.8125 0.625,-0.265625 1,0.109375 1.546875,0.109375 2.5625,0.109375 3.125,-1.34375 3.125,-1.421875 3.125,-1.53125 3.046875,-1.53125 3.015625,-1.53125 2.921875,-1.53125 2.90625,-1.5 2.859375,-1.390625 2.4375,-0.34375 1.90625,-0.109375 1.5625,-0.109375 c -0.203125,0 -0.3125,-0.125 -0.3125,-0.453125 0,-0.25 0.03125,-0.3125 0.0625,-0.484375 z m 0,0"
             style="fill-opacity:1;stroke:#000000;stroke-width:0;stroke-opacity:1"
             inkscape:connector-curvature="0" />
        </g>
        <g
           id="g14407"
           style="fill:#000000;fill-opacity:1;stroke:#000000;stroke-opacity:1">
          <path
             id="path14405"
             transform="translate(155.077,134.765)"
             d="m 6.84375,-3.265625 c 0.15625,0 0.34375,0 0.34375,-0.1875 C 7.1875,-3.65625 7,-3.65625 6.859375,-3.65625 h -5.96875 c -0.140625,0 -0.328125,0 -0.328125,0.203125 0,0.1875 0.1875,0.1875 0.328125,0.1875 z m 0.015625,1.9375 c 0.140625,0 0.328125,0 0.328125,-0.203125 0,-0.1875 -0.1875,-0.1875 -0.34375,-0.1875 H 0.890625 c -0.140625,0 -0.328125,0 -0.328125,0.1875 0,0.203125 0.1875,0.203125 0.328125,0.203125 z m 0,0"
             style="fill-opacity:1;stroke:#000000;stroke-width:0;stroke-opacity:1"
             inkscape:connector-curvature="0" />
        </g>
        <g
           id="g14411"
           style="fill:#000000;fill-opacity:1;stroke:#000000;stroke-opacity:1">
          <path
             id="path14409"
             transform="translate(165.59551,134.765)"
             d="m 1.265625,-0.765625 1.0625,-1.03125 c 1.546875,-1.375 2.140625,-1.90625 2.140625,-2.90625 0,-1.140625 -0.890625,-1.9375 -2.109375,-1.9375 -1.125,0 -1.859375,0.921875 -1.859375,1.8125 0,0.546875 0.5,0.546875 0.53125,0.546875 0.171875,0 0.515625,-0.109375 0.515625,-0.53125 0,-0.25 -0.1875,-0.515625 -0.53125,-0.515625 -0.078125,0 -0.09375,0 -0.125,0.015625 0.21875,-0.65625 0.765625,-1.015625 1.34375,-1.015625 0.90625,0 1.328125,0.8125 1.328125,1.625 C 3.5625,-3.90625 3.078125,-3.125 2.515625,-2.5 l -1.90625,2.125 C 0.5,-0.265625 0.5,-0.234375 0.5,0 H 4.203125 L 4.46875,-1.734375 H 4.234375 C 4.171875,-1.4375 4.109375,-1 4,-0.84375 3.9375,-0.765625 3.28125,-0.765625 3.0625,-0.765625 Z m 0,0"
             style="fill-opacity:1;stroke:#000000;stroke-width:0;stroke-opacity:1"
             inkscape:connector-curvature="0" />
        </g>
      </g>
    </g>
    <g
       transform="matrix(0.4 0 0 0.4 60.0924 291.31)"
       ns0:version="1.10.2"
       ns0:texconverter="pdflatex"
       ns0:pdfconverter="inkscape"
       ns0:text="$\\frac{2p_0}{M}$\n"
       ns0:preamble="C:\Users\phyps\AppData\Roaming\inkscape\extensions\textext\default_packages.tex"
       ns0:scale="2.83464566935"
       ns0:alignment="middle center"
       ns0:stroke-to-path="0"
       ns0:inkscapeversion="1.0.1"
       ns0:jacobian_sqrt="0.4"
       style="fill-opacity:1;stroke:#000000;stroke-opacity:1;stroke-width:0"
       id="g504">
      <defs
         id="id-ccba3adb-43f3-4005-be48-6b2bb9815029"
         style="fill-opacity:1;stroke:#000000;stroke-opacity:1;stroke-width:0">
        <g
           id="id-4a0f8111-6714-49cc-b805-f0b4ec70b0e4"
           style="fill-opacity:1;stroke:#000000;stroke-opacity:1;stroke-width:0">
          <g
             id="id-f0caa5d1-b734-4e96-b512-f2e85ea48a26"
             style="fill-opacity:1;stroke:#000000;stroke-opacity:1;stroke-width:0">
            <path
               d="M 3.515625,-1.265625 H 3.28125 c -0.015625,0.15625 -0.09375,0.5625 -0.1875,0.625 C 3.046875,-0.59375 2.515625,-0.59375 2.40625,-0.59375 H 1.125 c 0.734375,-0.640625 0.984375,-0.84375 1.390625,-1.171875 0.515625,-0.40625 1,-0.84375 1,-1.5 0,-0.84375 -0.734375,-1.359375 -1.625,-1.359375 -0.859375,0 -1.453125,0.609375 -1.453125,1.25 0,0.34375 0.296875,0.390625 0.375,0.390625 0.15625,0 0.359375,-0.125 0.359375,-0.375 0,-0.125 -0.046875,-0.375 -0.40625,-0.375 C 0.984375,-4.21875 1.453125,-4.375 1.78125,-4.375 c 0.703125,0 1.0625,0.546875 1.0625,1.109375 0,0.609375 -0.4375,1.078125 -0.65625,1.328125 L 0.515625,-0.265625 C 0.4375,-0.203125 0.4375,-0.1875 0.4375,0 h 2.875 z m 0,0"
               id="id-e2684d95-0832-434e-983b-30ba4ea738b1"
               style="fill-opacity:1;stroke:#000000;stroke-opacity:1;stroke-width:0" />
          </g>
          <g
             id="id-6473875c-5665-4a6f-895f-3b798a54cc49"
             style="fill-opacity:1;stroke:#000000;stroke-opacity:1;stroke-width:0">
            <path
               d="m 0.515625,0.84375 c -0.046875,0.203125 -0.0625,0.25 -0.328125,0.25 -0.09375,0 -0.1875,0 -0.1875,0.15625 0,0.078125 0.0625,0.109375 0.09375,0.109375 0.171875,0 0.40625,-0.03125 0.59375,-0.03125 0.234375,0 0.5,0.03125 0.734375,0.03125 0.0625,0 0.140625,-0.03125 0.140625,-0.15625 0,-0.109375 -0.09375,-0.109375 -0.1875,-0.109375 -0.15625,0 -0.34375,0 -0.34375,-0.078125 0,-0.03125 0.0625,-0.21875 0.078125,-0.3125 0.09375,-0.375 0.1875,-0.75 0.265625,-1.046875 0.078125,0.140625 0.296875,0.40625 0.71875,0.40625 0.84375,0 1.78125,-0.9375 1.78125,-1.96875 0,-0.8125 -0.5625,-1.171875 -1.03125,-1.171875 -0.4375,0 -0.8125,0.296875 -1,0.5 -0.109375,-0.40625 -0.5,-0.5 -0.71875,-0.5 -0.265625,0 -0.4375,0.1875 -0.546875,0.375 -0.140625,0.234375 -0.25,0.65625 -0.25,0.703125 0,0.078125 0.09375,0.078125 0.125,0.078125 0.09375,0 0.09375,-0.015625 0.140625,-0.203125 0.109375,-0.40625 0.25,-0.75 0.515625,-0.75 0.1875,0 0.234375,0.15625 0.234375,0.34375 0,0.078125 -0.015625,0.15625 -0.03125,0.203125 z M 1.84375,-2.234375 C 2.25,-2.78125 2.59375,-2.875 2.8125,-2.875 c 0.28125,0 0.515625,0.203125 0.515625,0.671875 0,0.28125 -0.15625,1 -0.359375,1.40625 -0.1875,0.34375 -0.515625,0.671875 -0.875,0.671875 -0.5,0 -0.625,-0.53125 -0.625,-0.609375 0,-0.03125 0.015625,-0.078125 0.015625,-0.109375 z m 0,0"
               id="id-8b523552-4bed-4655-9bb2-5823eeeb759e"
               style="fill-opacity:1;stroke:#000000;stroke-opacity:1;stroke-width:0" />
          </g>
          <g
             id="id-2a763adc-cb40-48d9-b781-e9dff6088e35"
             style="fill-opacity:1;stroke:#000000;stroke-opacity:1;stroke-width:0">
            <path
               d="m 7.109375,-4.1875 c 0.0625,-0.265625 0.078125,-0.328125 0.59375,-0.328125 0.15625,0 0.234375,0 0.234375,-0.140625 0,-0.109375 -0.078125,-0.109375 -0.203125,-0.109375 H 6.78125 c -0.203125,0 -0.203125,0.015625 -0.296875,0.140625 l -2.6875,3.984375 -0.6875,-3.9375 c -0.03125,-0.171875 -0.03125,-0.1875 -0.25,-0.1875 H 1.875 c -0.140625,0 -0.234375,0 -0.234375,0.15625 0,0.09375 0.078125,0.09375 0.234375,0.09375 0.109375,0 0.140625,0 0.265625,0.015625 0.140625,0.015625 0.15625,0.03125 0.15625,0.109375 0,0 0,0.046875 -0.03125,0.140625 l -0.875,3.5 c -0.0625,0.234375 -0.171875,0.484375 -0.734375,0.5 -0.046875,0 -0.140625,0 -0.140625,0.15625 0,0 0,0.09375 0.109375,0.09375 0.203125,0 0.5,-0.03125 0.71875,-0.03125 C 1.515625,-0.03125 1.921875,0 2.078125,0 2.125,0 2.21875,0 2.21875,-0.15625 2.21875,-0.25 2.125,-0.25 2.0625,-0.25 1.625,-0.265625 1.625,-0.453125 1.625,-0.546875 c 0,-0.03125 0,-0.0625 0.03125,-0.171875 l 0.921875,-3.703125 0.75,4.234375 C 3.359375,-0.0625 3.359375,0 3.46875,0 3.5625,0 3.625,-0.078125 3.671875,-0.15625 L 6.59375,-4.5 6.609375,-4.484375 5.625,-0.546875 C 5.5625,-0.3125 5.546875,-0.25 5.015625,-0.25 c -0.125,0 -0.21875,0 -0.21875,0.15625 0,0 0,0.09375 0.109375,0.09375 0.140625,0 0.296875,-0.015625 0.4375,-0.015625 0.140625,0 0.296875,-0.015625 0.4375,-0.015625 C 5.984375,-0.03125 6.46875,0 6.671875,0 6.703125,0 6.8125,0 6.8125,-0.15625 6.8125,-0.25 6.734375,-0.25 6.59375,-0.25 c -0.015625,0 -0.140625,0 -0.265625,-0.015625 -0.15625,-0.015625 -0.15625,-0.03125 -0.15625,-0.109375 0,-0.03125 0.015625,-0.109375 0.015625,-0.140625 z m 0,0"
               id="id-f204aaa9-ea3c-432d-8db6-dda8a374f77b"
               style="fill-opacity:1;stroke:#000000;stroke-opacity:1;stroke-width:0" />
          </g>
          <g
             id="id-a9d6366d-8dd4-4b9a-895d-8a4e847d5c73"
             style="fill-opacity:1;stroke:#000000;stroke-opacity:1;stroke-width:0">
            <path
               d="M 3,-1.59375 C 3,-1.953125 3,-3.3125 1.6875,-3.3125 c -1.296875,0 -1.296875,1.359375 -1.296875,1.71875 0,0.359375 0,1.703125 1.296875,1.703125 C 3,0.109375 3,-1.234375 3,-1.59375 Z M 1.6875,-0.0625 C 1.515625,-0.0625 1.09375,-0.125 0.96875,-0.625 0.890625,-0.890625 0.890625,-1.25 0.890625,-1.65625 c 0,-0.375 0,-0.71875 0.078125,-1 0.125,-0.421875 0.515625,-0.5 0.71875,-0.5 0.375,0 0.640625,0.1875 0.734375,0.546875 C 2.5,-2.359375 2.5,-1.953125 2.5,-1.65625 c 0,0.34375 0,0.75 -0.078125,1.046875 C 2.296875,-0.125 1.890625,-0.0625 1.6875,-0.0625 Z m 0,0"
               id="id-2871ab65-de29-4ef2-9fc2-bc71659236f5"
               style="fill-opacity:1;stroke:#000000;stroke-opacity:1;stroke-width:0" />
          </g>
        </g>
      </defs>
      <g
         fill="#000000"
         fill-opacity="1"
         id="id-a64452c6-eba9-4468-b498-db8c65c83e26"
         transform="translate(-149.906, -125.695)"
         style="fill-opacity:1;stroke:#000000;stroke-opacity:1;stroke-width:0">
        <g
           transform="translate(149.908, 130.32)"
           style="fill-opacity:1;stroke:#000000;stroke-opacity:1;stroke-width:0"
           id="g4">
          <path
             d="M 3.515625,-1.265625 H 3.28125 c -0.015625,0.15625 -0.09375,0.5625 -0.1875,0.625 C 3.046875,-0.59375 2.515625,-0.59375 2.40625,-0.59375 H 1.125 c 0.734375,-0.640625 0.984375,-0.84375 1.390625,-1.171875 0.515625,-0.40625 1,-0.84375 1,-1.5 0,-0.84375 -0.734375,-1.359375 -1.625,-1.359375 -0.859375,0 -1.453125,0.609375 -1.453125,1.25 0,0.34375 0.296875,0.390625 0.375,0.390625 0.15625,0 0.359375,-0.125 0.359375,-0.375 0,-0.125 -0.046875,-0.375 -0.40625,-0.375 C 0.984375,-4.21875 1.453125,-4.375 1.78125,-4.375 c 0.703125,0 1.0625,0.546875 1.0625,1.109375 0,0.609375 -0.4375,1.078125 -0.65625,1.328125 L 0.515625,-0.265625 C 0.4375,-0.203125 0.4375,-0.1875 0.4375,0 h 2.875 z m 0,0"
             id="id-2a4a09a5-cdf1-4cf0-a966-169c202eef89"
             style="fill-opacity:1;stroke:#000000;stroke-opacity:1;stroke-width:0" />
        </g>
      </g>
      <g
         fill="#000000"
         fill-opacity="1"
         id="id-2b7a0ef7-acbc-4edc-b185-a338e38b08a5"
         transform="translate(-149.906, -125.695)"
         style="fill-opacity:1;stroke:#000000;stroke-opacity:1;stroke-width:0">
        <g
           transform="translate(153.879, 130.32)"
           style="fill-opacity:1;stroke:#000000;stroke-opacity:1;stroke-width:0"
           id="g5">
          <path
             d="m 0.515625,0.84375 c -0.046875,0.203125 -0.0625,0.25 -0.328125,0.25 -0.09375,0 -0.1875,0 -0.1875,0.15625 0,0.078125 0.0625,0.109375 0.09375,0.109375 0.171875,0 0.40625,-0.03125 0.59375,-0.03125 0.234375,0 0.5,0.03125 0.734375,0.03125 0.0625,0 0.140625,-0.03125 0.140625,-0.15625 0,-0.109375 -0.09375,-0.109375 -0.1875,-0.109375 -0.15625,0 -0.34375,0 -0.34375,-0.078125 0,-0.03125 0.0625,-0.21875 0.078125,-0.3125 0.09375,-0.375 0.1875,-0.75 0.265625,-1.046875 0.078125,0.140625 0.296875,0.40625 0.71875,0.40625 0.84375,0 1.78125,-0.9375 1.78125,-1.96875 0,-0.8125 -0.5625,-1.171875 -1.03125,-1.171875 -0.4375,0 -0.8125,0.296875 -1,0.5 -0.109375,-0.40625 -0.5,-0.5 -0.71875,-0.5 -0.265625,0 -0.4375,0.1875 -0.546875,0.375 -0.140625,0.234375 -0.25,0.65625 -0.25,0.703125 0,0.078125 0.09375,0.078125 0.125,0.078125 0.09375,0 0.09375,-0.015625 0.140625,-0.203125 0.109375,-0.40625 0.25,-0.75 0.515625,-0.75 0.1875,0 0.234375,0.15625 0.234375,0.34375 0,0.078125 -0.015625,0.15625 -0.03125,0.203125 z M 1.84375,-2.234375 C 2.25,-2.78125 2.59375,-2.875 2.8125,-2.875 c 0.28125,0 0.515625,0.203125 0.515625,0.671875 0,0.28125 -0.15625,1 -0.359375,1.40625 -0.1875,0.34375 -0.515625,0.671875 -0.875,0.671875 -0.5,0 -0.625,-0.53125 -0.625,-0.609375 0,-0.03125 0.015625,-0.078125 0.015625,-0.109375 z m 0,0"
             id="id-e6fea976-8207-480e-881c-07f61dc0742f"
             style="fill-opacity:1;stroke:#000000;stroke-opacity:1;stroke-width:0" />
        </g>
      </g>
      <g
         fill="#000000"
         fill-opacity="1"
         id="id-373fb5c5-30be-4173-bc03-ef59b4757a47"
         transform="translate(-149.906, -125.695)"
         style="fill-opacity:1;stroke:#000000;stroke-opacity:1;stroke-width:0">
        <g
           transform="translate(157.986, 131.316)"
           style="fill-opacity:1;stroke:#000000;stroke-opacity:1;stroke-width:0"
           id="g6">
          <path
             d="M 3,-1.59375 C 3,-1.953125 3,-3.3125 1.6875,-3.3125 c -1.296875,0 -1.296875,1.359375 -1.296875,1.71875 0,0.359375 0,1.703125 1.296875,1.703125 C 3,0.109375 3,-1.234375 3,-1.59375 Z M 1.6875,-0.0625 C 1.515625,-0.0625 1.09375,-0.125 0.96875,-0.625 0.890625,-0.890625 0.890625,-1.25 0.890625,-1.65625 c 0,-0.375 0,-0.71875 0.078125,-1 0.125,-0.421875 0.515625,-0.5 0.71875,-0.5 0.375,0 0.640625,0.1875 0.734375,0.546875 C 2.5,-2.359375 2.5,-1.953125 2.5,-1.65625 c 0,0.34375 0,0.75 -0.078125,1.046875 C 2.296875,-0.125 1.890625,-0.0625 1.6875,-0.0625 Z m 0,0"
             id="id-ddccdd09-057c-478a-a7ba-38af1c0bd6b4"
             style="fill-opacity:1;stroke:#000000;stroke-opacity:1;stroke-width:0" />
        </g>
      </g>
      <path
         fill="none"
         stroke-width="0.398"
         stroke-linecap="butt"
         stroke-linejoin="miter"
         stroke-opacity="1"
         stroke-miterlimit="10"
         d="M 0,6.5784302 H 11.96875"
         id="id-6240a02f-681c-4239-8380-af13aafd2120"
         style="fill-opacity:1;stroke:#000000;stroke-opacity:1;stroke-width:0" />
      <g
         fill="#000000"
         fill-opacity="1"
         id="id-352d9f60-4476-4a16-9bc6-974a2fe60a61"
         transform="translate(-149.906, -125.695)"
         style="fill-opacity:1;stroke:#000000;stroke-opacity:1;stroke-width:0">
        <g
           transform="translate(151.719, 138.2)"
           style="fill-opacity:1;stroke:#000000;stroke-opacity:1;stroke-width:0"
           id="g7">
          <path
             d="m 7.109375,-4.1875 c 0.0625,-0.265625 0.078125,-0.328125 0.59375,-0.328125 0.15625,0 0.234375,0 0.234375,-0.140625 0,-0.109375 -0.078125,-0.109375 -0.203125,-0.109375 H 6.78125 c -0.203125,0 -0.203125,0.015625 -0.296875,0.140625 l -2.6875,3.984375 -0.6875,-3.9375 c -0.03125,-0.171875 -0.03125,-0.1875 -0.25,-0.1875 H 1.875 c -0.140625,0 -0.234375,0 -0.234375,0.15625 0,0.09375 0.078125,0.09375 0.234375,0.09375 0.109375,0 0.140625,0 0.265625,0.015625 0.140625,0.015625 0.15625,0.03125 0.15625,0.109375 0,0 0,0.046875 -0.03125,0.140625 l -0.875,3.5 c -0.0625,0.234375 -0.171875,0.484375 -0.734375,0.5 -0.046875,0 -0.140625,0 -0.140625,0.15625 0,0 0,0.09375 0.109375,0.09375 0.203125,0 0.5,-0.03125 0.71875,-0.03125 C 1.515625,-0.03125 1.921875,0 2.078125,0 2.125,0 2.21875,0 2.21875,-0.15625 2.21875,-0.25 2.125,-0.25 2.0625,-0.25 1.625,-0.265625 1.625,-0.453125 1.625,-0.546875 c 0,-0.03125 0,-0.0625 0.03125,-0.171875 l 0.921875,-3.703125 0.75,4.234375 C 3.359375,-0.0625 3.359375,0 3.46875,0 3.5625,0 3.625,-0.078125 3.671875,-0.15625 L 6.59375,-4.5 6.609375,-4.484375 5.625,-0.546875 C 5.5625,-0.3125 5.546875,-0.25 5.015625,-0.25 c -0.125,0 -0.21875,0 -0.21875,0.15625 0,0 0,0.09375 0.109375,0.09375 0.140625,0 0.296875,-0.015625 0.4375,-0.015625 0.140625,0 0.296875,-0.015625 0.4375,-0.015625 C 5.984375,-0.03125 6.46875,0 6.671875,0 6.703125,0 6.8125,0 6.8125,-0.15625 6.8125,-0.25 6.734375,-0.25 6.59375,-0.25 c -0.015625,0 -0.140625,0 -0.265625,-0.015625 -0.15625,-0.015625 -0.15625,-0.03125 -0.15625,-0.109375 0,-0.03125 0.015625,-0.109375 0.015625,-0.140625 z m 0,0"
             id="id-95190ef3-3d43-4a73-a6e4-2142232f2c7a"
             style="fill-opacity:1;stroke:#000000;stroke-opacity:1;stroke-width:0" />
        </g>
      </g>
    </g>
    <g
       transform="matrix(0.4 0 0 0.4 81.7519 291.31)"
       ns0:version="1.10.2"
       ns0:texconverter="pdflatex"
       ns0:pdfconverter="inkscape"
       ns0:text="$\\frac{3p_0}{M}$\n"
       ns0:preamble="C:\Users\phyps\AppData\Roaming\inkscape\extensions\textext\default_packages.tex"
       ns0:scale="2.83464566935"
       ns0:alignment="middle center"
       ns0:stroke-to-path="0"
       ns0:inkscapeversion="1.0.1"
       ns0:jacobian_sqrt="0.4"
       style="fill-opacity:1;stroke:#000000;stroke-opacity:1;stroke-width:0"
       id="g754">
      <defs
         id="id-09ab2866-e80b-4db8-89b7-9f6f2d6182b3"
         style="fill-opacity:1;stroke:#000000;stroke-opacity:1;stroke-width:0">
        <g
           id="id-e4579ffa-166a-43d7-968e-2382d5fa5b38"
           style="fill-opacity:1;stroke:#000000;stroke-opacity:1;stroke-width:0">
          <g
             id="id-0acc8dd7-f54c-4394-a2ed-ec28693a84ea"
             style="fill-opacity:1;stroke:#000000;stroke-opacity:1;stroke-width:0">
            <path
               d="m 1.90625,-2.328125 c 0.546875,0 0.9375,0.375 0.9375,1.125 0,0.859375 -0.515625,1.125 -0.90625,1.125 -0.28125,0 -0.90625,-0.078125 -1.1875,-0.5 0.328125,0 0.40625,-0.234375 0.40625,-0.390625 0,-0.21875 -0.171875,-0.375 -0.390625,-0.375 -0.1875,0 -0.390625,0.125 -0.390625,0.40625 0,0.65625 0.71875,1.078125 1.5625,1.078125 0.96875,0 1.640625,-0.65625 1.640625,-1.34375 0,-0.546875 -0.4375,-1.09375 -1.203125,-1.25 0.71875,-0.265625 0.984375,-0.78125 0.984375,-1.21875 0,-0.546875 -0.625,-0.953125 -1.40625,-0.953125 -0.765625,0 -1.359375,0.375 -1.359375,0.9375 0,0.234375 0.15625,0.359375 0.359375,0.359375 0.21875,0 0.359375,-0.15625 0.359375,-0.34375 0,-0.203125 -0.140625,-0.359375 -0.359375,-0.375 0.25,-0.296875 0.71875,-0.375 0.984375,-0.375 0.3125,0 0.75,0.15625 0.75,0.75 0,0.296875 -0.09375,0.625 -0.28125,0.828125 -0.21875,0.265625 -0.421875,0.28125 -0.765625,0.3125 -0.171875,0.015625 -0.1875,0.015625 -0.21875,0.015625 -0.015625,0 -0.078125,0.015625 -0.078125,0.09375 0,0.09375 0.0625,0.09375 0.1875,0.09375 z m 0,0"
               id="id-ba1db2e3-fc19-4295-a3b4-5c58c269f608"
               style="fill-opacity:1;stroke:#000000;stroke-opacity:1;stroke-width:0" />
          </g>
          <g
             id="id-6609cf7d-f3d3-4ece-a6a1-6fb0f6894381"
             style="fill-opacity:1;stroke:#000000;stroke-opacity:1;stroke-width:0">
            <path
               d="m 0.515625,0.84375 c -0.046875,0.203125 -0.0625,0.25 -0.328125,0.25 -0.09375,0 -0.1875,0 -0.1875,0.15625 0,0.078125 0.0625,0.109375 0.09375,0.109375 0.171875,0 0.40625,-0.03125 0.59375,-0.03125 0.234375,0 0.5,0.03125 0.734375,0.03125 0.0625,0 0.140625,-0.03125 0.140625,-0.15625 0,-0.109375 -0.09375,-0.109375 -0.1875,-0.109375 -0.15625,0 -0.34375,0 -0.34375,-0.078125 0,-0.03125 0.0625,-0.21875 0.078125,-0.3125 0.09375,-0.375 0.1875,-0.75 0.265625,-1.046875 0.078125,0.140625 0.296875,0.40625 0.71875,0.40625 0.84375,0 1.78125,-0.9375 1.78125,-1.96875 0,-0.8125 -0.5625,-1.171875 -1.03125,-1.171875 -0.4375,0 -0.8125,0.296875 -1,0.5 -0.109375,-0.40625 -0.5,-0.5 -0.71875,-0.5 -0.265625,0 -0.4375,0.1875 -0.546875,0.375 -0.140625,0.234375 -0.25,0.65625 -0.25,0.703125 0,0.078125 0.09375,0.078125 0.125,0.078125 0.09375,0 0.09375,-0.015625 0.140625,-0.203125 0.109375,-0.40625 0.25,-0.75 0.515625,-0.75 0.1875,0 0.234375,0.15625 0.234375,0.34375 0,0.078125 -0.015625,0.15625 -0.03125,0.203125 z M 1.84375,-2.234375 C 2.25,-2.78125 2.59375,-2.875 2.8125,-2.875 c 0.28125,0 0.515625,0.203125 0.515625,0.671875 0,0.28125 -0.15625,1 -0.359375,1.40625 -0.1875,0.34375 -0.515625,0.671875 -0.875,0.671875 -0.5,0 -0.625,-0.53125 -0.625,-0.609375 0,-0.03125 0.015625,-0.078125 0.015625,-0.109375 z m 0,0"
               id="id-fb5eb15b-f987-4d39-b9c8-3b3ee5c59d62"
               style="fill-opacity:1;stroke:#000000;stroke-opacity:1;stroke-width:0" />
          </g>
          <g
             id="id-9e1c228f-c187-42f7-8c08-2c5ba396dafd"
             style="fill-opacity:1;stroke:#000000;stroke-opacity:1;stroke-width:0">
            <path
               d="m 7.109375,-4.1875 c 0.0625,-0.265625 0.078125,-0.328125 0.59375,-0.328125 0.15625,0 0.234375,0 0.234375,-0.140625 0,-0.109375 -0.078125,-0.109375 -0.203125,-0.109375 H 6.78125 c -0.203125,0 -0.203125,0.015625 -0.296875,0.140625 l -2.6875,3.984375 -0.6875,-3.9375 c -0.03125,-0.171875 -0.03125,-0.1875 -0.25,-0.1875 H 1.875 c -0.140625,0 -0.234375,0 -0.234375,0.15625 0,0.09375 0.078125,0.09375 0.234375,0.09375 0.109375,0 0.140625,0 0.265625,0.015625 0.140625,0.015625 0.15625,0.03125 0.15625,0.109375 0,0 0,0.046875 -0.03125,0.140625 l -0.875,3.5 c -0.0625,0.234375 -0.171875,0.484375 -0.734375,0.5 -0.046875,0 -0.140625,0 -0.140625,0.15625 0,0 0,0.09375 0.109375,0.09375 0.203125,0 0.5,-0.03125 0.71875,-0.03125 C 1.515625,-0.03125 1.921875,0 2.078125,0 2.125,0 2.21875,0 2.21875,-0.15625 2.21875,-0.25 2.125,-0.25 2.0625,-0.25 1.625,-0.265625 1.625,-0.453125 1.625,-0.546875 c 0,-0.03125 0,-0.0625 0.03125,-0.171875 l 0.921875,-3.703125 0.75,4.234375 C 3.359375,-0.0625 3.359375,0 3.46875,0 3.5625,0 3.625,-0.078125 3.671875,-0.15625 L 6.59375,-4.5 6.609375,-4.484375 5.625,-0.546875 C 5.5625,-0.3125 5.546875,-0.25 5.015625,-0.25 c -0.125,0 -0.21875,0 -0.21875,0.15625 0,0 0,0.09375 0.109375,0.09375 0.140625,0 0.296875,-0.015625 0.4375,-0.015625 0.140625,0 0.296875,-0.015625 0.4375,-0.015625 C 5.984375,-0.03125 6.46875,0 6.671875,0 6.703125,0 6.8125,0 6.8125,-0.15625 6.8125,-0.25 6.734375,-0.25 6.59375,-0.25 c -0.015625,0 -0.140625,0 -0.265625,-0.015625 -0.15625,-0.015625 -0.15625,-0.03125 -0.15625,-0.109375 0,-0.03125 0.015625,-0.109375 0.015625,-0.140625 z m 0,0"
               id="id-ccdc5697-2a64-4480-b6b5-827e17d57560"
               style="fill-opacity:1;stroke:#000000;stroke-opacity:1;stroke-width:0" />
          </g>
          <g
             id="id-a0d772f0-ecb2-4327-998a-83d585ae8df2"
             style="fill-opacity:1;stroke:#000000;stroke-opacity:1;stroke-width:0">
            <path
               d="M 3,-1.59375 C 3,-1.953125 3,-3.3125 1.6875,-3.3125 c -1.296875,0 -1.296875,1.359375 -1.296875,1.71875 0,0.359375 0,1.703125 1.296875,1.703125 C 3,0.109375 3,-1.234375 3,-1.59375 Z M 1.6875,-0.0625 C 1.515625,-0.0625 1.09375,-0.125 0.96875,-0.625 0.890625,-0.890625 0.890625,-1.25 0.890625,-1.65625 c 0,-0.375 0,-0.71875 0.078125,-1 0.125,-0.421875 0.515625,-0.5 0.71875,-0.5 0.375,0 0.640625,0.1875 0.734375,0.546875 C 2.5,-2.359375 2.5,-1.953125 2.5,-1.65625 c 0,0.34375 0,0.75 -0.078125,1.046875 C 2.296875,-0.125 1.890625,-0.0625 1.6875,-0.0625 Z m 0,0"
               id="id-07cb15e8-8a69-48e5-8641-ce6c2d2998fc"
               style="fill-opacity:1;stroke:#000000;stroke-opacity:1;stroke-width:0" />
          </g>
        </g>
      </defs>
      <g
         fill="#000000"
         fill-opacity="1"
         id="id-a17ea383-985f-4b92-b99d-155087eb7270"
         transform="translate(-149.906, -125.695)"
         style="fill-opacity:1;stroke:#000000;stroke-opacity:1;stroke-width:0">
        <g
           transform="translate(149.908, 130.32)"
           style="fill-opacity:1;stroke:#000000;stroke-opacity:1;stroke-width:0"
           id="g8">
          <path
             d="m 1.90625,-2.328125 c 0.546875,0 0.9375,0.375 0.9375,1.125 0,0.859375 -0.515625,1.125 -0.90625,1.125 -0.28125,0 -0.90625,-0.078125 -1.1875,-0.5 0.328125,0 0.40625,-0.234375 0.40625,-0.390625 0,-0.21875 -0.171875,-0.375 -0.390625,-0.375 -0.1875,0 -0.390625,0.125 -0.390625,0.40625 0,0.65625 0.71875,1.078125 1.5625,1.078125 0.96875,0 1.640625,-0.65625 1.640625,-1.34375 0,-0.546875 -0.4375,-1.09375 -1.203125,-1.25 0.71875,-0.265625 0.984375,-0.78125 0.984375,-1.21875 0,-0.546875 -0.625,-0.953125 -1.40625,-0.953125 -0.765625,0 -1.359375,0.375 -1.359375,0.9375 0,0.234375 0.15625,0.359375 0.359375,0.359375 0.21875,0 0.359375,-0.15625 0.359375,-0.34375 0,-0.203125 -0.140625,-0.359375 -0.359375,-0.375 0.25,-0.296875 0.71875,-0.375 0.984375,-0.375 0.3125,0 0.75,0.15625 0.75,0.75 0,0.296875 -0.09375,0.625 -0.28125,0.828125 -0.21875,0.265625 -0.421875,0.28125 -0.765625,0.3125 -0.171875,0.015625 -0.1875,0.015625 -0.21875,0.015625 -0.015625,0 -0.078125,0.015625 -0.078125,0.09375 0,0.09375 0.0625,0.09375 0.1875,0.09375 z m 0,0"
             id="id-fbea9b95-f654-461f-9a44-ca532d31c0e4"
             style="fill-opacity:1;stroke:#000000;stroke-opacity:1;stroke-width:0" />
        </g>
      </g>
      <g
         fill="#000000"
         fill-opacity="1"
         id="id-38e2bad9-9f4d-4155-a617-9b736a8fe738"
         transform="translate(-149.906, -125.695)"
         style="fill-opacity:1;stroke:#000000;stroke-opacity:1;stroke-width:0">
        <g
           transform="translate(153.879, 130.32)"
           style="fill-opacity:1;stroke:#000000;stroke-opacity:1;stroke-width:0"
           id="g9">
          <path
             d="m 0.515625,0.84375 c -0.046875,0.203125 -0.0625,0.25 -0.328125,0.25 -0.09375,0 -0.1875,0 -0.1875,0.15625 0,0.078125 0.0625,0.109375 0.09375,0.109375 0.171875,0 0.40625,-0.03125 0.59375,-0.03125 0.234375,0 0.5,0.03125 0.734375,0.03125 0.0625,0 0.140625,-0.03125 0.140625,-0.15625 0,-0.109375 -0.09375,-0.109375 -0.1875,-0.109375 -0.15625,0 -0.34375,0 -0.34375,-0.078125 0,-0.03125 0.0625,-0.21875 0.078125,-0.3125 0.09375,-0.375 0.1875,-0.75 0.265625,-1.046875 0.078125,0.140625 0.296875,0.40625 0.71875,0.40625 0.84375,0 1.78125,-0.9375 1.78125,-1.96875 0,-0.8125 -0.5625,-1.171875 -1.03125,-1.171875 -0.4375,0 -0.8125,0.296875 -1,0.5 -0.109375,-0.40625 -0.5,-0.5 -0.71875,-0.5 -0.265625,0 -0.4375,0.1875 -0.546875,0.375 -0.140625,0.234375 -0.25,0.65625 -0.25,0.703125 0,0.078125 0.09375,0.078125 0.125,0.078125 0.09375,0 0.09375,-0.015625 0.140625,-0.203125 0.109375,-0.40625 0.25,-0.75 0.515625,-0.75 0.1875,0 0.234375,0.15625 0.234375,0.34375 0,0.078125 -0.015625,0.15625 -0.03125,0.203125 z M 1.84375,-2.234375 C 2.25,-2.78125 2.59375,-2.875 2.8125,-2.875 c 0.28125,0 0.515625,0.203125 0.515625,0.671875 0,0.28125 -0.15625,1 -0.359375,1.40625 -0.1875,0.34375 -0.515625,0.671875 -0.875,0.671875 -0.5,0 -0.625,-0.53125 -0.625,-0.609375 0,-0.03125 0.015625,-0.078125 0.015625,-0.109375 z m 0,0"
             id="id-2baccf43-db3b-4730-9407-44f71238c23f"
             style="fill-opacity:1;stroke:#000000;stroke-opacity:1;stroke-width:0" />
        </g>
      </g>
      <g
         fill="#000000"
         fill-opacity="1"
         id="id-4ade99f1-92a7-4ecf-ad4c-e1cf0c082bd2"
         transform="translate(-149.906, -125.695)"
         style="fill-opacity:1;stroke:#000000;stroke-opacity:1;stroke-width:0">
        <g
           transform="translate(157.986, 131.316)"
           style="fill-opacity:1;stroke:#000000;stroke-opacity:1;stroke-width:0"
           id="g10">
          <path
             d="M 3,-1.59375 C 3,-1.953125 3,-3.3125 1.6875,-3.3125 c -1.296875,0 -1.296875,1.359375 -1.296875,1.71875 0,0.359375 0,1.703125 1.296875,1.703125 C 3,0.109375 3,-1.234375 3,-1.59375 Z M 1.6875,-0.0625 C 1.515625,-0.0625 1.09375,-0.125 0.96875,-0.625 0.890625,-0.890625 0.890625,-1.25 0.890625,-1.65625 c 0,-0.375 0,-0.71875 0.078125,-1 0.125,-0.421875 0.515625,-0.5 0.71875,-0.5 0.375,0 0.640625,0.1875 0.734375,0.546875 C 2.5,-2.359375 2.5,-1.953125 2.5,-1.65625 c 0,0.34375 0,0.75 -0.078125,1.046875 C 2.296875,-0.125 1.890625,-0.0625 1.6875,-0.0625 Z m 0,0"
             id="id-5201fbe3-0cd4-4c5b-a77d-0ca716e9d2af"
             style="fill-opacity:1;stroke:#000000;stroke-opacity:1;stroke-width:0" />
        </g>
      </g>
      <path
         fill="none"
         stroke-width="0.398"
         stroke-linecap="butt"
         stroke-linejoin="miter"
         stroke-opacity="1"
         stroke-miterlimit="10"
         d="M 0,6.5784302 H 11.96875"
         id="id-9e647444-6021-4b5f-8b26-aca56cc451d4"
         style="fill-opacity:1;stroke:#000000;stroke-opacity:1;stroke-width:0" />
      <g
         fill="#000000"
         fill-opacity="1"
         id="id-b7a0c8c8-5cb6-48f5-a714-cfc997b1dada"
         transform="translate(-149.906, -125.695)"
         style="fill-opacity:1;stroke:#000000;stroke-opacity:1;stroke-width:0">
        <g
           transform="translate(151.719, 138.2)"
           style="fill-opacity:1;stroke:#000000;stroke-opacity:1;stroke-width:0"
           id="g11">
          <path
             d="m 7.109375,-4.1875 c 0.0625,-0.265625 0.078125,-0.328125 0.59375,-0.328125 0.15625,0 0.234375,0 0.234375,-0.140625 0,-0.109375 -0.078125,-0.109375 -0.203125,-0.109375 H 6.78125 c -0.203125,0 -0.203125,0.015625 -0.296875,0.140625 l -2.6875,3.984375 -0.6875,-3.9375 c -0.03125,-0.171875 -0.03125,-0.1875 -0.25,-0.1875 H 1.875 c -0.140625,0 -0.234375,0 -0.234375,0.15625 0,0.09375 0.078125,0.09375 0.234375,0.09375 0.109375,0 0.140625,0 0.265625,0.015625 0.140625,0.015625 0.15625,0.03125 0.15625,0.109375 0,0 0,0.046875 -0.03125,0.140625 l -0.875,3.5 c -0.0625,0.234375 -0.171875,0.484375 -0.734375,0.5 -0.046875,0 -0.140625,0 -0.140625,0.15625 0,0 0,0.09375 0.109375,0.09375 0.203125,0 0.5,-0.03125 0.71875,-0.03125 C 1.515625,-0.03125 1.921875,0 2.078125,0 2.125,0 2.21875,0 2.21875,-0.15625 2.21875,-0.25 2.125,-0.25 2.0625,-0.25 1.625,-0.265625 1.625,-0.453125 1.625,-0.546875 c 0,-0.03125 0,-0.0625 0.03125,-0.171875 l 0.921875,-3.703125 0.75,4.234375 C 3.359375,-0.0625 3.359375,0 3.46875,0 3.5625,0 3.625,-0.078125 3.671875,-0.15625 L 6.59375,-4.5 6.609375,-4.484375 5.625,-0.546875 C 5.5625,-0.3125 5.546875,-0.25 5.015625,-0.25 c -0.125,0 -0.21875,0 -0.21875,0.15625 0,0 0,0.09375 0.109375,0.09375 0.140625,0 0.296875,-0.015625 0.4375,-0.015625 0.140625,0 0.296875,-0.015625 0.4375,-0.015625 C 5.984375,-0.03125 6.46875,0 6.671875,0 6.703125,0 6.8125,0 6.8125,-0.15625 6.8125,-0.25 6.734375,-0.25 6.59375,-0.25 c -0.015625,0 -0.140625,0 -0.265625,-0.015625 -0.15625,-0.015625 -0.15625,-0.03125 -0.15625,-0.109375 0,-0.03125 0.015625,-0.109375 0.015625,-0.140625 z m 0,0"
             id="id-dbf82f9e-5737-4850-9145-450eb919bb9a"
             style="fill-opacity:1;stroke:#000000;stroke-opacity:1;stroke-width:0" />
        </g>
      </g>
    </g>
    <g
       transform="matrix(0.4 0 0 0.4 3.15873 258.496)"
       ns0:version="1.10.2"
       ns0:texconverter="pdflatex"
       ns0:pdfconverter="inkscape"
       ns0:text="$\\wp(x,t)$"
       ns0:preamble="C:\Users\phyps\AppData\Roaming\inkscape\extensions\textext\default_packages.tex"
       ns0:scale="2.83464566935"
       ns0:alignment="middle center"
       ns0:stroke-to-path="0"
       ns0:inkscapeversion="1.0.1"
       ns0:jacobian_sqrt="0.4"
       style="fill-opacity:1;stroke:#000000;stroke-opacity:1;stroke-width:0"
       id="g8720">
      <defs
         id="id-33ef9dff-9168-4ba2-95d7-6de6f95ae828"
         style="fill-opacity:1;stroke:#000000;stroke-opacity:1;stroke-width:0">
        <g
           id="id-f2546660-3bdd-4d50-af56-13226813d1d0"
           style="fill-opacity:1;stroke:#000000;stroke-opacity:1;stroke-width:0">
          <g
             id="id-ffe20219-962d-46e1-90e9-6e20168910d8"
             style="fill-opacity:1;stroke:#000000;stroke-opacity:1;stroke-width:0">
            <path
               d="M 1.6875,-1.21875 C 2.75,-3.515625 4.171875,-3.875 4.828125,-3.875 c 0.546875,0 0.71875,0.484375 0.71875,0.96875 0,0.515625 -0.25,1.4375 -0.46875,1.859375 -0.40625,0.734375 -0.90625,0.9375 -1.203125,0.9375 -0.234375,0 -0.640625,-0.109375 -0.65625,-0.640625 0.234375,-0.046875 0.234375,-0.234375 0.234375,-0.25 0,-0.015625 -0.03125,-0.171875 -0.203125,-0.171875 -0.234375,0 -0.28125,0.28125 -0.28125,0.4375 0,0.453125 0.34375,0.84375 0.90625,0.84375 1.125,0 2.28125,-1.359375 2.28125,-2.6875 0,-0.78125 -0.4375,-1.515625 -1.3125,-1.515625 -0.828125,0 -2.21875,0.46875 -3.328125,2.65625 C 1.28125,-1.671875 1.28125,-1.984375 1.28125,-2.125 c 0,-0.859375 0.546875,-2.078125 1.15625,-2.171875 0.078125,-0.015625 0.140625,-0.015625 0.140625,-0.125 0,-0.09375 -0.09375,-0.09375 -0.125,-0.09375 -0.71875,0 -1.625,1.359375 -1.625,2.671875 0,0.578125 0.15625,0.765625 0.40625,1.0625 C 1,-0.15625 0.75,0.890625 0.75,1.34375 c 0,0.4375 0.171875,0.8125 0.671875,0.8125 0.65625,0 1.3125,-0.859375 1.3125,-1.640625 0,-0.390625 -0.09375,-0.5 -0.4375,-0.9375 C 2.15625,-0.609375 1.8125,-1.03125 1.6875,-1.21875 Z m 0.453125,1.609375 c 0.109375,0.140625 0.125,0.25 0.125,0.40625 0,0.5625 -0.4375,1.140625 -0.84375,1.140625 C 1,1.9375 1,1.546875 1,1.34375 1,0.828125 1.265625,-0.078125 1.40625,-0.546875 Z m 0,0"
               id="id-5e524843-a3d0-4405-89c2-c08d305bde44"
               style="fill-opacity:1;stroke:#000000;stroke-opacity:1;stroke-width:0" />
          </g>
          <g
             id="id-eb0618e2-941e-4018-857c-999c10d6ccec"
             style="fill-opacity:1;stroke:#000000;stroke-opacity:1;stroke-width:0">
            <path
               d="M 3.328125,-3.015625 C 3.390625,-3.265625 3.625,-4.1875 4.3125,-4.1875 c 0.046875,0 0.296875,0 0.5,0.125 C 4.53125,-4 4.34375,-3.765625 4.34375,-3.515625 c 0,0.15625 0.109375,0.34375 0.375,0.34375 0.21875,0 0.53125,-0.171875 0.53125,-0.578125 0,-0.515625 -0.578125,-0.65625 -0.921875,-0.65625 -0.578125,0 -0.921875,0.53125 -1.046875,0.75 -0.25,-0.65625 -0.78125,-0.75 -1.078125,-0.75 -1.03125,0 -1.609375,1.28125 -1.609375,1.53125 0,0.109375 0.109375,0.109375 0.125,0.109375 0.078125,0 0.109375,-0.03125 0.125,-0.109375 0.34375,-1.0625 1,-1.3125 1.34375,-1.3125 0.1875,0 0.53125,0.09375 0.53125,0.671875 0,0.3125 -0.171875,0.96875 -0.53125,2.375 -0.15625,0.609375 -0.515625,1.03125 -0.953125,1.03125 -0.0625,0 -0.28125,0 -0.5,-0.125 0.25,-0.0625 0.46875,-0.265625 0.46875,-0.546875 0,-0.265625 -0.21875,-0.34375 -0.359375,-0.34375 -0.3125,0 -0.546875,0.25 -0.546875,0.578125 0,0.453125 0.484375,0.65625 0.921875,0.65625 0.671875,0 1.03125,-0.703125 1.046875,-0.75 0.125,0.359375 0.484375,0.75 1.078125,0.75 1.03125,0 1.59375,-1.28125 1.59375,-1.53125 0,-0.109375 -0.078125,-0.109375 -0.109375,-0.109375 -0.09375,0 -0.109375,0.046875 -0.140625,0.109375 -0.328125,1.078125 -1,1.3125 -1.3125,1.3125 -0.390625,0 -0.546875,-0.3125 -0.546875,-0.65625 0,-0.21875 0.046875,-0.4375 0.15625,-0.875 z m 0,0"
               id="id-3f410a09-84a9-4e6c-b219-8264ada03316"
               style="fill-opacity:1;stroke:#000000;stroke-opacity:1;stroke-width:0" />
          </g>
          <g
             id="id-fc0f287a-1fa9-4b00-ab04-ac64f85494a6"
             style="fill-opacity:1;stroke:#000000;stroke-opacity:1;stroke-width:0">
            <path
               d="m 2.03125,-0.015625 c 0,-0.65625 -0.25,-1.046875 -0.640625,-1.046875 -0.328125,0 -0.53125,0.25 -0.53125,0.53125 C 0.859375,-0.265625 1.0625,0 1.390625,0 1.5,0 1.640625,-0.046875 1.734375,-0.125 1.765625,-0.15625 1.78125,-0.15625 1.78125,-0.15625 c 0.015625,0 0.015625,0 0.015625,0.140625 0,0.75 -0.34375,1.34375 -0.671875,1.671875 -0.109375,0.109375 -0.109375,0.125 -0.109375,0.15625 0,0.078125 0.046875,0.109375 0.09375,0.109375 0.109375,0 0.921875,-0.765625 0.921875,-1.9375 z m 0,0"
               id="id-79ed3d60-1ab7-4ec6-bb81-4efe2b2fe929"
               style="fill-opacity:1;stroke:#000000;stroke-opacity:1;stroke-width:0" />
          </g>
          <g
             id="id-1125a02b-c985-45ec-9ff3-125028cf6202"
             style="fill-opacity:1;stroke:#000000;stroke-opacity:1;stroke-width:0">
            <path
               d="m 2.046875,-3.984375 h 0.9375 c 0.203125,0 0.3125,0 0.3125,-0.203125 0,-0.109375 -0.109375,-0.109375 -0.28125,-0.109375 h -0.875 C 2.5,-5.71875 2.546875,-5.90625 2.546875,-5.96875 c 0,-0.171875 -0.125,-0.265625 -0.296875,-0.265625 -0.03125,0 -0.3125,0 -0.390625,0.359375 L 1.46875,-4.296875 h -0.9375 c -0.203125,0 -0.296875,0 -0.296875,0.1875 0,0.125 0.078125,0.125 0.28125,0.125 h 0.875 C 0.671875,-1.15625 0.625,-0.984375 0.625,-0.8125 0.625,-0.265625 1,0.109375 1.546875,0.109375 2.5625,0.109375 3.125,-1.34375 3.125,-1.421875 3.125,-1.53125 3.046875,-1.53125 3.015625,-1.53125 2.921875,-1.53125 2.90625,-1.5 2.859375,-1.390625 2.4375,-0.34375 1.90625,-0.109375 1.5625,-0.109375 c -0.203125,0 -0.3125,-0.125 -0.3125,-0.453125 0,-0.25 0.03125,-0.3125 0.0625,-0.484375 z m 0,0"
               id="id-6b0915a1-5981-491e-b4c2-7e84cf4e306d"
               style="fill-opacity:1;stroke:#000000;stroke-opacity:1;stroke-width:0" />
          </g>
          <g
             id="id-6c8d5c75-efb1-4ed8-aae0-bde7769aa62c"
             style="fill-opacity:1;stroke:#000000;stroke-opacity:1;stroke-width:0">
            <path
               d="m 3.296875,2.390625 c 0,-0.03125 0,-0.046875 -0.171875,-0.21875 C 1.890625,0.921875 1.5625,-0.96875 1.5625,-2.5 c 0,-1.734375 0.375,-3.46875 1.609375,-4.703125 0.125,-0.125 0.125,-0.140625 0.125,-0.171875 0,-0.078125 -0.03125,-0.109375 -0.09375,-0.109375 -0.109375,0 -1,0.6875 -1.59375,1.953125 -0.5,1.09375 -0.625,2.203125 -0.625,3.03125 0,0.78125 0.109375,1.984375 0.65625,3.125 C 2.25,1.84375 3.09375,2.5 3.203125,2.5 c 0.0625,0 0.09375,-0.03125 0.09375,-0.109375 z m 0,0"
               id="id-7fe45d24-003b-46fa-96ce-7d4071efd001"
               style="fill-opacity:1;stroke:#000000;stroke-opacity:1;stroke-width:0" />
          </g>
          <g
             id="id-ce400162-8c42-4a35-97ef-54fe4f625e9c"
             style="fill-opacity:1;stroke:#000000;stroke-opacity:1;stroke-width:0">
            <path
               d="m 2.875,-2.5 c 0,-0.765625 -0.109375,-1.96875 -0.65625,-3.109375 -0.59375,-1.21875 -1.453125,-1.875 -1.546875,-1.875 -0.0625,0 -0.109375,0.046875 -0.109375,0.109375 0,0.03125 0,0.046875 0.1875,0.234375 0.984375,0.984375 1.546875,2.5625 1.546875,4.640625 0,1.71875 -0.359375,3.46875 -1.59375,4.71875 C 0.5625,2.34375 0.5625,2.359375 0.5625,2.390625 0.5625,2.453125 0.609375,2.5 0.671875,2.5 0.765625,2.5 1.671875,1.8125 2.25,0.546875 2.765625,-0.546875 2.875,-1.65625 2.875,-2.5 Z m 0,0"
               id="id-9398bec3-5b07-4f62-8e16-525431e25de1"
               style="fill-opacity:1;stroke:#000000;stroke-opacity:1;stroke-width:0" />
          </g>
        </g>
      </defs>
      <g
         fill="#000000"
         fill-opacity="1"
         id="id-f880738f-0501-4143-9e2f-b21bd935e025"
         transform="translate(-149.462, -127.281)"
         style="fill-opacity:1;stroke:#000000;stroke-opacity:1;stroke-width:0">
        <g
           transform="translate(148.712, 134.765)"
           style="fill-opacity:1;stroke:#000000;stroke-opacity:1;stroke-width:0"
           id="g12">
          <path
             d="M 1.6875,-1.21875 C 2.75,-3.515625 4.171875,-3.875 4.828125,-3.875 c 0.546875,0 0.71875,0.484375 0.71875,0.96875 0,0.515625 -0.25,1.4375 -0.46875,1.859375 -0.40625,0.734375 -0.90625,0.9375 -1.203125,0.9375 -0.234375,0 -0.640625,-0.109375 -0.65625,-0.640625 0.234375,-0.046875 0.234375,-0.234375 0.234375,-0.25 0,-0.015625 -0.03125,-0.171875 -0.203125,-0.171875 -0.234375,0 -0.28125,0.28125 -0.28125,0.4375 0,0.453125 0.34375,0.84375 0.90625,0.84375 1.125,0 2.28125,-1.359375 2.28125,-2.6875 0,-0.78125 -0.4375,-1.515625 -1.3125,-1.515625 -0.828125,0 -2.21875,0.46875 -3.328125,2.65625 C 1.28125,-1.671875 1.28125,-1.984375 1.28125,-2.125 c 0,-0.859375 0.546875,-2.078125 1.15625,-2.171875 0.078125,-0.015625 0.140625,-0.015625 0.140625,-0.125 0,-0.09375 -0.09375,-0.09375 -0.125,-0.09375 -0.71875,0 -1.625,1.359375 -1.625,2.671875 0,0.578125 0.15625,0.765625 0.40625,1.0625 C 1,-0.15625 0.75,0.890625 0.75,1.34375 c 0,0.4375 0.171875,0.8125 0.671875,0.8125 0.65625,0 1.3125,-0.859375 1.3125,-1.640625 0,-0.390625 -0.09375,-0.5 -0.4375,-0.9375 C 2.15625,-0.609375 1.8125,-1.03125 1.6875,-1.21875 Z m 0.453125,1.609375 c 0.109375,0.140625 0.125,0.25 0.125,0.40625 0,0.5625 -0.4375,1.140625 -0.84375,1.140625 C 1,1.9375 1,1.546875 1,1.34375 1,0.828125 1.265625,-0.078125 1.40625,-0.546875 Z m 0,0"
             id="id-01df20de-7f43-4fea-9f70-52b6c01ca97a"
             style="fill-opacity:1;stroke:#000000;stroke-opacity:1;stroke-width:0" />
        </g>
      </g>
      <g
         fill="#000000"
         fill-opacity="1"
         id="id-76e3d119-2add-47d5-9838-b0433158c92c"
         transform="translate(-149.462, -127.281)"
         style="fill-opacity:1;stroke:#000000;stroke-opacity:1;stroke-width:0">
        <g
           transform="translate(155.053, 134.765)"
           style="fill-opacity:1;stroke:#000000;stroke-opacity:1;stroke-width:0"
           id="g13">
          <path
             d="m 3.296875,2.390625 c 0,-0.03125 0,-0.046875 -0.171875,-0.21875 C 1.890625,0.921875 1.5625,-0.96875 1.5625,-2.5 c 0,-1.734375 0.375,-3.46875 1.609375,-4.703125 0.125,-0.125 0.125,-0.140625 0.125,-0.171875 0,-0.078125 -0.03125,-0.109375 -0.09375,-0.109375 -0.109375,0 -1,0.6875 -1.59375,1.953125 -0.5,1.09375 -0.625,2.203125 -0.625,3.03125 0,0.78125 0.109375,1.984375 0.65625,3.125 C 2.25,1.84375 3.09375,2.5 3.203125,2.5 c 0.0625,0 0.09375,-0.03125 0.09375,-0.109375 z m 0,0"
             id="id-61971781-fa0e-4353-9c4c-cb16416e3fb2"
             style="fill-opacity:1;stroke:#000000;stroke-opacity:1;stroke-width:0" />
        </g>
      </g>
      <g
         fill="#000000"
         fill-opacity="1"
         id="id-a2b2f13d-2885-47c1-a6e1-923da05c95a3"
         transform="translate(-149.462, -127.281)"
         style="fill-opacity:1;stroke:#000000;stroke-opacity:1;stroke-width:0">
        <g
           transform="translate(158.927, 134.765)"
           style="fill-opacity:1;stroke:#000000;stroke-opacity:1;stroke-width:0"
           id="g14">
          <path
             d="M 3.328125,-3.015625 C 3.390625,-3.265625 3.625,-4.1875 4.3125,-4.1875 c 0.046875,0 0.296875,0 0.5,0.125 C 4.53125,-4 4.34375,-3.765625 4.34375,-3.515625 c 0,0.15625 0.109375,0.34375 0.375,0.34375 0.21875,0 0.53125,-0.171875 0.53125,-0.578125 0,-0.515625 -0.578125,-0.65625 -0.921875,-0.65625 -0.578125,0 -0.921875,0.53125 -1.046875,0.75 -0.25,-0.65625 -0.78125,-0.75 -1.078125,-0.75 -1.03125,0 -1.609375,1.28125 -1.609375,1.53125 0,0.109375 0.109375,0.109375 0.125,0.109375 0.078125,0 0.109375,-0.03125 0.125,-0.109375 0.34375,-1.0625 1,-1.3125 1.34375,-1.3125 0.1875,0 0.53125,0.09375 0.53125,0.671875 0,0.3125 -0.171875,0.96875 -0.53125,2.375 -0.15625,0.609375 -0.515625,1.03125 -0.953125,1.03125 -0.0625,0 -0.28125,0 -0.5,-0.125 0.25,-0.0625 0.46875,-0.265625 0.46875,-0.546875 0,-0.265625 -0.21875,-0.34375 -0.359375,-0.34375 -0.3125,0 -0.546875,0.25 -0.546875,0.578125 0,0.453125 0.484375,0.65625 0.921875,0.65625 0.671875,0 1.03125,-0.703125 1.046875,-0.75 0.125,0.359375 0.484375,0.75 1.078125,0.75 1.03125,0 1.59375,-1.28125 1.59375,-1.53125 0,-0.109375 -0.078125,-0.109375 -0.109375,-0.109375 -0.09375,0 -0.109375,0.046875 -0.140625,0.109375 -0.328125,1.078125 -1,1.3125 -1.3125,1.3125 -0.390625,0 -0.546875,-0.3125 -0.546875,-0.65625 0,-0.21875 0.046875,-0.4375 0.15625,-0.875 z m 0,0"
             id="id-80af1b98-6949-423c-83b1-c4753a20c6dc"
             style="fill-opacity:1;stroke:#000000;stroke-opacity:1;stroke-width:0" />
        </g>
        <g
           transform="translate(164.621, 134.765)"
           style="fill-opacity:1;stroke:#000000;stroke-opacity:1;stroke-width:0"
           id="g15">
          <path
             d="m 2.03125,-0.015625 c 0,-0.65625 -0.25,-1.046875 -0.640625,-1.046875 -0.328125,0 -0.53125,0.25 -0.53125,0.53125 C 0.859375,-0.265625 1.0625,0 1.390625,0 1.5,0 1.640625,-0.046875 1.734375,-0.125 1.765625,-0.15625 1.78125,-0.15625 1.78125,-0.15625 c 0.015625,0 0.015625,0 0.015625,0.140625 0,0.75 -0.34375,1.34375 -0.671875,1.671875 -0.109375,0.109375 -0.109375,0.125 -0.109375,0.15625 0,0.078125 0.046875,0.109375 0.09375,0.109375 0.109375,0 0.921875,-0.765625 0.921875,-1.9375 z m 0,0"
             id="id-8cc6705a-806f-40c7-82f0-4029746d3dfd"
             style="fill-opacity:1;stroke:#000000;stroke-opacity:1;stroke-width:0" />
        </g>
      </g>
      <g
         fill="#000000"
         fill-opacity="1"
         id="id-cded407b-4865-4cb4-a9cf-7fdeae5af725"
         transform="translate(-149.462, -127.281)"
         style="fill-opacity:1;stroke:#000000;stroke-opacity:1;stroke-width:0">
        <g
           transform="translate(169.052, 134.765)"
           style="fill-opacity:1;stroke:#000000;stroke-opacity:1;stroke-width:0"
           id="g16">
          <path
             d="m 2.046875,-3.984375 h 0.9375 c 0.203125,0 0.3125,0 0.3125,-0.203125 0,-0.109375 -0.109375,-0.109375 -0.28125,-0.109375 h -0.875 C 2.5,-5.71875 2.546875,-5.90625 2.546875,-5.96875 c 0,-0.171875 -0.125,-0.265625 -0.296875,-0.265625 -0.03125,0 -0.3125,0 -0.390625,0.359375 L 1.46875,-4.296875 h -0.9375 c -0.203125,0 -0.296875,0 -0.296875,0.1875 0,0.125 0.078125,0.125 0.28125,0.125 h 0.875 C 0.671875,-1.15625 0.625,-0.984375 0.625,-0.8125 0.625,-0.265625 1,0.109375 1.546875,0.109375 2.5625,0.109375 3.125,-1.34375 3.125,-1.421875 3.125,-1.53125 3.046875,-1.53125 3.015625,-1.53125 2.921875,-1.53125 2.90625,-1.5 2.859375,-1.390625 2.4375,-0.34375 1.90625,-0.109375 1.5625,-0.109375 c -0.203125,0 -0.3125,-0.125 -0.3125,-0.453125 0,-0.25 0.03125,-0.3125 0.0625,-0.484375 z m 0,0"
             id="id-1db9d3a5-1f42-44d7-8002-4e244bad163b"
             style="fill-opacity:1;stroke:#000000;stroke-opacity:1;stroke-width:0" />
        </g>
      </g>
      <g
         fill="#000000"
         fill-opacity="1"
         id="id-f92f8e16-5b13-4030-8ffe-654d2583757e"
         transform="translate(-149.462, -127.281)"
         style="fill-opacity:1;stroke:#000000;stroke-opacity:1;stroke-width:0">
        <g
           transform="translate(172.647, 134.765)"
           style="fill-opacity:1;stroke:#000000;stroke-opacity:1;stroke-width:0"
           id="g17">
          <path
             d="m 2.875,-2.5 c 0,-0.765625 -0.109375,-1.96875 -0.65625,-3.109375 -0.59375,-1.21875 -1.453125,-1.875 -1.546875,-1.875 -0.0625,0 -0.109375,0.046875 -0.109375,0.109375 0,0.03125 0,0.046875 0.1875,0.234375 0.984375,0.984375 1.546875,2.5625 1.546875,4.640625 0,1.71875 -0.359375,3.46875 -1.59375,4.71875 C 0.5625,2.34375 0.5625,2.359375 0.5625,2.390625 0.5625,2.453125 0.609375,2.5 0.671875,2.5 0.765625,2.5 1.671875,1.8125 2.25,0.546875 2.765625,-0.546875 2.875,-1.65625 2.875,-2.5 Z m 0,0"
             id="id-3ef2ccf4-88c6-4aa7-9a2d-7a743ba03383"
             style="fill-opacity:1;stroke:#000000;stroke-opacity:1;stroke-width:0" />
        </g>
      </g>
    </g>
    <g
       transform="matrix(0.4 0 0 0.4 39.1572 291.619)"
       ns0:version="1.10.2"
       ns0:texconverter="pdflatex"
       ns0:pdfconverter="inkscape"
       ns0:text="$\\frac{p_0}{M}$\n"
       ns0:preamble="C:\Users\phyps\AppData\Roaming\inkscape\extensions\textext\default_packages.tex"
       ns0:scale="2.83464566935"
       ns0:alignment="middle center"
       ns0:stroke-to-path="0"
       ns0:inkscapeversion="1.4"
       ns0:jacobian_sqrt="0.4"
       style="fill-opacity:1;stroke:#000000;stroke-opacity:1;stroke-width:0"
       id="g284">
      <defs
         id="id-ca93d4ab-b70a-421a-9757-b157eea4d3b3"
         style="fill-opacity:1;stroke:#000000;stroke-opacity:1;stroke-width:0">
        <g
           id="id-9a4d02d7-a121-4896-92b7-1cab8cdf136d"
           style="fill-opacity:1;stroke:#000000;stroke-opacity:1;stroke-width:0">
          <g
             id="id-72e89399-ca98-4b0d-b4e5-471acaf211cd"
             style="fill-opacity:1;stroke:#000000;stroke-opacity:1;stroke-width:0">
            <path
               d="m 0.515625,0.84375 c -0.046875,0.203125 -0.0625,0.25 -0.328125,0.25 -0.09375,0 -0.1875,0 -0.1875,0.15625 0,0.078125 0.0625,0.109375 0.09375,0.109375 0.171875,0 0.40625,-0.03125 0.59375,-0.03125 0.234375,0 0.5,0.03125 0.734375,0.03125 0.0625,0 0.140625,-0.03125 0.140625,-0.15625 0,-0.109375 -0.09375,-0.109375 -0.1875,-0.109375 -0.15625,0 -0.34375,0 -0.34375,-0.078125 0,-0.03125 0.0625,-0.21875 0.078125,-0.3125 0.09375,-0.375 0.1875,-0.75 0.265625,-1.046875 0.078125,0.140625 0.296875,0.40625 0.71875,0.40625 0.84375,0 1.78125,-0.9375 1.78125,-1.96875 0,-0.8125 -0.5625,-1.171875 -1.03125,-1.171875 -0.4375,0 -0.8125,0.296875 -1,0.5 -0.109375,-0.40625 -0.5,-0.5 -0.71875,-0.5 -0.265625,0 -0.4375,0.1875 -0.546875,0.375 -0.140625,0.234375 -0.25,0.65625 -0.25,0.703125 0,0.078125 0.09375,0.078125 0.125,0.078125 0.09375,0 0.09375,-0.015625 0.140625,-0.203125 0.109375,-0.40625 0.25,-0.75 0.515625,-0.75 0.1875,0 0.234375,0.15625 0.234375,0.34375 0,0.078125 -0.015625,0.15625 -0.03125,0.203125 z M 1.84375,-2.234375 C 2.25,-2.78125 2.59375,-2.875 2.8125,-2.875 c 0.28125,0 0.515625,0.203125 0.515625,0.671875 0,0.28125 -0.15625,1 -0.359375,1.40625 -0.1875,0.34375 -0.515625,0.671875 -0.875,0.671875 -0.5,0 -0.625,-0.53125 -0.625,-0.609375 0,-0.03125 0.015625,-0.078125 0.015625,-0.109375 z m 0,0"
               id="id-200be912-9d0d-48fd-9d59-2863d6b637f5"
               style="fill-opacity:1;stroke:#000000;stroke-opacity:1;stroke-width:0" />
          </g>
          <g
             id="id-1bd93b13-e195-484b-9963-8fc2d8bf514f"
             style="fill-opacity:1;stroke:#000000;stroke-opacity:1;stroke-width:0">
            <path
               d="m 7.109375,-4.1875 c 0.0625,-0.265625 0.078125,-0.328125 0.59375,-0.328125 0.15625,0 0.234375,0 0.234375,-0.140625 0,-0.109375 -0.078125,-0.109375 -0.203125,-0.109375 H 6.78125 c -0.203125,0 -0.203125,0.015625 -0.296875,0.140625 l -2.6875,3.984375 -0.6875,-3.9375 c -0.03125,-0.171875 -0.03125,-0.1875 -0.25,-0.1875 H 1.875 c -0.140625,0 -0.234375,0 -0.234375,0.15625 0,0.09375 0.078125,0.09375 0.234375,0.09375 0.109375,0 0.140625,0 0.265625,0.015625 0.140625,0.015625 0.15625,0.03125 0.15625,0.109375 0,0 0,0.046875 -0.03125,0.140625 l -0.875,3.5 c -0.0625,0.234375 -0.171875,0.484375 -0.734375,0.5 -0.046875,0 -0.140625,0 -0.140625,0.15625 0,0 0,0.09375 0.109375,0.09375 0.203125,0 0.5,-0.03125 0.71875,-0.03125 C 1.515625,-0.03125 1.921875,0 2.078125,0 2.125,0 2.21875,0 2.21875,-0.15625 2.21875,-0.25 2.125,-0.25 2.0625,-0.25 1.625,-0.265625 1.625,-0.453125 1.625,-0.546875 c 0,-0.03125 0,-0.0625 0.03125,-0.171875 l 0.921875,-3.703125 0.75,4.234375 C 3.359375,-0.0625 3.359375,0 3.46875,0 3.5625,0 3.625,-0.078125 3.671875,-0.15625 L 6.59375,-4.5 6.609375,-4.484375 5.625,-0.546875 C 5.5625,-0.3125 5.546875,-0.25 5.015625,-0.25 c -0.125,0 -0.21875,0 -0.21875,0.15625 0,0 0,0.09375 0.109375,0.09375 0.140625,0 0.296875,-0.015625 0.4375,-0.015625 0.140625,0 0.296875,-0.015625 0.4375,-0.015625 C 5.984375,-0.03125 6.46875,0 6.671875,0 6.703125,0 6.8125,0 6.8125,-0.15625 6.8125,-0.25 6.734375,-0.25 6.59375,-0.25 c -0.015625,0 -0.140625,0 -0.265625,-0.015625 -0.15625,-0.015625 -0.15625,-0.03125 -0.15625,-0.109375 0,-0.03125 0.015625,-0.109375 0.015625,-0.140625 z m 0,0"
               id="id-5960adc4-12f7-449b-8477-b65b8d491fba"
               style="fill-opacity:1;stroke:#000000;stroke-opacity:1;stroke-width:0" />
          </g>
          <g
             id="id-ef0b8bff-95f0-410c-9044-b08b64ba2419"
             style="fill-opacity:1;stroke:#000000;stroke-opacity:1;stroke-width:0">
            <path
               d="M 3,-1.59375 C 3,-1.953125 3,-3.3125 1.6875,-3.3125 c -1.296875,0 -1.296875,1.359375 -1.296875,1.71875 0,0.359375 0,1.703125 1.296875,1.703125 C 3,0.109375 3,-1.234375 3,-1.59375 Z M 1.6875,-0.0625 C 1.515625,-0.0625 1.09375,-0.125 0.96875,-0.625 0.890625,-0.890625 0.890625,-1.25 0.890625,-1.65625 c 0,-0.375 0,-0.71875 0.078125,-1 0.125,-0.421875 0.515625,-0.5 0.71875,-0.5 0.375,0 0.640625,0.1875 0.734375,0.546875 C 2.5,-2.359375 2.5,-1.953125 2.5,-1.65625 c 0,0.34375 0,0.75 -0.078125,1.046875 C 2.296875,-0.125 1.890625,-0.0625 1.6875,-0.0625 Z m 0,0"
               id="id-5ca91e79-76b0-4b51-a676-38a34a180dec"
               style="fill-opacity:1;stroke:#000000;stroke-opacity:1;stroke-width:0" />
          </g>
        </g>
      </defs>
      <g
         fill="#000000"
         fill-opacity="1"
         id="id-dd992011-db0b-4f3d-89b6-dd93a5b6fad2"
         transform="translate(-149.906, -127.242)"
         style="fill-opacity:1;stroke:#000000;stroke-opacity:1;stroke-width:0">
        <g
           transform="translate(150.083, 130.32)"
           style="fill-opacity:1;stroke:#000000;stroke-opacity:1;stroke-width:0"
           id="g18">
          <path
             d="m 0.515625,0.84375 c -0.046875,0.203125 -0.0625,0.25 -0.328125,0.25 -0.09375,0 -0.1875,0 -0.1875,0.15625 0,0.078125 0.0625,0.109375 0.09375,0.109375 0.171875,0 0.40625,-0.03125 0.59375,-0.03125 0.234375,0 0.5,0.03125 0.734375,0.03125 0.0625,0 0.140625,-0.03125 0.140625,-0.15625 0,-0.109375 -0.09375,-0.109375 -0.1875,-0.109375 -0.15625,0 -0.34375,0 -0.34375,-0.078125 0,-0.03125 0.0625,-0.21875 0.078125,-0.3125 0.09375,-0.375 0.1875,-0.75 0.265625,-1.046875 0.078125,0.140625 0.296875,0.40625 0.71875,0.40625 0.84375,0 1.78125,-0.9375 1.78125,-1.96875 0,-0.8125 -0.5625,-1.171875 -1.03125,-1.171875 -0.4375,0 -0.8125,0.296875 -1,0.5 -0.109375,-0.40625 -0.5,-0.5 -0.71875,-0.5 -0.265625,0 -0.4375,0.1875 -0.546875,0.375 -0.140625,0.234375 -0.25,0.65625 -0.25,0.703125 0,0.078125 0.09375,0.078125 0.125,0.078125 0.09375,0 0.09375,-0.015625 0.140625,-0.203125 0.109375,-0.40625 0.25,-0.75 0.515625,-0.75 0.1875,0 0.234375,0.15625 0.234375,0.34375 0,0.078125 -0.015625,0.15625 -0.03125,0.203125 z M 1.84375,-2.234375 C 2.25,-2.78125 2.59375,-2.875 2.8125,-2.875 c 0.28125,0 0.515625,0.203125 0.515625,0.671875 0,0.28125 -0.15625,1 -0.359375,1.40625 -0.1875,0.34375 -0.515625,0.671875 -0.875,0.671875 -0.5,0 -0.625,-0.53125 -0.625,-0.609375 0,-0.03125 0.015625,-0.078125 0.015625,-0.109375 z m 0,0"
             id="id-11f0c4fd-9af7-41df-baa5-716581ed74b7"
             style="fill-opacity:1;stroke:#000000;stroke-opacity:1;stroke-width:0" />
        </g>
      </g>
      <g
         fill="#000000"
         fill-opacity="1"
         id="id-a0e20a2a-cf3b-44e2-bdca-7aa9313a6225"
         transform="translate(-149.906, -127.242)"
         style="fill-opacity:1;stroke:#000000;stroke-opacity:1;stroke-width:0">
        <g
           transform="translate(154.19, 131.316)"
           style="fill-opacity:1;stroke:#000000;stroke-opacity:1;stroke-width:0"
           id="g19">
          <path
             d="M 3,-1.59375 C 3,-1.953125 3,-3.3125 1.6875,-3.3125 c -1.296875,0 -1.296875,1.359375 -1.296875,1.71875 0,0.359375 0,1.703125 1.296875,1.703125 C 3,0.109375 3,-1.234375 3,-1.59375 Z M 1.6875,-0.0625 C 1.515625,-0.0625 1.09375,-0.125 0.96875,-0.625 0.890625,-0.890625 0.890625,-1.25 0.890625,-1.65625 c 0,-0.375 0,-0.71875 0.078125,-1 0.125,-0.421875 0.515625,-0.5 0.71875,-0.5 0.375,0 0.640625,0.1875 0.734375,0.546875 C 2.5,-2.359375 2.5,-1.953125 2.5,-1.65625 c 0,0.34375 0,0.75 -0.078125,1.046875 C 2.296875,-0.125 1.890625,-0.0625 1.6875,-0.0625 Z m 0,0"
             id="id-b1a7d8df-c987-4071-b7eb-ef2e284e5fdc"
             style="fill-opacity:1;stroke:#000000;stroke-opacity:1;stroke-width:0" />
        </g>
      </g>
      <path
         fill="none"
         stroke-width="0.398"
         stroke-linecap="butt"
         stroke-linejoin="miter"
         stroke-opacity="1"
         stroke-miterlimit="10"
         d="M 0,5.0315552 H 8.347656"
         id="id-a2af649b-eefa-454b-b197-b44d9bf75165"
         style="fill-opacity:1;stroke:#000000;stroke-opacity:1;stroke-width:0" />
      <g
         fill="#000000"
         fill-opacity="1"
         id="id-6592719b-1d37-4034-95b0-a465ee564124"
         transform="translate(-149.906, -127.242)"
         style="fill-opacity:1;stroke:#000000;stroke-opacity:1;stroke-width:0">
        <g
           transform="translate(149.908, 138.2)"
           style="fill-opacity:1;stroke:#000000;stroke-opacity:1;stroke-width:0"
           id="g20">
          <path
             d="m 7.109375,-4.1875 c 0.0625,-0.265625 0.078125,-0.328125 0.59375,-0.328125 0.15625,0 0.234375,0 0.234375,-0.140625 0,-0.109375 -0.078125,-0.109375 -0.203125,-0.109375 H 6.78125 c -0.203125,0 -0.203125,0.015625 -0.296875,0.140625 l -2.6875,3.984375 -0.6875,-3.9375 c -0.03125,-0.171875 -0.03125,-0.1875 -0.25,-0.1875 H 1.875 c -0.140625,0 -0.234375,0 -0.234375,0.15625 0,0.09375 0.078125,0.09375 0.234375,0.09375 0.109375,0 0.140625,0 0.265625,0.015625 0.140625,0.015625 0.15625,0.03125 0.15625,0.109375 0,0 0,0.046875 -0.03125,0.140625 l -0.875,3.5 c -0.0625,0.234375 -0.171875,0.484375 -0.734375,0.5 -0.046875,0 -0.140625,0 -0.140625,0.15625 0,0 0,0.09375 0.109375,0.09375 0.203125,0 0.5,-0.03125 0.71875,-0.03125 C 1.515625,-0.03125 1.921875,0 2.078125,0 2.125,0 2.21875,0 2.21875,-0.15625 2.21875,-0.25 2.125,-0.25 2.0625,-0.25 1.625,-0.265625 1.625,-0.453125 1.625,-0.546875 c 0,-0.03125 0,-0.0625 0.03125,-0.171875 l 0.921875,-3.703125 0.75,4.234375 C 3.359375,-0.0625 3.359375,0 3.46875,0 3.5625,0 3.625,-0.078125 3.671875,-0.15625 L 6.59375,-4.5 6.609375,-4.484375 5.625,-0.546875 C 5.5625,-0.3125 5.546875,-0.25 5.015625,-0.25 c -0.125,0 -0.21875,0 -0.21875,0.15625 0,0 0,0.09375 0.109375,0.09375 0.140625,0 0.296875,-0.015625 0.4375,-0.015625 0.140625,0 0.296875,-0.015625 0.4375,-0.015625 C 5.984375,-0.03125 6.46875,0 6.671875,0 6.703125,0 6.8125,0 6.8125,-0.15625 6.8125,-0.25 6.734375,-0.25 6.59375,-0.25 c -0.015625,0 -0.140625,0 -0.265625,-0.015625 -0.15625,-0.015625 -0.15625,-0.03125 -0.15625,-0.109375 0,-0.03125 0.015625,-0.109375 0.015625,-0.140625 z m 0,0"
             id="id-b5e7cd30-d40e-4826-92d7-72ded1d7a32c"
             style="fill-opacity:1;stroke:#000000;stroke-opacity:1;stroke-width:0" />
        </g>
      </g>
    </g>
    <path
       style="fill:none;stroke:#000000;stroke-width:0.1;stroke-linecap:butt;stroke-linejoin:miter;stroke-opacity:1;stroke-dasharray:none"
       d="m 39.120534,293.66371 h 3.590775"
       id="path22" />
    <path
       style="fill:none;stroke:#000000;stroke-width:0.1;stroke-linecap:butt;stroke-linejoin:miter;stroke-dasharray:none;stroke-opacity:1"
       d="m 60.589582,293.90271 h 3.590775"
       id="path22-7" />
    <path
       style="fill:none;stroke:#000000;stroke-width:0.1;stroke-linecap:butt;stroke-linejoin:miter;stroke-dasharray:none;stroke-opacity:1"
       d="m 82.549999,294.0728 h 3.590775"
       id="path22-1" />
  </g>
</svg>
